<?xml version="1.0" encoding="UTF-8" standalone="no"?>
<!-- Created with Inkscape (http://www.inkscape.org/) -->

<svg
   xmlns:dc="http://purl.org/dc/elements/1.1/"
   xmlns:cc="http://creativecommons.org/ns#"
   xmlns:rdf="http://www.w3.org/1999/02/22-rdf-syntax-ns#"
   xmlns:svg="http://www.w3.org/2000/svg"
   xmlns="http://www.w3.org/2000/svg"
   xmlns:sodipodi="http://sodipodi.sourceforge.net/DTD/sodipodi-0.dtd"
   xmlns:inkscape="http://www.inkscape.org/namespaces/inkscape"
   width="131mm"
   height="55mm"
   viewBox="0 0 131 55"
   version="1.1"
   id="svg6351"
   inkscape:version="0.92.5 (2060ec1f9f, 2020-04-08)"
   sodipodi:docname="Fig_2OnlyTemperature.svg"
   inkscape:export-filename="/home/mcano/Documents/WorkingRepos/DHW_Uva/C.Outputs/Figure_2_edited.svg.png"
   inkscape:export-xdpi="99.8554"
   inkscape:export-ydpi="99.8554">
  <defs
     id="defs6345">
    <clipPath
       id="cpMC4wMHw1MDQuMDB8Mjg4LjAwfDAuMDA=-8">
      <rect
         x="0"
         y="0"
         width="504"
         height="288"
         id="rect15-84"
         style="fill:none;stroke:#000000;stroke-linecap:round;stroke-linejoin:round;stroke-miterlimit:10" />
    </clipPath>
    <clipPath
       id="cpMC4wMHw0NjguMDB8MzI0LjAwfDAuMDA=">
      <rect
         x="0"
         y="0"
         width="468"
         height="324"
         id="rect15"
         style="fill:none;stroke:#000000;stroke-linecap:round;stroke-linejoin:round;stroke-miterlimit:10" />
    </clipPath>
    <clipPath
       id="clipPath6367">
      <rect
         x="0"
         y="0"
         width="468"
         height="324"
         id="rect6365"
         style="fill:none;stroke:#000000;stroke-linecap:round;stroke-linejoin:round;stroke-miterlimit:10" />
    </clipPath>
    <clipPath
       id="clipPath6371">
      <rect
         x="0"
         y="0"
         width="468"
         height="324"
         id="rect6369"
         style="fill:none;stroke:#000000;stroke-linecap:round;stroke-linejoin:round;stroke-miterlimit:10" />
    </clipPath>
    <clipPath
       id="clipPath6375">
      <rect
         x="0"
         y="0"
         width="468"
         height="324"
         id="rect6373"
         style="fill:none;stroke:#000000;stroke-linecap:round;stroke-linejoin:round;stroke-miterlimit:10" />
    </clipPath>
    <clipPath
       id="clipPath6379">
      <rect
         x="0"
         y="0"
         width="468"
         height="324"
         id="rect6377"
         style="fill:none;stroke:#000000;stroke-linecap:round;stroke-linejoin:round;stroke-miterlimit:10" />
    </clipPath>
    <clipPath
       id="clipPath6383">
      <rect
         x="0"
         y="0"
         width="468"
         height="324"
         id="rect6381"
         style="fill:none;stroke:#000000;stroke-linecap:round;stroke-linejoin:round;stroke-miterlimit:10" />
    </clipPath>
    <clipPath
       id="clipPath6387">
      <rect
         x="0"
         y="0"
         width="468"
         height="324"
         id="rect6385"
         style="fill:none;stroke:#000000;stroke-linecap:round;stroke-linejoin:round;stroke-miterlimit:10" />
    </clipPath>
    <clipPath
       id="clipPath6391">
      <rect
         x="0"
         y="0"
         width="468"
         height="324"
         id="rect6389"
         style="fill:none;stroke:#000000;stroke-linecap:round;stroke-linejoin:round;stroke-miterlimit:10" />
    </clipPath>
    <clipPath
       id="clipPath6395">
      <rect
         x="0"
         y="0"
         width="468"
         height="324"
         id="rect6393"
         style="fill:none;stroke:#000000;stroke-linecap:round;stroke-linejoin:round;stroke-miterlimit:10" />
    </clipPath>
    <clipPath
       id="clipPath6399">
      <rect
         x="0"
         y="0"
         width="468"
         height="324"
         id="rect6397"
         style="fill:none;stroke:#000000;stroke-linecap:round;stroke-linejoin:round;stroke-miterlimit:10" />
    </clipPath>
    <clipPath
       id="clipPath6403">
      <rect
         x="0"
         y="0"
         width="468"
         height="324"
         id="rect6401"
         style="fill:none;stroke:#000000;stroke-linecap:round;stroke-linejoin:round;stroke-miterlimit:10" />
    </clipPath>
    <clipPath
       id="clipPath6407">
      <rect
         x="0"
         y="0"
         width="468"
         height="324"
         id="rect6405"
         style="fill:none;stroke:#000000;stroke-linecap:round;stroke-linejoin:round;stroke-miterlimit:10" />
    </clipPath>
    <clipPath
       id="clipPath6411">
      <rect
         x="0"
         y="0"
         width="468"
         height="324"
         id="rect6409"
         style="fill:none;stroke:#000000;stroke-linecap:round;stroke-linejoin:round;stroke-miterlimit:10" />
    </clipPath>
    <clipPath
       id="clipPath6415">
      <rect
         x="0"
         y="0"
         width="468"
         height="324"
         id="rect6413"
         style="fill:none;stroke:#000000;stroke-linecap:round;stroke-linejoin:round;stroke-miterlimit:10" />
    </clipPath>
    <clipPath
       id="clipPath6419">
      <rect
         x="0"
         y="0"
         width="468"
         height="324"
         id="rect6417"
         style="fill:none;stroke:#000000;stroke-linecap:round;stroke-linejoin:round;stroke-miterlimit:10" />
    </clipPath>
    <clipPath
       id="clipPath6423">
      <rect
         x="0"
         y="0"
         width="468"
         height="324"
         id="rect6421"
         style="fill:none;stroke:#000000;stroke-linecap:round;stroke-linejoin:round;stroke-miterlimit:10" />
    </clipPath>
    <clipPath
       id="clipPath6427">
      <rect
         x="0"
         y="0"
         width="468"
         height="324"
         id="rect6425"
         style="fill:none;stroke:#000000;stroke-linecap:round;stroke-linejoin:round;stroke-miterlimit:10" />
    </clipPath>
    <clipPath
       id="clipPath6431">
      <rect
         x="0"
         y="0"
         width="468"
         height="324"
         id="rect6429"
         style="fill:none;stroke:#000000;stroke-linecap:round;stroke-linejoin:round;stroke-miterlimit:10" />
    </clipPath>
    <clipPath
       id="clipPath6435">
      <rect
         x="0"
         y="0"
         width="468"
         height="324"
         id="rect6433"
         style="fill:none;stroke:#000000;stroke-linecap:round;stroke-linejoin:round;stroke-miterlimit:10" />
    </clipPath>
    <clipPath
       id="clipPath6439">
      <rect
         x="0"
         y="0"
         width="468"
         height="324"
         id="rect6437"
         style="fill:none;stroke:#000000;stroke-linecap:round;stroke-linejoin:round;stroke-miterlimit:10" />
    </clipPath>
    <clipPath
       id="clipPath6443">
      <rect
         x="0"
         y="0"
         width="468"
         height="324"
         id="rect6441"
         style="fill:none;stroke:#000000;stroke-linecap:round;stroke-linejoin:round;stroke-miterlimit:10" />
    </clipPath>
    <clipPath
       id="clipPath6447">
      <rect
         x="0"
         y="0"
         width="468"
         height="324"
         id="rect6445"
         style="fill:none;stroke:#000000;stroke-linecap:round;stroke-linejoin:round;stroke-miterlimit:10" />
    </clipPath>
    <clipPath
       id="clipPath6451">
      <rect
         x="0"
         y="0"
         width="468"
         height="324"
         id="rect6449"
         style="fill:none;stroke:#000000;stroke-linecap:round;stroke-linejoin:round;stroke-miterlimit:10" />
    </clipPath>
    <clipPath
       id="clipPath6455">
      <rect
         x="0"
         y="0"
         width="468"
         height="324"
         id="rect6453"
         style="fill:none;stroke:#000000;stroke-linecap:round;stroke-linejoin:round;stroke-miterlimit:10" />
    </clipPath>
    <clipPath
       id="clipPath6459">
      <rect
         x="0"
         y="0"
         width="468"
         height="324"
         id="rect6457"
         style="fill:none;stroke:#000000;stroke-linecap:round;stroke-linejoin:round;stroke-miterlimit:10" />
    </clipPath>
    <clipPath
       id="clipPath6463">
      <rect
         x="0"
         y="0"
         width="468"
         height="324"
         id="rect6461"
         style="fill:none;stroke:#000000;stroke-linecap:round;stroke-linejoin:round;stroke-miterlimit:10" />
    </clipPath>
    <clipPath
       id="clipPath6467">
      <rect
         x="0"
         y="0"
         width="468"
         height="324"
         id="rect6465"
         style="fill:none;stroke:#000000;stroke-linecap:round;stroke-linejoin:round;stroke-miterlimit:10" />
    </clipPath>
    <clipPath
       id="clipPath6471">
      <rect
         x="0"
         y="0"
         width="468"
         height="324"
         id="rect6469"
         style="fill:none;stroke:#000000;stroke-linecap:round;stroke-linejoin:round;stroke-miterlimit:10" />
    </clipPath>
    <clipPath
       id="clipPath6475">
      <rect
         x="0"
         y="0"
         width="468"
         height="324"
         id="rect6473"
         style="fill:none;stroke:#000000;stroke-linecap:round;stroke-linejoin:round;stroke-miterlimit:10" />
    </clipPath>
    <clipPath
       id="clipPath6479">
      <rect
         x="0"
         y="0"
         width="468"
         height="324"
         id="rect6477"
         style="fill:none;stroke:#000000;stroke-linecap:round;stroke-linejoin:round;stroke-miterlimit:10" />
    </clipPath>
    <clipPath
       id="clipPath6483">
      <rect
         x="0"
         y="0"
         width="468"
         height="324"
         id="rect6481"
         style="fill:none;stroke:#000000;stroke-linecap:round;stroke-linejoin:round;stroke-miterlimit:10" />
    </clipPath>
    <clipPath
       id="clipPath6487">
      <rect
         x="0"
         y="0"
         width="468"
         height="324"
         id="rect6485"
         style="fill:none;stroke:#000000;stroke-linecap:round;stroke-linejoin:round;stroke-miterlimit:10" />
    </clipPath>
    <clipPath
       id="clipPath6491">
      <rect
         x="0"
         y="0"
         width="468"
         height="324"
         id="rect6489"
         style="fill:none;stroke:#000000;stroke-linecap:round;stroke-linejoin:round;stroke-miterlimit:10" />
    </clipPath>
    <clipPath
       id="clipPath6495">
      <rect
         x="0"
         y="0"
         width="468"
         height="324"
         id="rect6493"
         style="fill:none;stroke:#000000;stroke-linecap:round;stroke-linejoin:round;stroke-miterlimit:10" />
    </clipPath>
    <clipPath
       id="clipPath6499">
      <rect
         x="0"
         y="0"
         width="468"
         height="324"
         id="rect6497"
         style="fill:none;stroke:#000000;stroke-linecap:round;stroke-linejoin:round;stroke-miterlimit:10" />
    </clipPath>
    <clipPath
       id="clipPath6503">
      <rect
         x="0"
         y="0"
         width="468"
         height="324"
         id="rect6501"
         style="fill:none;stroke:#000000;stroke-linecap:round;stroke-linejoin:round;stroke-miterlimit:10" />
    </clipPath>
    <clipPath
       id="clipPath6507">
      <rect
         x="0"
         y="0"
         width="468"
         height="324"
         id="rect6505"
         style="fill:none;stroke:#000000;stroke-linecap:round;stroke-linejoin:round;stroke-miterlimit:10" />
    </clipPath>
    <clipPath
       id="cpMzguMjR8NDYyLjUyfDI5Mi4zN3wxOTkuODg=">
      <rect
         x="38.240002"
         y="199.88"
         width="424.28"
         height="92.489998"
         id="rect170"
         style="fill:none;stroke:#000000;stroke-linecap:round;stroke-linejoin:round;stroke-miterlimit:10" />
    </clipPath>
    <clipPath
       id="clipPath6513">
      <rect
         x="38.240002"
         y="199.88"
         width="424.28"
         height="92.489998"
         id="rect6511"
         style="fill:none;stroke:#000000;stroke-linecap:round;stroke-linejoin:round;stroke-miterlimit:10" />
    </clipPath>
    <clipPath
       id="clipPath6517">
      <rect
         x="38.240002"
         y="199.88"
         width="424.28"
         height="92.489998"
         id="rect6515"
         style="fill:none;stroke:#000000;stroke-linecap:round;stroke-linejoin:round;stroke-miterlimit:10" />
    </clipPath>
    <clipPath
       id="clipPath6521">
      <rect
         x="38.240002"
         y="199.88"
         width="424.28"
         height="92.489998"
         id="rect6519"
         style="fill:none;stroke:#000000;stroke-linecap:round;stroke-linejoin:round;stroke-miterlimit:10" />
    </clipPath>
    <clipPath
       id="clipPath6525">
      <rect
         x="0"
         y="0"
         width="468"
         height="324"
         id="rect6523"
         style="fill:none;stroke:#000000;stroke-linecap:round;stroke-linejoin:round;stroke-miterlimit:10" />
    </clipPath>
    <clipPath
       id="clipPath6529">
      <rect
         x="0"
         y="0"
         width="468"
         height="324"
         id="rect6527"
         style="fill:none;stroke:#000000;stroke-linecap:round;stroke-linejoin:round;stroke-miterlimit:10" />
    </clipPath>
    <clipPath
       id="clipPath6533">
      <rect
         x="0"
         y="0"
         width="468"
         height="324"
         id="rect6531"
         style="fill:none;stroke:#000000;stroke-linecap:round;stroke-linejoin:round;stroke-miterlimit:10" />
    </clipPath>
    <clipPath
       id="clipPath6537">
      <rect
         x="0"
         y="0"
         width="468"
         height="324"
         id="rect6535"
         style="fill:none;stroke:#000000;stroke-linecap:round;stroke-linejoin:round;stroke-miterlimit:10" />
    </clipPath>
    <clipPath
       id="clipPath6541">
      <rect
         x="0"
         y="0"
         width="468"
         height="324"
         id="rect6539"
         style="fill:none;stroke:#000000;stroke-linecap:round;stroke-linejoin:round;stroke-miterlimit:10" />
    </clipPath>
    <clipPath
       id="clipPath6545">
      <rect
         x="0"
         y="0"
         width="468"
         height="324"
         id="rect6543"
         style="fill:none;stroke:#000000;stroke-linecap:round;stroke-linejoin:round;stroke-miterlimit:10" />
    </clipPath>
    <clipPath
       id="clipPath6549">
      <rect
         x="0"
         y="0"
         width="468"
         height="324"
         id="rect6547"
         style="fill:none;stroke:#000000;stroke-linecap:round;stroke-linejoin:round;stroke-miterlimit:10" />
    </clipPath>
    <clipPath
       id="clipPath6553">
      <rect
         x="0"
         y="0"
         width="468"
         height="324"
         id="rect6551"
         style="fill:none;stroke:#000000;stroke-linecap:round;stroke-linejoin:round;stroke-miterlimit:10" />
    </clipPath>
    <clipPath
       id="clipPath6557">
      <rect
         x="0"
         y="0"
         width="468"
         height="324"
         id="rect6555"
         style="fill:none;stroke:#000000;stroke-linecap:round;stroke-linejoin:round;stroke-miterlimit:10" />
    </clipPath>
    <clipPath
       id="clipPath6561">
      <rect
         x="0"
         y="0"
         width="468"
         height="324"
         id="rect6559"
         style="fill:none;stroke:#000000;stroke-linecap:round;stroke-linejoin:round;stroke-miterlimit:10" />
    </clipPath>
    <clipPath
       id="clipPath6565">
      <rect
         x="0"
         y="0"
         width="468"
         height="324"
         id="rect6563"
         style="fill:none;stroke:#000000;stroke-linecap:round;stroke-linejoin:round;stroke-miterlimit:10" />
    </clipPath>
    <clipPath
       id="clipPath6569">
      <rect
         x="0"
         y="0"
         width="468"
         height="324"
         id="rect6567"
         style="fill:none;stroke:#000000;stroke-linecap:round;stroke-linejoin:round;stroke-miterlimit:10" />
    </clipPath>
    <clipPath
       id="clipPath6573">
      <rect
         x="0"
         y="0"
         width="468"
         height="324"
         id="rect6571"
         style="fill:none;stroke:#000000;stroke-linecap:round;stroke-linejoin:round;stroke-miterlimit:10" />
    </clipPath>
    <clipPath
       id="clipPath6577">
      <rect
         x="0"
         y="0"
         width="468"
         height="324"
         id="rect6575"
         style="fill:none;stroke:#000000;stroke-linecap:round;stroke-linejoin:round;stroke-miterlimit:10" />
    </clipPath>
    <clipPath
       id="clipPath6581">
      <rect
         x="0"
         y="0"
         width="468"
         height="324"
         id="rect6579"
         style="fill:none;stroke:#000000;stroke-linecap:round;stroke-linejoin:round;stroke-miterlimit:10" />
    </clipPath>
    <clipPath
       id="clipPath6585">
      <rect
         x="0"
         y="0"
         width="468"
         height="324"
         id="rect6583"
         style="fill:none;stroke:#000000;stroke-linecap:round;stroke-linejoin:round;stroke-miterlimit:10" />
    </clipPath>
    <clipPath
       id="clipPath6589">
      <rect
         x="0"
         y="0"
         width="468"
         height="324"
         id="rect6587"
         style="fill:none;stroke:#000000;stroke-linecap:round;stroke-linejoin:round;stroke-miterlimit:10" />
    </clipPath>
    <clipPath
       id="cpMzguMjR8NDYyLjUyfDE2Mi43N3w1LjQ4">
      <rect
         x="38.240002"
         y="5.48"
         width="424.28"
         height="157.28999"
         id="rect20"
         style="fill:none;stroke:#000000;stroke-linecap:round;stroke-linejoin:round;stroke-miterlimit:10" />
    </clipPath>
    <clipPath
       id="clipPath6595">
      <rect
         x="38.240002"
         y="5.48"
         width="424.28"
         height="157.28999"
         id="rect6593"
         style="fill:none;stroke:#000000;stroke-linecap:round;stroke-linejoin:round;stroke-miterlimit:10" />
    </clipPath>
    <clipPath
       id="clipPath6599">
      <rect
         x="38.240002"
         y="5.48"
         width="424.28"
         height="157.28999"
         id="rect6597"
         style="fill:none;stroke:#000000;stroke-linecap:round;stroke-linejoin:round;stroke-miterlimit:10" />
    </clipPath>
    <clipPath
       id="clipPath6603">
      <rect
         x="38.240002"
         y="5.48"
         width="424.28"
         height="157.28999"
         id="rect6601"
         style="fill:none;stroke:#000000;stroke-linecap:round;stroke-linejoin:round;stroke-miterlimit:10" />
    </clipPath>
    <clipPath
       id="clipPath6607">
      <rect
         x="38.240002"
         y="5.48"
         width="424.28"
         height="157.28999"
         id="rect6605"
         style="fill:none;stroke:#000000;stroke-linecap:round;stroke-linejoin:round;stroke-miterlimit:10" />
    </clipPath>
    <clipPath
       id="clipPath6611">
      <rect
         x="38.240002"
         y="5.48"
         width="424.28"
         height="157.28999"
         id="rect6609"
         style="fill:none;stroke:#000000;stroke-linecap:round;stroke-linejoin:round;stroke-miterlimit:10" />
    </clipPath>
    <clipPath
       id="clipPath6615">
      <rect
         x="38.240002"
         y="5.48"
         width="424.28"
         height="157.28999"
         id="rect6613"
         style="fill:none;stroke:#000000;stroke-linecap:round;stroke-linejoin:round;stroke-miterlimit:10" />
    </clipPath>
    <clipPath
       id="clipPath6619">
      <rect
         x="38.240002"
         y="5.48"
         width="424.28"
         height="157.28999"
         id="rect6617"
         style="fill:none;stroke:#000000;stroke-linecap:round;stroke-linejoin:round;stroke-miterlimit:10" />
    </clipPath>
    <clipPath
       id="clipPath6623">
      <rect
         x="38.240002"
         y="5.48"
         width="424.28"
         height="157.28999"
         id="rect6621"
         style="fill:none;stroke:#000000;stroke-linecap:round;stroke-linejoin:round;stroke-miterlimit:10" />
    </clipPath>
  </defs>
  <sodipodi:namedview
     id="base"
     pagecolor="#ffffff"
     bordercolor="#666666"
     borderopacity="1.0"
     inkscape:pageopacity="0.0"
     inkscape:pageshadow="2"
     inkscape:zoom="1.08"
     inkscape:cx="314.76059"
     inkscape:cy="108.3871"
     inkscape:document-units="mm"
     inkscape:current-layer="layer1"
     showgrid="false"
     inkscape:window-width="1524"
     inkscape:window-height="863"
     inkscape:window-x="1996"
     inkscape:window-y="0"
     inkscape:window-maximized="1" />
  <metadata
     id="metadata6348">
    <rdf:RDF>
      <cc:Work
         rdf:about="">
        <dc:format>image/svg+xml</dc:format>
        <dc:type
           rdf:resource="http://purl.org/dc/dcmitype/StillImage" />
        <dc:title></dc:title>
      </cc:Work>
    </rdf:RDF>
  </metadata>
  <g
     inkscape:label="Layer 1"
     inkscape:groupmode="layer"
     id="layer1"
     transform="translate(0,-242)">
    <rect
       x="38.240002"
       y="5.48"
       width="424.28"
       height="157.28999"
       style="fill:#ffffff;stroke:none;stroke-width:1.07000005;stroke-linecap:round;stroke-linejoin:round;stroke-miterlimit:10"
       clip-path="url(#cpMzguMjR8NDYyLjUyfDE2Mi43N3w1LjQ4)"
       id="rect25"
       transform="matrix(0.30615703,0,0,0.3222121,-11.742499,243.07821)"
       inkscape:export-xdpi="99.8554"
       inkscape:export-ydpi="99.8554" />
    <line
       x1="38.240002"
       y1="35.310001"
       x2="462.51999"
       y2="35.310001"
       style="fill:none;stroke:#000000;stroke-width:1.07000005;stroke-linecap:butt;stroke-linejoin:round;stroke-miterlimit:10;stroke-dasharray:5.69, 5.69"
       clip-path="url(#cpMzguMjR8NDYyLjUyfDE2Mi43N3w1LjQ4)"
       id="line27"
       transform="matrix(0.26458333,0,0,0.26458333,-0.35333761,243.39402)" />
    <line
       x1="38.240002"
       y1="38.470001"
       x2="462.51999"
       y2="38.470001"
       style="fill:none;stroke:#bebebe;stroke-width:1.07000005;stroke-linecap:butt;stroke-linejoin:round;stroke-miterlimit:10;stroke-dasharray:5.69, 5.69"
       clip-path="url(#cpMzguMjR8NDYyLjUyfDE2Mi43N3w1LjQ4)"
       id="line29"
       transform="matrix(0.26458333,0,0,0.26458333,-0.35333761,243.39402)" />
    <polyline
       points="57.53,61.14 58.06,67.49 58.59,67.19 59.12,61.14 59.65,61.14 60.18,62.35 60.72,63.26 61.25,54.49 61.78,52.98 62.31,52.07 62.84,51.17 63.37,52.07 63.90,54.19 64.43,57.21 64.97,59.03 65.50,54.19 66.03,57.52 66.56,63.26 67.09,68.70 67.62,72.03 68.15,56.61 68.68,52.98 69.22,56.31 69.75,55.70 70.28,62.05 70.81,69.01 71.34,69.01 71.87,63.26 72.40,61.75 72.93,60.54 73.47,59.03 74.00,58.12 74.53,58.42 75.06,60.54 75.59,62.66 76.12,72.03 76.65,75.96 77.18,78.98 77.72,72.94 78.25,57.52 78.78,61.14 79.31,72.33 79.84,69.31 80.37,63.87 80.90,52.07 81.43,69.91 81.97,57.52 82.50,56.91 83.03,57.52 83.56,59.63 84.09,54.49 84.62,56.00 85.15,58.42 85.69,55.10 86.22,59.03 86.75,61.45 87.28,67.49 87.81,80.50 88.34,85.64 88.87,93.20 89.40,104.08 89.94,108.92 90.47,98.03 91.00,102.27 91.53,102.57 92.06,97.73 92.59,98.03 93.12,99.55 93.65,81.40 94.19,73.54 94.72,74.15 95.25,85.64 95.78,88.96 96.31,82.61 96.84,78.68 97.37,75.66 97.90,73.84 98.44,69.61 98.97,66.29 99.50,74.45 100.03,82.01 100.56,79.59 101.09,69.91 101.62,59.33 102.15,59.33 102.69,61.14 103.22,66.59 103.75,80.50 104.28,80.50 104.81,71.73 105.34,69.91 105.87,71.73 106.40,85.64 106.94,110.13 107.47,107.10 108.00,100.45 108.53,98.03 109.06,105.59 109.59,93.50 110.12,91.99 110.66,91.99 111.19,91.68 111.72,95.61 112.25,99.55 112.78,99.55 113.31,88.06 113.84,68.40 114.37,62.96 114.91,63.87 115.44,75.96 115.97,86.24 116.50,88.36 117.03,91.38 117.56,83.82 118.09,89.87 118.62,90.78 119.16,89.87 119.69,78.38 120.22,78.38 120.75,85.64 121.28,90.78 121.81,87.15 122.34,90.17 122.87,84.12 123.41,80.19 123.94,80.19 124.47,79.29 125.00,88.06 125.53,100.15 126.06,75.66 126.59,68.10 127.12,79.59 127.66,93.20 128.19,95.01 128.72,95.61 129.25,71.12 129.78,69.91 130.31,69.91 130.84,73.24 131.38,85.94 131.91,86.85 132.44,77.47 132.97,83.22 133.50,86.54 134.03,87.15 134.56,88.66 135.09,74.45 135.63,74.75 136.16,74.75 136.69,76.26 137.22,75.36 137.75,75.05 138.28,104.99 138.81,112.85 139.34,104.99 139.88,88.36 140.41,69.61 140.94,72.03 141.47,71.12 142.00,67.19 142.53,65.98 143.06,66.29 143.59,69.91 144.13,69.91 144.66,62.66 145.19,59.63 145.72,57.82 146.25,73.84 146.78,73.54 147.31,64.77 147.84,61.45 148.38,67.19 148.91,66.89 149.44,65.08 149.97,53.89 150.50,54.49 151.03,56.61 151.56,55.40 152.09,55.10 152.63,58.12 153.16,58.73 153.69,61.14 154.22,60.24 154.75,55.70 155.28,44.51 155.81,49.96 156.35,52.38 156.88,52.07 157.41,52.98 157.94,52.98 158.47,63.26 159.00,54.19 159.53,49.96 160.06,49.66 160.60,68.40 161.13,64.47 161.66,67.19 162.19,67.49 162.72,66.89 163.25,66.89 163.78,62.66 164.31,57.82 164.85,53.89 165.38,51.77 165.91,48.14 166.44,54.19 166.97,67.49 167.50,56.31 168.03,52.68 168.56,62.05 169.10,62.96 169.63,59.33 170.16,56.91 170.69,57.52 171.22,59.63 171.75,62.05 172.28,56.00 172.81,49.66 173.35,39.07 173.88,56.00 174.41,62.05 174.94,63.87 175.47,64.17 176.00,72.63 176.53,72.03 177.06,64.77 177.60,59.94 178.13,58.73 178.66,65.38 179.19,60.24 179.72,71.43 180.25,74.45 180.78,80.80 181.32,80.50 181.85,77.17 182.38,73.84 182.91,61.45 183.44,58.73 183.97,61.75 184.50,60.24 185.03,61.75 185.57,59.94 186.10,62.05 186.63,59.63 187.16,64.77 187.69,73.24 188.22,82.31 188.75,81.71 189.28,77.78 189.82,68.40 190.35,69.31 190.88,67.19 191.41,69.61 191.94,70.82 192.47,65.68 193.00,67.19 193.53,97.13 194.07,85.64 194.60,82.01 195.13,61.45 195.66,59.63 196.19,66.89 196.72,74.15 197.25,72.94 197.78,72.03 198.32,80.80 198.85,70.82 199.38,68.10 199.91,60.24 200.44,55.10 200.97,51.47 201.50,50.56 202.03,49.05 202.57,49.66 203.10,54.49 203.63,56.61 204.16,54.19 204.69,47.24 205.22,45.12 205.75,45.42 206.29,49.35 206.82,46.93 207.35,56.00 207.88,64.47 208.41,70.82 208.94,75.05 209.47,90.17 210.00,90.17 210.54,92.89 211.07,98.03 211.60,101.66 212.13,96.22 212.66,97.13 213.19,79.29 213.72,78.68 214.25,80.19 214.79,71.73 215.32,68.40 215.85,65.08 216.38,62.96 216.91,57.82 217.44,38.77 217.97,37.86 218.50,37.56 219.04,42.40 219.57,48.14 220.10,49.35 220.63,47.84 221.16,49.35 221.69,53.59 222.22,50.86 222.75,33.93 223.29,28.49 223.82,28.79 224.35,30.61 224.88,35.14 225.41,49.66 225.94,65.98 226.47,68.10 227.01,46.93 227.54,45.12 228.07,46.63 228.60,46.63 229.13,48.14 229.66,49.05 230.19,54.49 230.72,64.77 231.26,67.19 231.79,67.49 232.32,70.82 232.85,74.15 233.38,69.01 233.91,68.10 234.44,67.19 234.97,65.08 235.51,43.61 236.04,39.37 236.57,38.77 237.10,30.61 237.63,32.12 238.16,35.14 238.69,36.35 239.22,29.09 239.76,28.79 240.29,24.56 240.82,24.86 241.35,35.14 241.88,38.77 242.41,34.23 242.94,36.96 243.47,27.58 244.01,24.56 244.54,29.40 245.07,33.63 245.60,25.77 246.13,21.84 246.66,18.21 247.19,21.54 247.72,31.82 248.26,31.82 248.79,33.33 249.32,33.63 249.85,35.14 250.38,36.35 250.91,34.23 251.44,34.54 251.98,35.44 252.51,43.31 253.04,45.12 253.57,46.33 254.10,56.00 254.63,59.03 255.16,51.47 255.69,35.75 256.23,40.58 256.76,42.10 257.29,39.68 257.82,38.77 258.35,37.56 258.88,30.30 259.41,29.09 259.94,47.84 260.48,35.14 261.01,24.26 261.54,18.51 262.07,14.88 262.60,23.65 263.13,29.09 263.66,32.42 264.19,33.63 264.73,34.23 265.26,41.49 265.79,43.31 266.32,43.00 266.85,42.10 267.38,42.40 267.91,30.91 268.44,40.28 268.98,56.61 269.51,61.75 270.04,63.56 270.57,60.54 271.10,62.05 271.63,56.61 272.16,62.35 272.69,62.35 273.23,55.70 273.76,46.63 274.29,38.17 274.82,43.00 275.35,39.68 275.88,36.65 276.41,39.07 276.95,41.79 277.48,39.98 278.01,40.28 278.54,42.10 279.07,41.49 279.60,39.98 280.13,47.24 280.66,60.24 281.20,64.17 281.73,62.66 282.26,69.31 282.79,77.47 283.32,78.98 283.85,67.19 284.38,67.49 284.91,64.77 285.45,72.03 285.98,76.87 286.51,76.26 287.04,75.36 287.57,89.57 288.10,92.59 288.63,90.17 289.16,78.98 289.70,78.08 290.23,89.26 290.76,89.87 291.29,72.94 291.82,60.54 292.35,56.61 292.88,57.21 293.41,58.12 293.95,48.75 294.48,46.93 295.01,46.63 295.54,46.93 296.07,48.45 296.60,47.54 297.13,44.82 297.67,49.96 298.20,52.98 298.73,49.96 299.26,43.31 299.79,43.31 300.32,45.42 300.85,46.33 301.38,45.42 301.92,46.93 302.45,59.03 302.98,59.63 303.51,58.73 304.04,51.77 304.57,54.19 305.10,54.19 305.63,54.19 306.17,51.47 306.70,58.73 307.23,59.03 307.76,56.61 308.29,52.68 308.82,52.38 309.35,50.86 309.88,47.84 310.42,40.58 310.95,40.89 311.48,40.89 312.01,39.68 312.54,43.61 313.07,45.72 313.60,47.84 314.13,49.35 314.67,44.21 315.20,65.68 315.73,67.49 316.26,67.19 316.79,70.82 317.32,72.33 317.85,72.33 318.38,72.94 318.92,73.84 319.45,69.91 319.98,62.05 320.51,69.91 321.04,70.52 321.57,62.35 322.10,59.33 322.64,60.24 323.17,63.87 323.70,56.61 324.23,64.17 324.76,58.73 325.29,51.47 325.82,44.51 326.35,40.89 326.89,39.98 327.42,34.84 327.95,32.72 328.48,28.49 329.01,26.98 329.54,29.70 330.07,41.49 330.60,33.02 331.14,36.65 331.67,37.86 332.20,38.17 332.73,42.10 333.26,40.28 333.79,43.31 334.32,42.70 334.85,36.35 335.39,33.63 335.92,32.42 336.45,32.72 336.98,32.42 337.51,28.19 338.04,26.68 338.57,26.37 339.10,25.16 339.64,27.88 340.17,28.49 340.70,27.88 341.23,24.26 341.76,22.14 342.29,23.35 342.82,25.77 343.35,25.47 343.89,24.86 344.42,20.93 344.95,21.23 345.48,23.95 346.01,23.35 346.54,22.74 347.07,19.12 347.61,20.33 348.14,29.40 348.67,24.26 349.20,20.33 349.73,31.21 350.26,33.93 350.79,34.54 351.32,42.40 351.86,63.56 352.39,51.77 352.92,15.19 353.45,22.74 353.98,33.63 354.51,33.63 355.04,33.02 355.57,43.61 356.11,48.45 356.64,40.58 357.17,33.02 357.70,41.49 358.23,43.61 358.76,47.24 359.29,50.86 359.82,49.96 360.36,46.33 360.89,51.17 361.42,53.28 361.95,44.82 362.48,37.86 363.01,41.19 363.54,45.72 364.07,44.51 364.61,43.61 365.14,44.82 365.67,45.72 366.20,46.33 366.73,44.51 367.26,49.35 367.79,46.33 368.32,51.77 368.86,53.89 369.39,49.66 369.92,42.70 370.45,34.84 370.98,28.79 371.51,31.82 372.04,34.54 372.58,38.17 373.11,49.35 373.64,46.93 374.17,48.75 374.70,50.86 375.23,58.73 375.76,78.98 376.29,44.82 376.83,31.21 377.36,30.61 377.89,45.12 378.42,48.75 378.95,53.28 379.48,50.26 380.01,50.26 380.54,52.38 381.08,54.19 381.61,59.33 382.14,60.24 382.67,60.54 383.20,54.80 383.73,54.80 384.26,52.38 384.79,46.63 385.33,44.21 385.86,47.54 386.39,46.63 386.92,44.51 387.45,52.38 387.98,45.72 388.51,39.68 389.04,38.77 389.58,39.68 390.11,52.38 390.64,54.19 391.17,44.82 391.70,42.10 392.23,43.31 392.76,46.93 393.30,53.59 393.83,56.31 394.36,70.22 394.89,79.59 395.42,94.10 395.95,98.64 396.48,81.10 397.01,65.38 397.55,59.03 398.08,54.49 398.61,50.26 399.14,47.24 399.67,42.40 400.20,45.72 400.73,55.40 401.26,55.70 401.80,52.68 402.33,59.03 402.86,61.14 403.39,91.99 403.92,136.43 404.45,57.21 404.98,45.72 405.51,41.79 406.05,45.72 406.58,53.89 407.11,57.21 407.64,53.28 408.17,53.59 408.70,55.70 409.23,57.21 409.76,52.07 410.30,47.24 410.83,50.56 411.36,62.05 411.89,54.80 412.42,48.45 412.95,45.12 413.48,44.21 414.01,43.61 414.55,44.21 415.08,44.82 415.61,56.91 416.14,61.14 416.67,48.45 417.20,43.00 417.73,43.91 418.27,53.59 418.80,51.77 419.33,50.86 419.86,49.66 420.39,58.12 420.92,65.08 421.45,65.68 421.98,61.75 422.52,64.77 423.05,70.22 423.58,69.31 424.11,68.70 424.64,69.01 425.17,70.52 425.70,68.70 426.23,69.31 426.77,70.82 427.30,76.57 427.83,75.36 428.36,74.45 428.89,75.05 429.42,79.59 429.95,72.63 430.48,72.94 431.02,68.10 431.55,69.01 432.08,69.31 432.61,63.26 433.14,64.17 433.67,64.77 434.20,66.59 434.73,66.59 435.27,62.66 435.80,60.24 436.33,59.33 436.86,54.80 437.39,44.21 437.92,51.77 438.45,57.52 438.98,59.33 439.52,60.24 440.05,61.14 440.58,56.31 441.11,62.96 441.64,69.61 442.17,72.03 442.70,71.43 443.24,66.59 "
       style="fill:none;stroke:#000000;stroke-width:0.63999999;stroke-linecap:butt;stroke-linejoin:round;stroke-miterlimit:10;stroke-opacity:0.9"
       clip-path="url(#cpMzguMjR8NDYyLjUyfDE2Mi43N3w1LjQ4)"
       id="polyline31"
       transform="matrix(0.26458333,0,0,0.26458333,-0.35333761,243.39402)" />
    <polyline
       points="75.06,49.84 75.59,62.21 76.12,69.18 76.65,69.60 77.18,70.45 77.72,76.89 78.25,76.36 78.78,69.79 79.31,68.61 79.84,69.31 80.37,75.24 80.90,76.70 81.43,73.72 81.97,72.15 82.50,62.81 83.03,54.80 83.56,55.70 84.09,58.08 84.62,57.08 85.15,58.76 85.69,58.71 86.22,54.55 86.75,63.51 87.28,69.33 87.81,77.25 88.34,74.26 88.87,91.03 89.40,95.87 89.94,95.95 90.47,94.59 91.00,90.50 91.53,88.24 92.06,87.49 92.59,87.65 93.12,89.85 93.65,88.86 94.19,89.77 94.72,86.68 95.25,84.07 95.78,83.93 96.31,89.10 96.84,84.16 97.37,81.68 97.90,75.30 98.44,81.82 98.97,72.01 99.50,71.92 100.03,75.96 100.56,77.72 101.09,78.65 101.62,77.33 102.15,87.51 102.69,95.56 103.22,99.43 103.75,102.25 104.28,99.19 104.81,96.21 105.34,93.65 105.87,99.00 106.40,94.82 106.94,89.70 107.47,84.71 108.00,87.33 108.53,85.24 109.06,89.86 109.59,92.69 110.12,89.83 110.66,86.91 111.19,85.50 111.72,84.31 112.25,92.17 112.78,91.51 113.31,90.69 113.84,84.53 114.37,82.76 114.91,85.62 115.44,86.85 115.97,83.00 116.50,76.20 117.03,79.16 117.56,79.36 118.09,77.28 118.62,78.84 119.16,82.70 119.69,75.95 120.22,76.95 120.75,78.85 121.28,77.83 121.81,78.33 122.34,78.04 122.87,77.36 123.41,69.66 123.94,72.24 124.47,76.50 125.00,77.05 125.53,77.03 126.06,80.49 126.59,80.93 127.12,73.02 127.66,70.63 128.19,72.33 128.72,78.18 129.25,85.48 129.78,87.56 130.31,80.91 130.84,69.48 131.38,72.00 131.91,68.96 132.44,62.81 132.97,68.94 133.50,71.66 134.03,79.20 134.56,80.65 135.09,76.48 135.63,75.81 136.16,75.00 136.69,77.08 137.22,73.07 137.75,78.88 138.28,84.46 138.81,82.49 139.34,72.81 139.88,67.25 140.41,67.80 140.94,67.02 141.47,65.26 142.00,69.78 142.53,70.73 143.06,71.15 143.59,73.76 144.13,76.98 144.66,74.74 145.19,70.35 145.72,68.69 146.25,66.61 146.78,63.26 147.31,58.60 147.84,54.71 148.38,56.47 148.91,59.19 149.44,60.61 149.97,57.03 150.50,62.79 151.03,62.22 151.56,61.69 152.09,63.17 152.63,62.18 153.16,61.72 153.69,60.07 154.22,57.50 154.75,55.37 155.28,51.93 155.81,49.67 156.35,55.18 156.88,61.75 157.41,70.36 157.94,61.23 158.47,62.82 159.00,66.05 159.53,66.54 160.06,68.81 160.60,68.48 161.13,66.36 161.66,64.95 162.19,68.53 162.72,73.65 163.25,68.89 163.78,63.33 164.31,65.67 164.85,56.00 165.38,48.48 165.91,48.79 166.44,49.32 166.97,50.96 167.50,57.89 168.03,62.66 168.56,63.48 169.10,61.11 169.63,50.88 170.16,46.75 170.69,45.91 171.22,62.39 171.75,59.03 172.28,63.37 172.81,66.02 173.35,66.82 173.88,59.72 174.41,57.06 174.94,68.02 175.47,88.73 176.00,76.48 176.53,81.97 177.06,69.87 177.60,67.42 178.13,74.14 178.66,61.83 179.19,59.72 179.72,73.82 180.25,70.64 180.78,90.65 181.32,92.74 181.85,76.40 182.38,80.23 182.91,88.33 183.44,91.80 183.97,75.59 184.50,62.18 185.03,64.93 185.57,73.61 186.10,82.23 186.63,76.47 187.16,66.69 187.69,68.65 188.22,86.83 188.75,81.78 189.28,61.10 189.82,73.56 190.35,71.08 190.88,67.79 191.41,79.01 191.94,80.51 192.47,69.43 193.00,64.95 193.53,71.29 194.07,71.75 194.60,67.78 195.13,61.52 195.66,73.63 196.19,68.49 196.72,67.30 197.25,63.68 197.78,65.14 198.32,92.24 198.85,96.44 199.38,89.29 199.91,61.70 200.44,49.09 200.97,43.32 201.50,35.26 202.03,29.69 202.57,37.76 203.10,34.56 203.63,43.05 204.16,55.83 204.69,59.34 205.22,60.00 205.75,63.67 206.29,59.90 206.82,50.41 207.35,62.70 207.88,97.72 208.41,115.01 208.94,123.57 209.47,132.80 210.00,125.30 210.54,119.33 211.07,107.54 211.60,113.03 212.13,112.89 212.66,115.35 213.19,117.59 213.72,103.93 214.25,95.38 214.79,86.41 215.32,85.85 215.85,84.44 216.38,85.72 216.91,82.26 217.44,44.19 217.97,28.46 218.50,31.69 219.04,35.61 219.57,38.34 220.10,39.90 220.63,42.69 221.16,41.76 221.69,34.93 222.22,40.64 222.75,39.55 223.29,34.92 223.82,41.17 224.35,46.42 224.88,43.27 225.41,40.11 225.94,43.94 226.47,44.11 227.01,38.42 227.54,37.72 228.07,36.56 228.60,35.90 229.13,36.09 229.66,38.07 230.19,39.73 230.72,42.61 231.26,44.53 231.79,51.11 232.32,50.32 232.85,51.58 233.38,48.02 233.91,43.94 234.44,49.31 234.97,52.08 235.51,45.68 236.04,31.00 236.57,34.08 237.10,45.79 237.63,37.33 238.16,40.37 238.69,47.92 239.22,45.22 239.76,38.73 240.29,22.69 240.82,20.36 241.35,22.28 241.88,19.62 242.41,18.95 242.94,24.48 243.47,31.90 244.01,40.26 244.54,33.35 245.07,28.66 245.60,28.34 246.13,28.42 246.66,35.60 247.19,39.97 247.72,39.18 248.26,33.74 248.79,29.59 249.32,30.14 249.85,36.70 250.38,43.58 250.91,40.01 251.44,39.13 251.98,42.67 252.51,40.62 253.04,46.26 253.57,50.87 254.10,49.67 254.63,50.03 255.16,47.43 255.69,53.58 256.23,52.50 256.76,43.58 257.29,37.00 257.82,36.93 258.35,36.58 258.88,39.01 259.41,42.67 259.94,51.29 260.48,45.25 261.01,45.36 261.54,37.84 262.07,42.64 262.60,38.03 263.13,24.74 263.66,16.77 264.19,22.82 264.73,29.47 265.26,30.45 265.79,35.45 266.32,31.57 266.85,27.18 267.38,32.76 267.91,43.81 268.44,43.21 268.98,41.01 269.51,42.12 270.04,38.30 270.57,33.42 271.10,37.91 271.63,43.64 272.16,44.46 272.69,42.54 273.23,46.03 273.76,43.35 274.29,39.64 274.82,40.38 275.35,36.51 275.88,43.22 276.41,46.62 276.95,47.34 277.48,50.12 278.01,45.41 278.54,46.23 279.07,41.83 279.60,39.87 280.13,44.74 280.66,40.84 281.20,43.13 281.73,51.96 282.26,54.53 282.79,52.97 283.32,53.33 283.85,51.38 284.38,52.76 284.91,52.73 285.45,55.86 285.98,53.45 286.51,49.40 287.04,44.84 287.57,41.34 288.10,37.78 288.63,48.60 289.16,53.80 289.70,57.39 290.23,53.27 290.76,50.30 291.29,43.32 291.82,47.50 292.35,67.28 292.88,72.02 293.41,64.00 293.95,56.87 294.48,47.27 295.01,42.67 295.54,39.07 296.07,47.38 296.60,45.55 297.13,50.44 297.67,50.54 298.20,49.64 298.73,51.43 299.26,50.93 299.79,50.44 300.32,53.44 300.85,57.66 301.38,57.13 301.92,57.99 302.45,53.75 302.98,48.93 303.51,46.62 304.04,48.52 304.57,48.85 305.10,51.42 305.63,55.98 306.17,64.40 306.70,64.76 307.23,62.46 307.76,58.18 308.29,59.00 308.82,53.55 309.35,58.28 309.88,52.97 310.42,52.45 310.95,55.99 311.48,49.17 312.01,52.59 312.54,47.04 313.07,43.32 313.60,50.54 314.13,52.53 314.67,53.24 315.20,61.67 315.73,64.55 316.26,70.64 316.79,67.03 317.32,70.26 317.85,72.30 318.38,74.78 318.92,78.66 319.45,72.81 319.98,73.46 320.51,74.53 321.04,72.66 321.57,68.75 322.10,63.59 322.64,63.21 323.17,57.96 323.70,54.10 324.23,51.82 324.76,48.86 325.29,46.41 325.82,43.35 326.35,43.16 326.89,47.03 327.42,47.56 327.95,41.87 328.48,32.22 329.01,33.87 329.54,35.64 330.07,30.03 330.60,27.84 331.14,30.58 331.67,33.50 332.20,38.42 332.73,42.68 333.26,39.63 333.79,36.24 334.32,33.21 334.85,31.83 335.39,31.83 335.92,33.82 336.45,36.90 336.98,37.46 337.51,33.71 338.04,31.25 338.57,24.12 339.10,21.16 339.64,27.19 340.17,30.24 340.70,25.52 341.23,22.81 341.76,24.08 342.29,27.69 342.82,24.76 343.35,20.51 343.89,22.55 344.42,24.69 344.95,26.43 345.48,25.99 346.01,29.85 346.54,30.03 347.07,29.82 347.61,28.09 348.14,31.55 348.67,32.44 349.20,33.80 349.73,30.61 350.26,27.89 350.79,31.75 351.32,41.90 351.86,48.51 352.39,42.33 352.92,40.57 353.45,40.30 353.98,42.93 354.51,36.60 355.04,37.52 355.57,43.06 356.11,37.73 356.64,35.63 357.17,39.62 357.70,44.48 358.23,42.87 358.76,44.11 359.29,39.53 359.82,37.40 360.36,44.52 360.89,57.68 361.42,62.13 361.95,60.19 362.48,54.88 363.01,55.83 363.54,52.33 364.07,47.44 364.61,49.80 365.14,50.01 365.67,46.16 366.20,45.79 366.73,42.52 367.26,42.67 367.79,61.82 368.32,74.29 368.86,82.90 369.39,72.97 369.92,51.55 370.45,30.17 370.98,28.04 371.51,40.00 372.04,76.77 372.58,90.45 373.11,94.89 373.64,68.61 374.17,71.63 374.70,63.42 375.23,57.22 375.76,59.25 376.29,44.64 376.83,50.87 377.36,52.16 377.89,64.41 378.42,50.22 378.95,53.20 379.48,62.80 380.01,90.96 380.54,65.72 381.08,44.56 381.61,75.93 382.14,55.90 382.67,35.20 383.20,36.54 383.73,46.00 384.26,43.27 384.79,49.08 385.33,61.96 385.86,73.94 386.39,40.93 386.92,40.96 387.45,39.55 387.98,35.37 388.51,39.99 389.04,41.40 389.58,42.77 390.11,32.41 390.64,34.42 391.17,47.53 391.70,37.83 392.23,36.92 392.76,60.75 393.30,80.63 393.83,80.17 394.36,82.31 394.89,92.32 395.42,99.01 395.95,90.21 396.48,79.96 397.01,55.43 397.55,46.23 398.08,42.51 398.61,42.27 399.14,36.88 399.67,32.01 400.20,30.87 400.73,27.23 401.26,23.93 401.80,32.99 402.33,39.63 402.86,47.23 403.39,38.01 403.92,37.47 404.45,38.77 404.98,36.04 405.51,33.57 406.05,48.18 406.58,54.44 407.11,64.85 407.64,64.44 408.17,66.98 408.70,62.76 409.23,76.55 409.76,86.41 410.30,62.76 410.83,66.77 411.36,81.39 411.89,80.46 412.42,64.31 412.95,47.61 413.48,61.38 414.01,48.42 414.55,52.01 415.08,56.74 415.61,59.77 416.14,44.23 416.67,41.10 417.20,58.48 417.73,45.63 418.27,48.31 418.80,51.21 419.33,52.70 419.86,55.27 420.39,60.84 420.92,64.67 421.45,65.01 421.98,61.96 422.52,66.64 423.05,68.46 423.58,77.17 424.11,81.33 424.64,79.37 425.17,86.81 425.70,82.60 426.23,88.43 426.77,81.71 427.30,74.41 427.83,89.03 428.36,86.52 428.89,79.19 429.42,80.35 429.95,80.27 430.48,78.29 431.02,66.43 431.55,70.17 432.08,70.13 432.61,64.89 433.14,69.31 433.67,74.56 434.20,76.70 434.73,75.53 435.27,86.28 435.80,78.35 436.33,77.05 436.86,70.39 437.39,65.83 437.92,63.00 438.45,71.65 438.98,74.85 439.52,74.69 440.05,75.16 440.58,75.40 441.11,74.37 441.64,75.23 442.17,72.17 442.70,69.39 443.24,64.24 "
       style="fill:none;stroke:#bebebe;stroke-width:0.85000002;stroke-linecap:butt;stroke-linejoin:round;stroke-miterlimit:10;stroke-opacity:0.9"
       clip-path="url(#cpMzguMjR8NDYyLjUyfDE2Mi43N3w1LjQ4)"
       id="polyline33"
       transform="matrix(0.26458333,0,0,0.26458333,-0.35333761,243.39402)" />
    <rect
       x="75.059998"
       y="10.05"
       width="3.72"
       height="151.17999"
       style="fill:#0000ff;fill-opacity:0.3;stroke:none;stroke-width:1.07000005;stroke-linecap:square;stroke-linejoin:miter;stroke-miterlimit:10"
       clip-path="url(#cpMzguMjR8NDYyLjUyfDE2Mi43N3w1LjQ4)"
       id="rect35"
       transform="matrix(0.26458333,0,0,0.29160994,-0.35333761,243.12241)" />
    <rect
       x="268.44"
       y="10.05"
       width="3.1900001"
       height="151.17999"
       style="fill:#0000ff;fill-opacity:0.3;stroke:none;stroke-width:1.07000005;stroke-linecap:square;stroke-linejoin:miter;stroke-miterlimit:10"
       clip-path="url(#cpMzguMjR8NDYyLjUyfDE2Mi43N3w1LjQ4)"
       id="rect37"
       transform="matrix(0.26458333,0,0,0.29160991,-0.35333761,243.12241)" />
    <rect
       x="398.07999"
       y="10.05"
       width="2.6600001"
       height="151.17999"
       style="fill:#0000ff;fill-opacity:0.3;stroke:none;stroke-width:1.07000005;stroke-linecap:square;stroke-linejoin:miter;stroke-miterlimit:10"
       clip-path="url(#cpMzguMjR8NDYyLjUyfDE2Mi43N3w1LjQ4)"
       id="rect39"
       transform="matrix(0.26458333,0,0,0.29160991,-0.35333761,243.12241)" />
    <rect
       x="38.240002"
       y="5.48"
       width="424.28"
       height="157.28999"
       style="fill:none;stroke:#333333;stroke-width:1.07000005;stroke-linecap:round;stroke-linejoin:round;stroke-miterlimit:10"
       clip-path="url(#cpMzguMjR8NDYyLjUyfDE2Mi43N3w1LjQ4)"
       id="rect41"
       transform="matrix(0.26458333,0,0,0.29082468,-0.35333761,243.25022)" />
    <g
       clip-path="url(#cpMC4wMHw0NjguMDB8MzI0LjAwfDAuMDA=)"
       id="g51"
       transform="matrix(0.26458333,0,0,0.26458333,-0.35333761,243.39402)">
      <text
         x="23.299999"
         y="164.45"
         style="font-size:8.80000019px;font-family:Arial;fill:#4d4d4d"
         textLength="10.01"
         lengthAdjust="spacingAndGlyphs"
         id="text49">26</text>
    </g>
    <g
       clip-path="url(#cpMC4wMHw0NjguMDB8MzI0LjAwfDAuMDA=)"
       id="g55"
       transform="matrix(0.26458333,0,0,0.26458333,-0.35333761,243.39402)">
      <text
         x="23.299999"
         y="134.21001"
         style="font-size:8.80000019px;font-family:Arial;fill:#4d4d4d"
         textLength="10.01"
         lengthAdjust="spacingAndGlyphs"
         id="text53">27</text>
    </g>
    <g
       clip-path="url(#cpMC4wMHw0NjguMDB8MzI0LjAwfDAuMDA=)"
       id="g59"
       transform="matrix(0.26458333,0,0,0.26458333,-0.35333761,243.39402)">
      <text
         x="23.299999"
         y="103.97"
         style="font-size:8.80000019px;font-family:Arial;fill:#4d4d4d"
         textLength="10.01"
         lengthAdjust="spacingAndGlyphs"
         id="text57">28</text>
    </g>
    <g
       clip-path="url(#cpMC4wMHw0NjguMDB8MzI0LjAwfDAuMDA=)"
       id="g63"
       transform="matrix(0.26458333,0,0,0.26458333,-0.35333761,243.39402)">
      <text
         x="23.299999"
         y="73.739998"
         style="font-size:8.80000019px;font-family:Arial;fill:#4d4d4d"
         textLength="10.01"
         lengthAdjust="spacingAndGlyphs"
         id="text61">29</text>
    </g>
    <g
       clip-path="url(#cpMC4wMHw0NjguMDB8MzI0LjAwfDAuMDA=)"
       id="g67"
       transform="matrix(0.26458333,0,0,0.26458333,-0.35333761,243.39402)">
      <text
         x="23.299999"
         y="43.5"
         style="font-size:8.80000019px;font-family:Arial;fill:#4d4d4d"
         textLength="10.01"
         lengthAdjust="spacingAndGlyphs"
         id="text65">30</text>
    </g>
    <g
       clip-path="url(#cpMC4wMHw0NjguMDB8MzI0LjAwfDAuMDA=)"
       id="g71"
       transform="matrix(0.26458333,0,0,0.26458333,-0.35333761,243.39402)">
      <text
         x="23.299999"
         y="13.26"
         style="font-size:8.80000019px;font-family:Arial;fill:#4d4d4d"
         textLength="10.01"
         lengthAdjust="spacingAndGlyphs"
         id="text69">31</text>
    </g>
    <polyline
       points="35.50,161.23 38.24,161.23 "
       style="fill:none;stroke:#333333;stroke-width:1.07000005;stroke-linecap:butt;stroke-linejoin:round;stroke-miterlimit:10"
       clip-path="url(#cpMC4wMHw0NjguMDB8MzI0LjAwfDAuMDA=)"
       id="polyline73"
       transform="matrix(0.26458333,0,0,0.26458333,-0.35333761,243.39402)" />
    <polyline
       points="35.50,130.99 38.24,130.99 "
       style="fill:none;stroke:#333333;stroke-width:1.07000005;stroke-linecap:butt;stroke-linejoin:round;stroke-miterlimit:10"
       clip-path="url(#cpMC4wMHw0NjguMDB8MzI0LjAwfDAuMDA=)"
       id="polyline75"
       transform="matrix(0.26458333,0,0,0.26458333,-0.35333761,243.39402)" />
    <polyline
       points="35.50,100.75 38.24,100.75 "
       style="fill:none;stroke:#333333;stroke-width:1.07000005;stroke-linecap:butt;stroke-linejoin:round;stroke-miterlimit:10"
       clip-path="url(#cpMC4wMHw0NjguMDB8MzI0LjAwfDAuMDA=)"
       id="polyline77"
       transform="matrix(0.26458333,0,0,0.26458333,-0.35333761,243.39402)" />
    <polyline
       points="35.50,70.52 38.24,70.52 "
       style="fill:none;stroke:#333333;stroke-width:1.07000005;stroke-linecap:butt;stroke-linejoin:round;stroke-miterlimit:10"
       clip-path="url(#cpMC4wMHw0NjguMDB8MzI0LjAwfDAuMDA=)"
       id="polyline79"
       transform="matrix(0.26458333,0,0,0.26458333,-0.35333761,243.39402)" />
    <polyline
       points="35.50,40.28 38.24,40.28 "
       style="fill:none;stroke:#333333;stroke-width:1.07000005;stroke-linecap:butt;stroke-linejoin:round;stroke-miterlimit:10"
       clip-path="url(#cpMC4wMHw0NjguMDB8MzI0LjAwfDAuMDA=)"
       id="polyline81"
       transform="matrix(0.26458333,0,0,0.26458333,-0.35333761,243.39402)" />
    <polyline
       points="35.50,10.05 38.24,10.05 "
       style="fill:none;stroke:#333333;stroke-width:1.07000005;stroke-linecap:butt;stroke-linejoin:round;stroke-miterlimit:10"
       clip-path="url(#cpMC4wMHw0NjguMDB8MzI0LjAwfDAuMDA=)"
       id="polyline83"
       transform="matrix(0.26458333,0,0,0.26458333,-0.35333761,243.39402)" />
    <g
       clip-path="url(#cpMC4wMHw0NjguMDB8MzI0LjAwfDAuMDA=)"
       id="g135"
       transform="matrix(0.26458333,0,0,0.26458333,-0.35333761,243.39402)">
      <text
         transform="rotate(-90,71.68,56.37)"
         style="font-size:11px;font-family:Arial"
         textLength="62.970001"
         lengthAdjust="spacingAndGlyphs"
         id="text133">Temperature</text>
    </g>
    <g
       clip-path="url(#cpMC4wMHw0NjguMDB8MzI0LjAwfDAuMDA=)"
       id="g143"
       transform="matrix(0.26458333,0,0,0.26458333,-0.35333761,243.39402)">
      <text
         transform="rotate(-90,38.86,23.55)"
         style="font-size:13.75px;font-family:'PT Serif'"
         textLength="4.8000002"
         lengthAdjust="spacingAndGlyphs"
         id="text141">(</text>
    </g>
    <g
       clip-path="url(#cpMC4wMHw0NjguMDB8MzI0LjAwfDAuMDA=)"
       id="g147"
       transform="matrix(0.26458333,0,0,0.26458333,-0.35333761,243.39402)">
      <text
         transform="rotate(-90,36.46,21.15)"
         style="font-size:11px;font-family:'PT Serif'"
         textLength="4.6599998"
         lengthAdjust="spacingAndGlyphs"
         id="text145">°</text>
    </g>
    <g
       clip-path="url(#cpMC4wMHw0NjguMDB8MzI0LjAwfDAuMDA=)"
       id="g151"
       transform="matrix(0.26458333,0,0,0.26458333,-0.35333761,243.39402)">
      <text
         transform="rotate(-90,34.125,18.815)"
         style="font-size:11px;font-family:Arial"
         textLength="7.9400001"
         lengthAdjust="spacingAndGlyphs"
         id="text149">C</text>
    </g>
    <g
       clip-path="url(#cpMC4wMHw0NjguMDB8MzI0LjAwfDAuMDA=)"
       id="g155"
       transform="matrix(0.26458333,0,0,0.26458333,-0.35333761,243.39402)">
      <text
         transform="rotate(-90,30.155,14.845)"
         style="font-size:13.75px;font-family:'PT Serif'"
         textLength="4.8000002"
         lengthAdjust="spacingAndGlyphs"
         id="text153">)</text>
    </g>
    <line
       x1="38.240002"
       y1="218.92"
       x2="462.51999"
       y2="218.92"
       style="fill:none;stroke:#ff0000;stroke-width:1.07000005;stroke-linecap:butt;stroke-linejoin:round;stroke-miterlimit:10;stroke-dasharray:5.69, 5.69"
       clip-path="url(#cpMzguMjR8NDYyLjUyfDI5Mi4zN3wxOTkuODg=)"
       id="line177"
       transform="matrix(0.26458333,0,0,0.26458333,-0.35333761,213.23153)" />
    <line
       x1="38.240002"
       y1="255.19"
       x2="462.51999"
       y2="255.19"
       style="fill:none;stroke:#ffa500;stroke-width:1.07000005;stroke-linecap:butt;stroke-linejoin:round;stroke-miterlimit:10;stroke-dasharray:5.69, 5.69"
       clip-path="url(#cpMzguMjR8NDYyLjUyfDI5Mi4zN3wxOTkuODg=)"
       id="line179"
       transform="matrix(0.26458333,0,0,0.26458333,-0.35333761,213.23153)" />
    <polyline
       points="57.53,291.46 58.06,291.46 58.59,291.46 59.12,291.46 59.65,291.46 60.18,291.46 60.72,291.46 61.25,291.46 61.78,291.46 62.31,291.46 62.84,291.46 63.37,291.46 63.90,291.46 64.43,291.46 64.97,291.46 65.50,291.46 66.03,291.46 66.56,291.46 67.09,291.46 67.62,291.46 68.15,291.46 68.68,291.46 69.22,291.46 69.75,291.46 70.28,291.46 70.81,291.46 71.34,291.46 71.87,291.46 72.40,291.46 72.93,291.46 73.47,291.46 74.00,291.46 74.53,291.46 75.06,291.46 75.59,291.46 76.12,291.46 76.65,291.46 77.18,291.46 77.72,291.46 78.25,291.46 78.78,291.46 79.31,291.46 79.84,291.46 80.37,291.46 80.90,291.46 81.43,291.46 81.97,291.46 82.50,291.46 83.03,291.46 83.56,291.46 84.09,291.46 84.62,291.46 85.15,291.46 85.69,291.46 86.22,291.46 86.75,291.46 87.28,291.46 87.81,291.46 88.34,291.46 88.87,291.46 89.40,291.46 89.94,291.46 90.47,291.46 91.00,291.46 91.53,291.46 92.06,291.46 92.59,291.46 93.12,291.46 93.65,291.46 94.19,291.46 94.72,291.46 95.25,291.46 95.78,291.46 96.31,291.46 96.84,291.46 97.37,291.46 97.90,291.46 98.44,291.46 98.97,291.46 99.50,291.46 100.03,291.46 100.56,291.46 101.09,291.46 101.62,291.46 102.15,291.46 102.69,291.46 103.22,291.46 103.75,291.46 104.28,291.46 104.81,291.46 105.34,291.46 105.87,291.46 106.40,291.46 106.94,291.46 107.47,291.46 108.00,291.46 108.53,291.46 109.06,291.46 109.59,291.46 110.12,291.46 110.66,291.46 111.19,291.46 111.72,291.46 112.25,291.46 112.78,291.46 113.31,291.46 113.84,291.46 114.37,291.46 114.91,291.46 115.44,291.46 115.97,291.46 116.50,291.46 117.03,291.46 117.56,291.46 118.09,291.46 118.62,291.46 119.16,291.46 119.69,291.46 120.22,291.46 120.75,291.46 121.28,291.46 121.81,291.46 122.34,291.46 122.87,291.46 123.41,291.46 123.94,291.46 124.47,291.46 125.00,291.46 125.53,291.46 126.06,291.46 126.59,291.46 127.12,291.46 127.66,291.46 128.19,291.46 128.72,291.46 129.25,291.46 129.78,291.46 130.31,291.46 130.84,291.46 131.38,291.46 131.91,291.46 132.44,291.46 132.97,291.46 133.50,291.46 134.03,291.46 134.56,291.46 135.09,291.46 135.63,291.46 136.16,291.46 136.69,291.46 137.22,291.46 137.75,291.46 138.28,291.46 138.81,291.46 139.34,291.46 139.88,291.46 140.41,291.46 140.94,291.46 141.47,291.46 142.00,291.46 142.53,291.46 143.06,291.46 143.59,291.46 144.13,291.46 144.66,291.46 145.19,291.46 145.72,291.46 146.25,291.46 146.78,291.46 147.31,291.46 147.84,291.46 148.38,291.46 148.91,291.46 149.44,291.46 149.97,291.46 150.50,291.46 151.03,291.46 151.56,291.46 152.09,291.46 152.63,291.46 153.16,291.46 153.69,291.46 154.22,291.46 154.75,291.46 155.28,291.46 155.81,291.46 156.35,291.46 156.88,291.46 157.41,291.46 157.94,291.46 158.47,291.46 159.00,291.46 159.53,291.46 160.06,291.46 160.60,291.46 161.13,291.46 161.66,291.46 162.19,291.46 162.72,291.46 163.25,291.46 163.78,291.46 164.31,291.46 164.85,291.46 165.38,291.46 165.91,291.46 166.44,291.46 166.97,291.46 167.50,291.46 168.03,291.46 168.56,291.46 169.10,291.46 169.63,291.46 170.16,291.46 170.69,291.46 171.22,291.46 171.75,291.46 172.28,291.46 172.81,291.46 173.35,291.46 173.88,291.46 174.41,291.46 174.94,291.46 175.47,291.46 176.00,291.46 176.53,291.46 177.06,291.46 177.60,291.46 178.13,291.46 178.66,291.46 179.19,291.46 179.72,291.46 180.25,291.46 180.78,291.46 181.32,291.46 181.85,291.46 182.38,291.46 182.91,291.46 183.44,291.46 183.97,291.46 184.50,291.46 185.03,291.46 185.57,291.46 186.10,291.46 186.63,291.46 187.16,291.46 187.69,291.46 188.22,291.46 188.75,291.46 189.28,291.46 189.82,291.46 190.35,291.46 190.88,291.46 191.41,291.46 191.94,291.46 192.47,291.46 193.00,291.46 193.53,291.46 194.07,291.46 194.60,291.46 195.13,291.46 195.66,291.46 196.19,291.46 196.72,291.46 197.25,291.46 197.78,291.46 198.32,291.46 198.85,291.46 199.38,291.46 199.91,291.46 200.44,291.46 200.97,291.46 201.50,291.46 202.03,291.46 202.57,291.46 203.10,291.46 203.63,291.46 204.16,291.46 204.69,291.46 205.22,291.46 205.75,291.46 206.29,291.46 206.82,291.46 207.35,291.46 207.88,291.46 208.41,291.46 208.94,291.46 209.47,291.46 210.00,291.46 210.54,291.46 211.07,291.46 211.60,291.46 212.13,291.46 212.66,291.46 213.19,291.46 213.72,291.46 214.25,291.46 214.79,291.46 215.32,291.46 215.85,291.46 216.38,291.46 216.91,291.46 217.44,291.46 217.97,291.46 218.50,291.46 219.04,291.46 219.57,291.46 220.10,291.46 220.63,291.46 221.16,291.46 221.69,291.46 222.22,291.46 222.75,290.11 223.29,288.52 223.82,286.95 224.35,285.45 224.88,284.15 225.41,284.15 225.94,284.15 226.47,284.15 227.01,284.15 227.54,284.15 228.07,284.15 228.60,284.15 229.13,284.15 229.66,284.15 230.19,284.15 230.72,284.15 231.26,284.15 231.79,284.15 232.32,284.15 232.85,284.15 233.38,284.15 233.91,284.15 234.44,284.15 234.97,284.15 235.51,284.15 236.04,284.15 236.57,284.15 237.10,282.65 237.63,281.22 238.16,279.92 238.69,279.92 239.22,278.35 239.76,276.78 240.29,275.02 240.82,273.28 241.35,271.98 241.88,271.98 242.41,270.64 242.94,270.64 243.47,269.01 244.01,267.25 244.54,265.71 245.07,264.34 245.60,262.63 246.13,260.76 246.66,258.73 247.19,256.85 247.72,255.40 248.26,253.96 248.79,252.58 249.32,251.21 249.85,249.91 250.38,249.91 250.91,248.57 251.44,247.24 251.98,247.24 252.51,247.24 253.04,247.24 253.57,247.24 254.10,247.24 254.63,247.24 255.16,247.24 255.69,247.24 256.23,247.24 256.76,247.24 257.29,247.24 257.82,247.24 258.35,247.24 258.88,245.73 259.41,244.17 259.94,244.17 260.48,242.86 261.01,241.09 261.54,239.08 262.07,236.91 262.60,235.11 263.13,233.55 263.66,232.13 264.19,230.77 264.73,229.42 265.26,229.42 265.79,229.42 266.32,229.42 266.85,229.42 267.38,230.78 267.91,230.88 268.44,232.46 268.98,233.95 269.51,235.26 270.04,235.26 270.57,235.26 271.10,235.26 271.63,235.26 272.16,235.26 272.69,235.26 273.23,235.26 273.76,235.26 274.29,235.26 274.82,235.26 275.35,235.26 275.88,235.26 276.41,235.26 276.95,235.26 277.48,235.26 278.01,235.26 278.54,235.26 279.07,235.26 279.60,235.26 280.13,235.26 280.66,235.26 281.20,235.26 281.73,236.75 282.26,238.19 282.79,239.49 283.32,239.49 283.85,241.05 284.38,242.62 284.91,244.38 285.45,246.12 285.98,247.43 286.51,247.43 287.04,248.77 287.57,248.77 288.10,250.39 288.63,252.15 289.16,253.70 289.70,255.07 290.23,256.77 290.76,258.64 291.29,260.67 291.82,262.56 292.35,264.00 292.88,265.45 293.41,266.83 293.95,268.19 294.48,269.50 295.01,269.50 295.54,270.84 296.07,272.17 296.60,272.17 297.13,272.17 297.67,272.17 298.20,272.17 298.73,272.17 299.26,272.17 299.79,272.17 300.32,272.17 300.85,272.17 301.38,272.17 301.92,272.17 302.45,272.17 302.98,272.17 303.51,273.68 304.04,275.24 304.57,275.24 305.10,276.54 305.63,278.31 306.17,280.32 306.70,282.49 307.23,284.29 307.76,285.85 308.29,287.27 308.82,288.64 309.35,289.98 309.88,289.98 310.42,289.98 310.95,289.98 311.48,289.98 312.01,289.98 312.54,291.46 313.07,291.46 313.60,291.46 314.13,291.46 314.67,291.46 315.20,291.46 315.73,291.46 316.26,291.46 316.79,291.46 317.32,291.46 317.85,291.46 318.38,291.46 318.92,291.46 319.45,291.46 319.98,291.46 320.51,291.46 321.04,291.46 321.57,291.46 322.10,291.46 322.64,291.46 323.17,291.46 323.70,291.46 324.23,291.46 324.76,291.46 325.29,291.46 325.82,291.46 326.35,291.46 326.89,291.46 327.42,290.15 327.95,288.74 328.48,287.15 329.01,285.50 329.54,283.97 330.07,283.97 330.60,282.57 331.14,282.57 331.67,282.57 332.20,282.57 332.73,282.57 333.26,282.57 333.79,282.57 334.32,282.57 334.85,282.57 335.39,281.21 335.92,279.79 336.45,278.38 336.98,276.96 337.51,275.36 338.04,273.69 338.57,272.02 339.10,270.29 339.64,268.67 340.17,267.09 340.70,265.47 341.23,263.70 341.76,261.84 342.29,260.04 342.82,258.33 343.35,256.61 343.89,254.87 344.42,252.96 344.95,251.06 345.48,249.28 346.01,247.47 346.54,245.64 347.07,243.65 347.61,241.71 348.14,240.16 348.67,238.39 349.20,236.46 349.73,234.99 350.26,233.63 350.79,232.30 351.32,232.30 351.86,232.30 352.39,232.30 352.92,230.15 353.45,228.31 353.98,226.94 354.51,225.58 355.04,224.18 355.57,224.18 356.11,224.18 356.64,224.18 357.17,222.79 357.70,222.79 358.23,222.79 358.76,222.79 359.29,222.79 359.82,222.79 360.36,222.79 360.89,222.79 361.42,222.79 361.95,222.79 362.48,222.79 363.01,222.79 363.54,222.79 364.07,222.79 364.61,222.79 365.14,222.79 365.67,222.79 366.20,222.79 366.73,222.79 367.26,222.79 367.79,222.79 368.32,222.79 368.86,222.79 369.39,222.79 369.92,222.79 370.45,221.48 370.98,219.90 371.51,218.46 372.04,218.44 372.58,219.85 373.11,221.44 373.64,223.09 374.17,224.62 374.70,224.62 375.23,226.02 375.76,226.02 376.29,226.02 376.83,224.55 377.36,223.05 377.89,223.05 378.42,223.05 378.95,223.05 379.48,223.05 380.01,224.42 380.54,225.84 381.08,227.24 381.61,228.66 382.14,230.26 382.67,231.93 383.20,233.61 383.73,235.34 384.26,236.95 384.79,238.54 385.33,240.15 385.86,241.92 386.39,243.78 386.92,245.59 387.45,247.29 387.98,249.01 388.51,250.75 389.04,252.66 389.58,254.56 390.11,256.34 390.64,258.15 391.17,259.98 391.70,261.97 392.23,263.91 392.76,265.46 393.30,267.23 393.83,269.17 394.36,270.64 394.89,271.99 395.42,273.32 395.95,273.32 396.48,273.32 397.01,273.32 397.55,275.48 398.08,277.31 398.61,278.68 399.14,280.05 399.67,281.44 400.20,281.44 400.73,281.44 401.26,281.44 401.80,282.83 402.33,282.83 402.86,282.83 403.39,282.83 403.92,282.83 404.45,282.83 404.98,282.83 405.51,282.83 406.05,282.83 406.58,282.83 407.11,282.83 407.64,282.83 408.17,282.83 408.70,282.83 409.23,282.83 409.76,282.83 410.30,282.83 410.83,282.83 411.36,282.83 411.89,282.83 412.42,282.83 412.95,282.83 413.48,282.83 414.01,282.83 414.55,282.83 415.08,284.15 415.61,285.72 416.14,287.17 416.67,288.50 417.20,288.50 417.73,288.50 418.27,288.50 418.80,288.50 419.33,288.50 419.86,288.50 420.39,288.50 420.92,288.50 421.45,289.97 421.98,291.46 422.52,291.46 423.05,291.46 423.58,291.46 424.11,291.46 424.64,291.46 425.17,291.46 425.70,291.46 426.23,291.46 426.77,291.46 427.30,291.46 427.83,291.46 428.36,291.46 428.89,291.46 429.42,291.46 429.95,291.46 430.48,291.46 431.02,291.46 431.55,291.46 432.08,291.46 432.61,291.46 433.14,291.46 433.67,291.46 434.20,291.46 434.73,291.46 435.27,291.46 435.80,291.46 436.33,291.46 436.86,291.46 437.39,291.46 437.92,291.46 438.45,291.46 438.98,291.46 439.52,291.46 440.05,291.46 440.58,291.46 441.11,291.46 441.64,291.46 442.17,291.46 442.70,291.46 443.24,291.46 "
       style="fill:none;stroke:#000000;stroke-width:0.63999999;stroke-linecap:butt;stroke-linejoin:round;stroke-miterlimit:10;stroke-opacity:0.9"
       clip-path="url(#cpMzguMjR8NDYyLjUyfDI5Mi4zN3wxOTkuODg=)"
       id="polyline181"
       transform="matrix(0.26458333,0,0,0.26458333,-0.35333761,213.23153)" />
    <polyline
       points="119.16,291.46 119.69,291.46 120.22,291.46 120.75,291.46 121.28,291.46 121.81,291.46 122.34,291.46 122.87,291.46 123.41,291.46 123.94,291.46 124.47,291.46 125.00,291.46 125.53,291.46 126.06,291.46 126.59,291.46 127.12,291.46 127.66,291.46 128.19,291.46 128.72,291.46 129.25,291.46 129.78,291.46 130.31,291.46 130.84,291.46 131.38,291.46 131.91,291.46 132.44,291.46 132.97,291.46 133.50,291.46 134.03,291.46 134.56,291.46 135.09,291.46 135.63,291.46 136.16,291.46 136.69,291.46 137.22,291.46 137.75,291.46 138.28,291.46 138.81,291.46 139.34,291.46 139.88,291.46 140.41,291.46 140.94,291.46 141.47,291.46 142.00,291.46 142.53,291.46 143.06,291.46 143.59,291.46 144.13,291.46 144.66,291.46 145.19,291.46 145.72,291.46 146.25,291.46 146.78,291.46 147.31,291.46 147.84,291.46 148.38,291.46 148.91,291.46 149.44,291.46 149.97,291.46 150.50,291.46 151.03,291.46 151.56,291.46 152.09,291.46 152.63,291.46 153.16,291.46 153.69,291.46 154.22,291.46 154.75,291.46 155.28,291.46 155.81,291.46 156.35,291.46 156.88,291.46 157.41,291.46 157.94,291.46 158.47,291.46 159.00,291.46 159.53,291.46 160.06,291.46 160.60,291.46 161.13,291.46 161.66,291.46 162.19,291.46 162.72,291.46 163.25,291.46 163.78,291.46 164.31,291.46 164.85,291.46 165.38,291.46 165.91,291.46 166.44,291.46 166.97,291.46 167.50,291.46 168.03,291.46 168.56,291.46 169.10,291.46 169.63,291.46 170.16,291.46 170.69,291.46 171.22,291.46 171.75,291.46 172.28,291.46 172.81,291.46 173.35,291.46 173.88,291.46 174.41,291.46 174.94,291.46 175.47,291.46 176.00,291.46 176.53,291.46 177.06,291.46 177.60,291.46 178.13,291.46 178.66,291.46 179.19,291.46 179.72,291.46 180.25,291.46 180.78,291.46 181.32,291.46 181.85,291.46 182.38,291.46 182.91,291.46 183.44,291.46 183.97,291.46 184.50,291.46 185.03,291.46 185.57,291.46 186.10,291.46 186.63,291.46 187.16,291.46 187.69,291.46 188.22,291.46 188.75,291.46 189.28,291.46 189.82,291.46 190.35,291.46 190.88,291.46 191.41,291.46 191.94,291.46 192.47,291.46 193.00,291.46 193.53,291.46 194.07,291.46 194.60,291.46 195.13,291.46 195.66,291.46 196.19,291.46 196.72,291.46 197.25,291.46 197.78,291.46 198.32,291.46 198.85,291.46 199.38,291.46 199.91,291.46 200.44,291.46 200.97,291.46 201.50,290.03 202.03,288.36 202.57,287.03 203.10,285.57 203.63,285.57 204.16,285.57 204.69,285.57 205.22,285.57 205.75,285.57 206.29,285.57 206.82,285.57 207.35,285.57 207.88,285.57 208.41,285.57 208.94,285.57 209.47,285.57 210.00,285.57 210.54,285.57 211.07,285.57 211.60,285.57 212.13,285.57 212.66,285.57 213.19,285.57 213.72,285.57 214.25,285.57 214.79,285.57 215.32,285.57 215.85,285.57 216.38,285.57 216.91,285.57 217.44,285.57 217.97,283.85 218.50,282.26 219.04,280.84 219.57,279.54 220.10,279.54 220.63,279.54 221.16,279.54 221.69,278.09 222.22,278.09 222.75,278.09 223.29,276.65 223.82,276.65 224.35,276.65 224.88,276.65 225.41,276.65 225.94,276.65 226.47,276.65 227.01,275.35 227.54,274.02 228.07,272.64 228.60,271.24 229.13,269.84 229.66,268.53 230.19,268.53 230.72,268.53 231.26,268.53 231.79,268.53 232.32,268.53 232.85,268.53 233.38,268.53 233.91,268.53 234.44,268.53 234.97,268.53 235.51,268.53 236.04,266.91 236.57,265.43 237.10,265.43 237.63,264.08 238.16,264.08 238.69,264.08 239.22,264.08 239.76,264.08 240.29,262.11 240.82,260.04 241.35,258.05 241.88,255.95 242.41,253.82 242.94,251.92 243.47,250.35 244.01,250.35 244.54,248.83 245.07,247.12 245.60,245.39 246.13,245.09 246.66,245.35 247.19,246.67 247.72,248.13 248.26,246.64 248.79,244.96 249.32,243.31 249.85,241.94 250.38,241.94 250.91,241.94 251.44,241.94 251.98,241.94 252.51,241.94 253.04,241.94 253.57,241.94 254.10,241.94 254.63,241.94 255.16,241.94 255.69,241.94 256.23,241.94 256.76,241.94 257.29,240.58 257.82,239.22 258.35,237.84 258.88,237.84 259.41,237.84 259.94,237.84 260.48,237.84 261.01,237.84 261.54,236.52 262.07,236.52 262.60,236.93 263.13,236.63 263.66,235.82 264.19,235.16 264.73,233.48 265.26,231.84 265.79,230.41 266.32,230.27 266.85,228.49 267.38,226.95 267.91,228.40 268.44,228.40 268.98,228.40 269.51,228.40 270.04,227.09 270.57,225.58 271.10,224.26 271.63,225.56 272.16,226.89 272.69,228.27 273.23,229.67 273.76,231.07 274.29,232.38 274.82,232.38 275.35,231.00 275.88,231.00 276.41,231.00 276.95,231.00 277.48,231.00 278.01,231.00 278.54,231.00 279.07,231.00 279.60,231.00 280.13,231.00 280.66,232.62 281.20,234.10 281.73,234.10 282.26,235.44 282.79,235.44 283.32,235.44 283.85,235.44 284.38,235.44 284.91,237.42 285.45,239.49 285.98,241.48 286.51,243.58 287.04,245.71 287.57,247.61 288.10,247.86 288.63,247.86 289.16,249.37 289.70,251.09 290.23,252.82 290.76,254.54 291.29,255.96 291.82,255.96 292.35,255.96 292.88,257.46 293.41,259.14 293.95,260.79 294.48,262.16 295.01,262.16 295.54,262.16 296.07,262.16 296.60,262.16 297.13,262.16 297.67,262.16 298.20,262.16 298.73,262.16 299.26,262.16 299.79,262.16 300.32,262.16 300.85,262.16 301.38,262.16 301.92,263.52 302.45,264.88 302.98,266.26 303.51,266.26 304.04,266.26 304.57,266.26 305.10,266.26 305.63,266.26 306.17,267.58 306.70,267.58 307.23,268.89 307.76,270.78 308.29,273.00 308.82,274.97 309.35,276.65 309.88,278.29 310.42,279.71 310.95,281.30 311.48,283.08 312.01,284.62 312.54,284.62 313.07,284.62 313.60,284.62 314.13,284.62 314.67,285.93 315.20,287.44 315.73,288.76 316.26,288.76 316.79,288.76 317.32,288.76 317.85,288.76 318.38,288.76 318.92,288.76 319.45,288.76 319.98,290.14 320.51,290.14 321.04,290.14 321.57,290.14 322.10,290.14 322.64,290.14 323.17,290.14 323.70,290.14 324.23,290.14 324.76,290.14 325.29,290.14 325.82,290.14 326.35,290.14 326.89,290.14 327.42,290.14 327.95,290.14 328.48,288.57 329.01,287.08 329.54,285.67 330.07,284.01 330.60,282.26 331.14,280.62 331.67,279.12 332.20,277.82 332.73,279.14 333.26,279.14 333.79,277.75 334.32,276.23 334.85,274.65 335.39,273.07 335.92,271.58 336.45,270.21 336.98,268.87 337.51,267.38 338.04,265.77 338.57,263.86 339.10,261.82 339.64,260.04 340.17,258.40 340.70,256.55 341.23,254.58 341.76,252.67 342.29,250.91 342.82,249.03 343.35,246.96 343.89,244.98 344.42,243.10 344.95,241.29 345.48,239.46 346.01,237.79 346.54,236.14 347.07,234.47 347.61,232.73 348.14,231.14 348.67,229.58 349.20,228.09 349.73,226.45 350.26,224.71 350.79,223.12 351.32,223.12 351.86,223.12 352.39,223.12 352.92,223.12 353.45,223.12 353.98,223.12 354.51,221.75 355.04,220.41 355.57,220.41 356.11,219.08 356.64,217.67 357.17,217.67 357.70,217.67 358.23,217.67 358.76,217.67 359.29,217.67 359.82,216.33 360.36,216.33 360.89,216.33 361.42,216.33 361.95,216.33 362.48,216.33 363.01,216.33 363.54,216.33 364.07,216.33 364.61,216.33 365.14,216.33 365.67,216.33 366.20,216.33 366.73,216.33 367.26,216.33 367.79,216.33 368.32,216.33 368.86,216.33 369.39,216.33 369.92,216.33 370.45,214.67 370.98,212.93 371.51,212.93 372.04,212.93 372.58,212.93 373.11,214.50 373.64,215.99 374.17,217.40 374.70,219.06 375.23,220.81 375.76,222.45 376.29,223.95 376.83,225.25 377.36,225.25 377.89,225.25 378.42,226.64 378.95,228.16 379.48,229.74 380.01,231.32 380.54,232.82 381.08,234.18 381.61,235.52 382.14,237.02 382.67,237.19 383.20,237.72 383.73,239.76 384.26,241.54 384.79,243.18 385.33,245.03 385.86,247.00 386.39,248.91 386.92,250.67 387.45,252.55 387.98,253.19 388.51,255.17 389.04,257.05 389.58,258.87 390.11,259.14 390.64,259.34 391.17,260.99 391.70,261.34 392.23,261.72 392.76,263.31 393.30,264.86 393.83,266.36 394.36,267.99 394.89,269.74 395.42,271.32 395.95,271.32 396.48,271.32 397.01,271.32 397.55,271.32 398.08,271.32 398.61,271.32 399.14,271.33 399.67,271.10 400.20,269.48 400.73,269.03 401.26,268.53 401.80,266.99 402.33,266.99 402.86,266.99 403.39,265.68 403.92,264.34 404.45,265.68 404.98,264.28 405.51,262.78 406.05,262.78 406.58,262.78 407.11,262.78 407.64,262.78 408.17,262.78 408.70,262.78 409.23,262.78 409.76,262.78 410.30,262.78 410.83,262.78 411.36,262.78 411.89,262.78 412.42,262.78 412.95,262.78 413.48,262.78 414.01,262.78 414.55,262.78 415.08,264.43 415.61,266.17 416.14,266.17 416.67,266.17 417.20,266.17 417.73,266.17 418.27,266.17 418.80,266.17 419.33,266.17 419.86,266.17 420.39,266.17 420.92,266.17 421.45,266.17 421.98,266.17 422.52,266.17 423.05,266.17 423.58,266.17 424.11,266.17 424.64,266.17 425.17,266.17 425.70,266.17 426.23,266.17 426.77,266.17 427.30,267.61 427.83,268.98 428.36,268.98 428.89,268.98 429.42,268.98 429.95,268.98 430.48,268.98 431.02,268.98 431.55,268.98 432.08,268.98 432.61,270.41 433.14,270.41 433.67,270.41 434.20,270.41 434.73,271.97 435.27,273.44 435.80,273.44 436.33,274.76 436.86,276.12 437.39,276.12 437.92,276.12 438.45,276.12 438.98,276.12 439.52,276.12 440.05,276.12 440.58,276.12 441.11,276.12 441.64,276.12 442.17,276.12 442.70,276.12 443.24,276.12 "
       style="fill:none;stroke:#bebebe;stroke-width:0.85000002;stroke-linecap:butt;stroke-linejoin:round;stroke-miterlimit:10;stroke-opacity:0.9"
       clip-path="url(#cpMzguMjR8NDYyLjUyfDI5Mi4zN3wxOTkuODg=)"
       id="polyline183"
       transform="matrix(0.26458333,0,0,0.26458333,-0.35333761,213.23153)" />
    <g
       clip-path="url(#cpMC4wMHw0NjguMDB8MzI0LjAwfDAuMDA=)"
       id="g201"
       transform="matrix(0.26458333,0,0,0.26458333,117.12163,213.23153)">
      <text
         x="28.309999"
         y="294.67999"
         style="font-size:8.80000019px;font-family:Arial;fill:#4d4d4d"
         textLength="5.0100002"
         lengthAdjust="spacingAndGlyphs"
         id="text199">0</text>
    </g>
    <g
       clip-path="url(#cpMC4wMHw0NjguMDB8MzI0LjAwfDAuMDA=)"
       id="g205"
       transform="matrix(0.26458333,0,0,0.26458333,117.12163,213.23153)">
      <text
         x="28.309999"
         y="276.54999"
         style="font-size:8.80000019px;font-family:Arial;fill:#4d4d4d"
         textLength="5.0100002"
         lengthAdjust="spacingAndGlyphs"
         id="text203">2</text>
    </g>
    <g
       clip-path="url(#cpMC4wMHw0NjguMDB8MzI0LjAwfDAuMDA=)"
       id="g209"
       transform="matrix(0.26458333,0,0,0.26458333,117.12163,213.23153)">
      <text
         x="28.309999"
         y="258.41"
         style="font-size:8.80000019px;font-family:Arial;fill:#4d4d4d"
         textLength="5.0100002"
         lengthAdjust="spacingAndGlyphs"
         id="text207">4</text>
    </g>
    <g
       clip-path="url(#cpMC4wMHw0NjguMDB8MzI0LjAwfDAuMDA=)"
       id="g213"
       transform="matrix(0.26458333,0,0,0.26458333,117.12163,213.23153)">
      <text
         x="28.309999"
         y="240.28"
         style="font-size:8.80000019px;font-family:Arial;fill:#4d4d4d"
         textLength="5.0100002"
         lengthAdjust="spacingAndGlyphs"
         id="text211">6</text>
    </g>
    <g
       clip-path="url(#cpMC4wMHw0NjguMDB8MzI0LjAwfDAuMDA=)"
       id="g217"
       transform="matrix(0.26458333,0,0,0.26458333,117.12163,213.23153)">
      <text
         x="28.309999"
         y="222.14"
         style="font-size:8.80000019px;font-family:Arial;fill:#4d4d4d"
         textLength="5.0100002"
         lengthAdjust="spacingAndGlyphs"
         id="text215">8</text>
    </g>
    <g
       clip-path="url(#cpMC4wMHw0NjguMDB8MzI0LjAwfDAuMDA=)"
       id="g221"
       transform="matrix(0.26458333,0,0,0.26458333,117.12163,213.23153)">
      <text
         x="23.299999"
         y="204"
         style="font-size:8.80000019px;font-family:Arial;fill:#4d4d4d"
         textLength="10.01"
         lengthAdjust="spacingAndGlyphs"
         id="text219">10</text>
    </g>
    <polyline
       points="35.50,291.46 38.24,291.46 "
       style="fill:none;stroke:#333333;stroke-width:1.07000005;stroke-linecap:butt;stroke-linejoin:round;stroke-miterlimit:10"
       clip-path="url(#cpMC4wMHw0NjguMDB8MzI0LjAwfDAuMDA=)"
       id="polyline223"
       transform="matrix(0.26458333,0,0,0.26458333,112.8883,213.23153)" />
    <polyline
       points="35.50,273.33 38.24,273.33 "
       style="fill:none;stroke:#333333;stroke-width:1.07000005;stroke-linecap:butt;stroke-linejoin:round;stroke-miterlimit:10"
       clip-path="url(#cpMC4wMHw0NjguMDB8MzI0LjAwfDAuMDA=)"
       id="polyline225"
       transform="matrix(0.26458333,0,0,0.26458333,112.8883,213.23153)" />
    <polyline
       points="35.50,255.19 38.24,255.19 "
       style="fill:none;stroke:#333333;stroke-width:1.07000005;stroke-linecap:butt;stroke-linejoin:round;stroke-miterlimit:10"
       clip-path="url(#cpMC4wMHw0NjguMDB8MzI0LjAwfDAuMDA=)"
       id="polyline227"
       transform="matrix(0.26458333,0,0,0.26458333,112.8883,213.23153)" />
    <polyline
       points="35.50,237.06 38.24,237.06 "
       style="fill:none;stroke:#333333;stroke-width:1.07000005;stroke-linecap:butt;stroke-linejoin:round;stroke-miterlimit:10"
       clip-path="url(#cpMC4wMHw0NjguMDB8MzI0LjAwfDAuMDA=)"
       id="polyline229"
       transform="matrix(0.26458333,0,0,0.26458333,112.8883,213.23153)" />
    <polyline
       points="35.50,218.92 38.24,218.92 "
       style="fill:none;stroke:#333333;stroke-width:1.07000005;stroke-linecap:butt;stroke-linejoin:round;stroke-miterlimit:10"
       clip-path="url(#cpMC4wMHw0NjguMDB8MzI0LjAwfDAuMDA=)"
       id="polyline231"
       transform="matrix(0.26458333,0,0,0.26458333,112.8883,213.23153)" />
    <polyline
       points="35.50,200.79 38.24,200.79 "
       style="fill:none;stroke:#333333;stroke-width:1.07000005;stroke-linecap:butt;stroke-linejoin:round;stroke-miterlimit:10"
       clip-path="url(#cpMC4wMHw0NjguMDB8MzI0LjAwfDAuMDA=)"
       id="polyline233"
       transform="matrix(0.26458333,0,0,0.26458333,112.8883,213.23153)" />
    <polyline
       points="83.03,295.11 83.03,292.37 "
       style="fill:none;stroke:#333333;stroke-width:1.07000005;stroke-linecap:butt;stroke-linejoin:round;stroke-miterlimit:10"
       clip-path="url(#cpMC4wMHw0NjguMDB8MzI0LjAwfDAuMDA=)"
       id="polyline235"
       transform="matrix(0.26458333,0,0,0.26458333,-0.35333761,213.23153)" />
    <polyline
       points="131.38,295.11 131.38,292.37 "
       style="fill:none;stroke:#333333;stroke-width:1.07000005;stroke-linecap:butt;stroke-linejoin:round;stroke-miterlimit:10"
       clip-path="url(#cpMC4wMHw0NjguMDB8MzI0LjAwfDAuMDA=)"
       id="polyline237"
       transform="matrix(0.26458333,0,0,0.26458333,-0.35333761,213.23153)" />
    <polyline
       points="179.19,295.11 179.19,292.37 "
       style="fill:none;stroke:#333333;stroke-width:1.07000005;stroke-linecap:butt;stroke-linejoin:round;stroke-miterlimit:10"
       clip-path="url(#cpMC4wMHw0NjguMDB8MzI0LjAwfDAuMDA=)"
       id="polyline239"
       transform="matrix(0.26458333,0,0,0.26458333,-0.35333761,213.23153)" />
    <polyline
       points="228.07,295.11 228.07,292.37 "
       style="fill:none;stroke:#333333;stroke-width:1.07000005;stroke-linecap:butt;stroke-linejoin:round;stroke-miterlimit:10"
       clip-path="url(#cpMC4wMHw0NjguMDB8MzI0LjAwfDAuMDA=)"
       id="polyline241"
       transform="matrix(0.26458333,0,0,0.26458333,-0.35333761,213.23153)" />
    <polyline
       points="276.95,295.11 276.95,292.37 "
       style="fill:none;stroke:#333333;stroke-width:1.07000005;stroke-linecap:butt;stroke-linejoin:round;stroke-miterlimit:10"
       clip-path="url(#cpMC4wMHw0NjguMDB8MzI0LjAwfDAuMDA=)"
       id="polyline243"
       transform="matrix(0.26458333,0,0,0.26458333,-0.35333761,213.23153)" />
    <polyline
       points="325.29,295.11 325.29,292.37 "
       style="fill:none;stroke:#333333;stroke-width:1.07000005;stroke-linecap:butt;stroke-linejoin:round;stroke-miterlimit:10"
       clip-path="url(#cpMC4wMHw0NjguMDB8MzI0LjAwfDAuMDA=)"
       id="polyline245"
       transform="matrix(0.26458333,0,0,0.26458333,-0.35333761,213.23153)" />
    <polyline
       points="373.64,295.11 373.64,292.37 "
       style="fill:none;stroke:#333333;stroke-width:1.07000005;stroke-linecap:butt;stroke-linejoin:round;stroke-miterlimit:10"
       clip-path="url(#cpMC4wMHw0NjguMDB8MzI0LjAwfDAuMDA=)"
       id="polyline247"
       transform="matrix(0.26458333,0,0,0.26458333,-0.35333761,213.23153)" />
    <polyline
       points="422.52,295.11 422.52,292.37 "
       style="fill:none;stroke:#333333;stroke-width:1.07000005;stroke-linecap:butt;stroke-linejoin:round;stroke-miterlimit:10"
       clip-path="url(#cpMC4wMHw0NjguMDB8MzI0LjAwfDAuMDA=)"
       id="polyline249"
       transform="matrix(0.26458333,0,0,0.26458333,-0.35333761,213.23153)" />
    <g
       clip-path="url(#cpMC4wMHw0NjguMDB8MzI0LjAwfDAuMDA=)"
       id="g253"
       transform="matrix(0.26458333,0,0,0.26458333,-0.35333761,213.23153)">
      <text
         x="66.760002"
         y="303.73999"
         style="font-size:8.80000019px;font-family:Arial;fill:#4d4d4d"
         textLength="32.529999"
         lengthAdjust="spacingAndGlyphs"
         id="text251">09/2014</text>
    </g>
    <g
       clip-path="url(#cpMC4wMHw0NjguMDB8MzI0LjAwfDAuMDA=)"
       id="g257"
       transform="matrix(0.26458333,0,0,0.26458333,-0.35333761,213.23153)">
      <text
         x="115.11"
         y="303.73999"
         style="font-size:8.80000019px;font-family:Arial;fill:#4d4d4d"
         textLength="32.529999"
         lengthAdjust="spacingAndGlyphs"
         id="text255">12/2014</text>
    </g>
    <g
       clip-path="url(#cpMC4wMHw0NjguMDB8MzI0LjAwfDAuMDA=)"
       id="g261"
       transform="matrix(0.26458333,0,0,0.26458333,-0.35333761,213.23153)">
      <text
         x="162.92"
         y="303.73999"
         style="font-size:8.80000019px;font-family:Arial;fill:#4d4d4d"
         textLength="32.529999"
         lengthAdjust="spacingAndGlyphs"
         id="text259">03/2015</text>
    </g>
    <g
       clip-path="url(#cpMC4wMHw0NjguMDB8MzI0LjAwfDAuMDA=)"
       id="g265"
       transform="matrix(0.26458333,0,0,0.26458333,-0.35333761,213.23153)">
      <text
         x="211.8"
         y="303.73999"
         style="font-size:8.80000019px;font-family:Arial;fill:#4d4d4d"
         textLength="32.529999"
         lengthAdjust="spacingAndGlyphs"
         id="text263">06/2015</text>
    </g>
    <g
       clip-path="url(#cpMC4wMHw0NjguMDB8MzI0LjAwfDAuMDA=)"
       id="g269"
       transform="matrix(0.26458333,0,0,0.26458333,-0.35333761,213.23153)">
      <text
         x="260.67999"
         y="303.73999"
         style="font-size:8.80000019px;font-family:Arial;fill:#4d4d4d"
         textLength="32.529999"
         lengthAdjust="spacingAndGlyphs"
         id="text267">09/2015</text>
    </g>
    <g
       clip-path="url(#cpMC4wMHw0NjguMDB8MzI0LjAwfDAuMDA=)"
       id="g273"
       transform="matrix(0.26458333,0,0,0.26458333,-0.35333761,213.23153)">
      <text
         x="309.03"
         y="303.73999"
         style="font-size:8.80000019px;font-family:Arial;fill:#4d4d4d"
         textLength="32.529999"
         lengthAdjust="spacingAndGlyphs"
         id="text271">12/2015</text>
    </g>
    <g
       clip-path="url(#cpMC4wMHw0NjguMDB8MzI0LjAwfDAuMDA=)"
       id="g277"
       transform="matrix(0.26458333,0,0,0.26458333,-0.35333761,213.23153)">
      <text
         x="357.37"
         y="303.73999"
         style="font-size:8.80000019px;font-family:Arial;fill:#4d4d4d"
         textLength="32.529999"
         lengthAdjust="spacingAndGlyphs"
         id="text275">03/2016</text>
    </g>
    <g
       clip-path="url(#cpMC4wMHw0NjguMDB8MzI0LjAwfDAuMDA=)"
       id="g281"
       transform="matrix(0.26458333,0,0,0.26458333,-0.35333761,213.23153)">
      <text
         x="406.25"
         y="303.73999"
         style="font-size:8.80000019px;font-family:Arial;fill:#4d4d4d"
         textLength="32.529999"
         lengthAdjust="spacingAndGlyphs"
         id="text279">06/2016</text>
    </g>
    <rect
       x="87.959999"
       y="224.78"
       width="70.269997"
       height="61.189999"
       style="fill:#ffffff;stroke:#000000;stroke-width:0.75;stroke-linecap:round;stroke-linejoin:round;stroke-miterlimit:10"
       clip-path="url(#cpMC4wMHw0NjguMDB8MzI0LjAwfDAuMDA=)"
       id="rect319"
       transform="matrix(0.26470777,0,0,0.2416651,-0.36865561,219.78982)" />
    <g
       clip-path="url(#cpMC4wMHw0NjguMDB8MzI0LjAwfDAuMDA=)"
       id="g325"
       transform="matrix(0.26458333,0,0,0.26458333,-0.35333761,214.81902)">
      <text
         x="93.440002"
         y="239.28999"
         style="font-size:11px;font-family:Arial"
         textLength="59.310001"
         lengthAdjust="spacingAndGlyphs"
         id="text323">Temperature</text>
    </g>
    <rect
       x="93.440002"
       y="245.92999"
       width="17.280001"
       height="17.280001"
       style="fill:#ffffff;stroke:none;stroke-width:1.07000005;stroke-linecap:round;stroke-linejoin:round;stroke-miterlimit:10"
       clip-path="url(#cpMC4wMHw0NjguMDB8MzI0LjAwfDAuMDA=)"
       id="rect327"
       transform="matrix(0.26458333,0,0,0.26458333,-0.35333761,213.23153)" />
    <line
       x1="95.169998"
       y1="254.57001"
       x2="109"
       y2="254.57001"
       style="fill:none;stroke:#bebebe;stroke-width:0.85000002;stroke-linecap:butt;stroke-linejoin:round;stroke-miterlimit:10;stroke-opacity:0.9"
       clip-path="url(#cpMC4wMHw0NjguMDB8MzI0LjAwfDAuMDA=)"
       id="line331"
       transform="matrix(0.26458333,0,0,0.26458333,-0.35333761,214.81902)" />
    <rect
       x="93.440002"
       y="263.20999"
       width="17.280001"
       height="17.280001"
       style="fill:#ffffff;stroke:none;stroke-width:1.07000005;stroke-linecap:round;stroke-linejoin:round;stroke-miterlimit:10"
       clip-path="url(#cpMC4wMHw0NjguMDB8MzI0LjAwfDAuMDA=)"
       id="rect333"
       transform="matrix(0.26458333,0,0,0.26458333,-0.35333761,213.23153)" />
    <line
       x1="95.169998"
       y1="271.85001"
       x2="109"
       y2="271.85001"
       style="fill:none;stroke:#000000;stroke-width:0.63999999;stroke-linecap:butt;stroke-linejoin:round;stroke-miterlimit:10;stroke-opacity:0.9"
       clip-path="url(#cpMC4wMHw0NjguMDB8MzI0LjAwfDAuMDA=)"
       id="line335"
       transform="matrix(0.26458333,0,0,0.26458333,-0.35333761,213.23153)" />
    <line
       x1="95.169998"
       y1="271.85001"
       x2="109"
       y2="271.85001"
       style="fill:none;stroke:#000000;stroke-width:0.85000002;stroke-linecap:butt;stroke-linejoin:round;stroke-miterlimit:10;stroke-opacity:0.9"
       clip-path="url(#cpMC4wMHw0NjguMDB8MzI0LjAwfDAuMDA=)"
       id="line337"
       transform="matrix(0.26458333,0,0,0.26458333,-0.35333761,213.23153)" />
    <g
       clip-path="url(#cpMC4wMHw0NjguMDB8MzI0LjAwfDAuMDA=)"
       id="g341"
       transform="matrix(0.26458333,0,0,0.26458333,-0.35333761,214.81902)">
      <text
         x="116.2"
         y="257.79001"
         style="font-size:8.80000019px;font-family:Arial"
         textLength="24.01"
         lengthAdjust="spacingAndGlyphs"
         id="text339">In situ</text>
    </g>
    <g
       clip-path="url(#cpMC4wMHw0NjguMDB8MzI0LjAwfDAuMDA=)"
       id="g345"
       transform="matrix(0.26458333,0,0,0.26458333,-0.35333761,213.23153)">
      <text
         x="116.2"
         y="275.07001"
         style="font-size:8.80000019px;font-family:Arial"
         textLength="29.5"
         lengthAdjust="spacingAndGlyphs"
         id="text343">OISST</text>
    </g>
    <text
       xml:space="preserve"
       style="font-style:normal;font-variant:normal;font-weight:normal;font-stretch:normal;font-size:3.70416665px;line-height:6.61458349px;font-family:Arial;-inkscape-font-specification:Arial;text-align:center;letter-spacing:0px;word-spacing:0px;text-anchor:middle;fill:#000000;fill-opacity:1;stroke:none;stroke-width:0.26458332px;stroke-linecap:butt;stroke-linejoin:miter;stroke-opacity:1"
       x="-279.08466"
       y="129.36304"
       id="text7757"
       transform="rotate(-90)"><tspan
         sodipodi:role="line"
         id="tspan7755"
         x="-279.08466"
         y="129.36304"
         style="font-size:2.99861097px;stroke-width:0.26458332px">DHW (ºC-weeks)</tspan></text>
  </g>
</svg>
