<?xml version="1.0" encoding="UTF-8" standalone="no"?>
<svg
   xmlns:dc="http://purl.org/dc/elements/1.1/"
   xmlns:cc="http://creativecommons.org/ns#"
   xmlns:rdf="http://www.w3.org/1999/02/22-rdf-syntax-ns#"
   xmlns:svg="http://www.w3.org/2000/svg"
   xmlns="http://www.w3.org/2000/svg"
   xmlns:sodipodi="http://sodipodi.sourceforge.net/DTD/sodipodi-0.dtd"
   xmlns:inkscape="http://www.inkscape.org/namespaces/inkscape"
   class="svglite"
   width="576.00pt"
   height="324.00pt"
   viewBox="0 0 576.00 324.00"
   version="1.1"
   id="svg283"
   sodipodi:docname="Figure_S5_edited.svg"
   inkscape:version="0.92.5 (2060ec1f9f, 2020-04-08)">
  <metadata
     id="metadata287">
    <rdf:RDF>
      <cc:Work
         rdf:about="">
        <dc:format>image/svg+xml</dc:format>
        <dc:type
           rdf:resource="http://purl.org/dc/dcmitype/StillImage" />
        <dc:title></dc:title>
      </cc:Work>
    </rdf:RDF>
  </metadata>
  <sodipodi:namedview
     pagecolor="#ffffff"
     bordercolor="#666666"
     borderopacity="1"
     objecttolerance="10"
     gridtolerance="10"
     guidetolerance="10"
     inkscape:pageopacity="0"
     inkscape:pageshadow="2"
     inkscape:window-width="1524"
     inkscape:window-height="863"
     id="namedview285"
     showgrid="false"
     inkscape:zoom="0.73709606"
     inkscape:cx="499.66667"
     inkscape:cy="102.31733"
     inkscape:window-x="76"
     inkscape:window-y="180"
     inkscape:window-maximized="1"
     inkscape:current-layer="g147" />
  <defs
     id="defs4">
    <style
       type="text/css"
       id="style2"><![CDATA[
    .svglite line, .svglite polyline, .svglite polygon, .svglite path, .svglite rect, .svglite circle {
      fill: none;
      stroke: #000000;
      stroke-linecap: round;
      stroke-linejoin: round;
      stroke-miterlimit: 10.00;
    }
  ]]></style>
  </defs>
  <rect
     width="100%"
     height="100%"
     style="stroke: none; fill: #FFFFFF;"
     id="rect6" />
  <defs
     id="defs11">
    <clipPath
       id="cpMC4wMHw1NzYuMDB8MC4wMHwzMjQuMDA=">
      <rect
         x="0.00"
         y="0.00"
         width="576.00"
         height="324.00"
         id="rect8" />
    </clipPath>
  </defs>
  <g
     clip-path="url(#cpMC4wMHw1NzYuMDB8MC4wMHwzMjQuMDA=)"
     id="g13" />
  <defs
     id="defs18">
    <clipPath
       id="cpMC4wMHwyODguMDB8MC4wMHwzMjQuMDA=">
      <rect
         x="0.000000000000025"
         y="0.00"
         width="288.00"
         height="324.00"
         id="rect15" />
    </clipPath>
  </defs>
  <g
     clip-path="url(#cpMC4wMHwyODguMDB8MC4wMHwzMjQuMDA=)"
     id="g22">
    <rect
       x="0.000000000000032"
       y="0.00"
       width="288.00"
       height="324.00"
       style="stroke-width: 1.07; stroke: #FFFFFF; fill: #FFFFFF;"
       id="rect20" />
  </g>
  <g
     clip-path="url(#cpMC4wMHw1NzYuMDB8MC4wMHwzMjQuMDA=)"
     id="g24" />
  <defs
     id="defs29">
    <clipPath
       id="cpMzkuMDZ8MjgyLjUyfDIzLjU4fDI5MS4xNg==">
      <rect
         x="39.06"
         y="23.58"
         width="243.46"
         height="267.59"
         id="rect26" />
    </clipPath>
  </defs>
  <g
     clip-path="url(#cpMzkuMDZ8MjgyLjUyfDIzLjU4fDI5MS4xNg==)"
     id="g45">
    <rect
       x="39.06"
       y="23.58"
       width="243.46"
       height="267.59"
       style="stroke-width: 1.07; stroke: none; fill: #FFFFFF;"
       id="rect31" />
    <line
       x1="39.06"
       y1="97.85"
       x2="282.52"
       y2="97.85"
       style="stroke-width: 2.13; stroke: #FF0000; stroke-dasharray: 11.38,11.38; stroke-linecap: butt;"
       id="line33" />
    <line
       x1="39.06"
       y1="193.08"
       x2="282.52"
       y2="193.08"
       style="stroke-width: 2.13; stroke: #FFA500; stroke-dasharray: 11.38,11.38; stroke-linecap: butt;"
       id="line35" />
    <polyline
       points="39.41,288.31 39.76,288.31 40.10,288.31 40.45,288.31 40.80,288.31 41.14,288.31 41.49,288.31 41.84,288.31 42.19,288.31 42.53,288.31 42.88,288.31 43.23,288.31 43.58,288.31 43.92,288.31 44.27,288.31 44.62,288.31 44.97,288.31 45.31,288.31 45.66,288.31 46.01,288.31 46.35,288.31 46.70,288.31 47.05,288.31 47.40,288.31 47.74,288.31 48.09,288.31 48.44,288.31 48.79,288.31 49.13,288.31 49.48,288.31 49.83,288.31 50.17,288.31 50.52,288.31 50.87,288.31 51.22,288.31 51.56,288.31 51.91,288.31 52.26,288.31 52.61,288.31 52.95,288.31 53.30,288.31 53.65,288.31 54.00,288.31 54.34,288.31 54.69,288.31 55.04,288.31 55.38,284.68 55.73,280.96 56.08,280.96 56.43,280.96 56.77,280.96 57.12,280.96 57.47,280.96 57.82,280.96 58.16,280.96 58.51,280.96 58.86,280.96 59.20,280.96 59.55,280.96 59.90,280.96 60.25,280.96 60.59,280.96 60.94,275.94 61.29,271.53 61.64,271.53 61.98,271.53 62.33,271.53 62.68,271.53 63.02,271.53 63.37,271.53 63.72,271.53 64.07,271.53 64.41,271.53 64.76,271.53 65.11,271.53 65.46,271.53 65.80,271.53 66.15,271.53 66.50,271.53 66.85,271.53 67.19,271.53 67.54,271.53 67.89,271.53 68.23,271.53 68.58,271.53 68.93,271.53 69.28,271.53 69.62,271.53 69.97,271.53 70.32,271.53 70.67,271.53 71.01,271.53 71.36,271.53 71.71,271.53 72.05,271.53 72.40,271.53 72.75,271.53 73.10,271.53 73.44,271.53 73.79,271.53 74.14,271.53 74.49,271.53 74.83,271.53 75.18,271.53 75.53,271.53 75.88,271.53 76.22,271.53 76.57,271.53 76.92,271.53 77.26,271.53 77.61,271.53 77.96,271.53 78.31,271.53 78.65,271.53 79.00,271.53 79.35,271.53 79.70,271.53 80.04,271.53 80.39,271.53 80.74,271.53 81.08,271.53 81.43,271.53 81.78,271.53 82.13,271.53 82.47,271.53 82.82,271.53 83.17,271.53 83.52,271.53 83.86,271.53 84.21,271.53 84.56,275.16 84.91,278.88 85.25,278.88 85.60,278.88 85.95,278.88 86.29,278.88 86.64,278.88 86.99,278.88 87.34,278.88 87.68,278.88 88.03,278.88 88.38,278.88 88.73,278.88 89.07,278.88 89.42,278.88 89.77,278.88 90.11,283.90 90.46,288.31 90.81,288.31 91.16,288.31 91.50,288.31 91.85,288.31 92.20,288.31 92.55,288.31 92.89,288.31 93.24,288.31 93.59,288.31 93.93,288.31 94.28,288.31 94.63,288.31 94.98,288.31 95.32,288.31 95.67,288.31 96.02,288.31 96.37,288.31 96.71,288.31 97.06,288.31 97.41,288.31 97.76,288.31 98.10,288.31 98.45,288.31 98.80,288.31 99.14,288.31 99.49,288.31 99.84,288.31 100.19,288.31 100.53,288.31 100.88,288.31 101.23,288.31 101.58,288.31 101.92,288.31 102.27,288.31 102.62,288.31 102.96,288.31 103.31,288.31 103.66,288.31 104.01,288.31 104.35,288.31 104.70,288.31 105.05,283.93 105.40,280.00 105.74,276.38 106.09,276.38 106.44,276.38 106.79,276.38 107.13,276.38 107.48,276.38 107.83,276.38 108.17,276.38 108.52,276.38 108.87,276.38 109.22,276.38 109.56,276.38 109.91,276.38 110.26,276.38 110.61,276.38 110.95,276.38 111.30,276.38 111.65,276.38 111.99,276.38 112.34,276.38 112.69,276.38 113.04,276.38 113.38,276.38 113.73,276.38 114.08,276.38 114.43,276.38 114.77,276.38 115.12,276.38 115.47,276.38 115.82,276.38 116.16,276.38 116.51,276.38 116.86,276.38 117.20,272.93 117.55,269.44 117.90,269.44 118.25,269.44 118.59,269.44 118.94,269.44 119.29,269.44 119.64,269.44 119.98,269.44 120.33,269.44 120.68,269.44 121.02,269.44 121.37,269.44 121.72,269.44 122.07,269.44 122.41,269.44 122.76,269.44 123.11,269.44 123.46,269.44 123.80,269.44 124.15,269.44 124.50,269.44 124.84,269.44 125.19,269.44 125.54,269.44 125.89,269.44 126.23,269.44 126.58,269.44 126.93,269.44 127.28,269.44 127.62,269.44 127.97,269.44 128.32,269.44 128.67,269.44 129.01,269.44 129.36,269.44 129.71,269.44 130.05,269.44 130.40,269.44 130.75,269.44 131.10,269.44 131.44,269.44 131.79,269.44 132.14,269.44 132.49,269.44 132.83,269.44 133.18,269.44 133.53,269.44 133.87,269.44 134.22,273.81 134.57,277.74 134.92,281.36 135.26,281.36 135.61,281.36 135.96,281.36 136.31,281.36 136.65,281.36 137.00,281.36 137.35,281.36 137.70,281.36 138.04,281.36 138.39,281.36 138.74,281.36 139.08,281.36 139.43,281.36 139.78,281.36 140.13,281.36 140.47,281.36 140.82,281.36 141.17,281.36 141.52,281.36 141.86,281.36 142.21,281.36 142.56,281.36 142.90,281.36 143.25,281.36 143.60,281.36 143.95,281.36 144.29,281.36 144.64,281.36 144.99,281.36 145.34,281.36 145.68,281.36 146.03,281.36 146.38,284.82 146.73,288.31 147.07,288.31 147.42,288.31 147.77,288.31 148.11,288.31 148.46,288.31 148.81,288.31 149.16,288.31 149.50,288.31 149.85,288.31 150.20,288.31 150.55,288.31 150.89,288.31 151.24,288.31 151.59,288.31 151.93,288.31 152.28,288.31 152.63,288.31 152.98,288.31 153.32,288.31 153.67,288.31 154.02,288.31 154.37,288.31 154.71,288.31 155.06,288.31 155.41,288.31 155.75,288.31 156.10,288.31 156.45,288.31 156.80,288.31 157.14,288.31 157.49,288.31 157.84,288.31 158.19,288.31 158.53,288.31 158.88,288.31 159.23,288.31 159.58,288.31 159.92,288.31 160.27,288.31 160.62,288.31 160.96,284.48 161.31,280.48 161.66,280.48 162.01,280.48 162.35,280.48 162.70,280.48 163.05,280.48 163.40,276.55 163.74,272.59 164.09,272.59 164.44,272.59 164.78,272.59 165.13,272.59 165.48,272.59 165.83,272.59 166.17,272.59 166.52,272.59 166.87,272.59 167.22,272.59 167.56,272.59 167.91,272.59 168.26,272.59 168.61,272.59 168.95,272.59 169.30,272.59 169.65,272.59 169.99,272.59 170.34,272.59 170.69,272.59 171.04,272.59 171.38,272.59 171.73,272.59 172.08,272.59 172.43,272.59 172.77,272.59 173.12,272.59 173.47,272.59 173.81,272.59 174.16,272.59 174.51,268.21 174.86,264.49 175.20,260.18 175.55,255.47 175.90,250.42 176.25,245.91 176.59,241.81 176.94,241.81 177.29,236.83 177.64,232.66 177.98,232.66 178.33,232.66 178.68,232.66 179.02,232.66 179.37,232.66 179.72,232.66 180.07,232.66 180.41,229.07 180.76,225.65 181.11,225.65 181.46,225.65 181.80,225.65 182.15,225.65 182.50,225.65 182.84,225.65 183.19,225.65 183.54,221.75 183.89,221.75 184.23,221.75 184.58,221.75 184.93,221.75 185.28,221.75 185.62,221.75 185.97,221.75 186.32,221.75 186.66,221.75 187.01,218.33 187.36,213.21 187.71,208.40 188.05,204.13 188.40,204.13 188.75,204.13 189.10,200.37 189.44,196.10 189.79,188.97 190.14,186.35 190.49,185.50 190.83,180.59 191.18,175.47 191.53,170.42 191.87,166.38 192.22,158.03 192.57,152.49 192.92,146.81 193.26,143.22 193.61,143.22 193.96,143.22 194.31,143.22 194.65,143.22 195.00,143.22 195.35,143.22 195.69,143.22 196.04,143.22 196.39,143.22 196.74,143.22 197.08,143.22 197.43,143.22 197.78,143.22 198.13,143.22 198.47,143.22 198.82,143.22 199.17,143.22 199.52,143.22 199.86,143.22 200.21,143.22 200.56,143.22 200.90,143.22 201.25,143.22 201.60,143.22 201.95,139.73 202.29,136.01 202.64,130.92 202.99,124.44 203.34,118.88 203.68,119.11 204.03,118.81 204.38,123.11 204.72,127.83 205.07,129.08 205.42,130.00 205.77,134.10 206.11,129.36 206.46,130.65 206.81,134.82 207.16,134.82 207.50,134.82 207.85,134.82 208.20,134.82 208.54,134.82 208.89,134.82 209.24,134.82 209.59,138.41 209.93,141.83 210.28,141.83 210.63,141.83 210.98,141.83 211.32,141.83 211.67,138.41 212.02,138.41 212.37,138.41 212.71,142.30 213.06,142.30 213.41,142.30 213.75,142.30 214.10,142.30 214.45,142.30 214.80,142.30 215.14,142.30 215.49,137.59 215.84,132.30 216.19,131.14 216.53,132.78 216.88,137.59 217.23,141.86 217.57,141.86 217.92,141.86 218.27,145.62 218.62,149.89 218.96,157.02 219.31,163.46 219.66,168.31 220.01,173.23 220.35,178.35 220.70,183.40 221.05,187.43 221.40,195.78 221.74,205.26 222.09,214.90 222.44,218.49 222.78,218.49 223.13,218.49 223.48,218.49 223.83,218.49 224.17,218.49 224.52,218.49 224.87,214.87 225.22,211.14 225.56,207.55 225.91,207.55 226.26,202.91 226.60,199.25 226.95,199.25 227.30,195.73 227.65,192.00 227.99,192.00 228.34,192.00 228.69,192.00 229.04,192.00 229.38,192.00 229.73,188.58 230.08,184.96 230.43,180.65 230.77,176.72 231.12,176.59 231.47,176.52 231.81,181.60 232.16,188.09 232.51,188.05 232.86,185.33 233.20,182.44 233.55,176.67 233.90,171.35 234.25,168.66 234.59,167.40 234.94,162.69 235.29,162.62 235.63,166.32 235.98,166.32 236.33,166.32 236.68,166.32 237.02,161.37 237.37,156.14 237.72,156.14 238.07,156.14 238.41,156.14 238.76,156.14 239.11,156.14 239.45,156.14 239.80,156.14 240.15,156.14 240.50,156.14 240.84,159.56 241.19,159.56 241.54,159.56 241.89,159.56 242.23,159.56 242.58,159.56 242.93,154.07 243.28,148.68 243.62,144.51 243.97,137.79 244.32,131.04 244.66,129.37 245.01,129.34 245.36,129.64 245.71,129.34 246.05,124.25 246.40,118.21 246.75,112.28 247.10,108.11 247.44,108.11 247.79,108.11 248.14,108.11 248.48,108.11 248.83,108.11 249.18,108.11 249.53,108.11 249.87,108.11 250.22,108.11 250.57,108.11 250.92,108.11 251.26,108.11 251.61,108.11 251.96,108.11 252.31,108.11 252.65,108.11 253.00,108.11 253.35,108.11 253.69,108.11 254.04,111.73 254.39,115.46 254.74,119.05 255.08,119.05 255.43,123.69 255.78,127.35 256.13,127.35 256.47,130.87 256.82,134.60 257.17,134.60 257.51,134.60 257.86,134.60 258.21,134.60 258.56,134.60 258.90,138.02 259.25,141.64 259.60,145.94 259.95,149.87 260.29,153.50 260.64,157.29 260.99,157.29 261.34,157.29 261.68,162.89 262.03,169.74 262.38,176.67 262.72,182.43 263.07,187.76 263.42,194.24 263.77,199.09 264.11,203.80 264.46,208.61 264.81,208.61 265.16,208.61 265.50,208.61 265.85,208.61 266.20,213.56 266.54,218.78 266.89,218.78 267.24,218.78 267.59,218.78 267.93,218.78 268.28,218.78 268.63,218.78 268.98,218.78 269.32,218.78 269.67,218.78 270.02,218.78 270.36,218.78 270.71,218.78 271.06,218.78 271.41,218.78 271.75,218.78 272.10,224.28 272.45,229.67 272.80,233.84 273.14,240.56 273.49,247.31 273.84,253.69 274.19,259.01 274.53,263.28 274.88,267.08 275.23,272.16 275.57,278.20 275.92,284.14 276.27,288.31 276.62,288.31 276.96,288.31 277.31,288.31 277.66,288.31 278.01,288.31 278.35,288.31 278.70,288.31 279.05,288.31 279.39,288.31 279.74,288.31 280.09,288.31 280.44,288.31 280.78,288.31 281.13,288.31 281.48,288.31 281.83,288.31 282.17,288.31 282.52,288.31 "
       style="stroke-width: 2.13; stroke: #FF00FF; stroke-linecap: butt;"
       id="polyline37" />
    <polyline
       points="39.41,288.31 39.76,288.31 40.10,288.31 40.45,288.31 40.80,288.31 41.14,288.31 41.49,288.31 41.84,288.31 42.19,288.31 42.53,288.31 42.88,288.31 43.23,288.31 43.58,288.31 43.92,288.31 44.27,288.31 44.62,288.31 44.97,288.31 45.31,288.31 45.66,288.31 46.01,288.31 46.35,288.31 46.70,288.31 47.05,288.31 47.40,288.31 47.74,288.31 48.09,288.31 48.44,288.31 48.79,288.31 49.13,288.31 49.48,288.31 49.83,288.31 50.17,288.31 50.52,288.31 50.87,288.31 51.22,288.31 51.56,288.31 51.91,288.31 52.26,288.31 52.61,288.31 52.95,288.31 53.30,288.31 53.65,288.31 54.00,288.31 54.34,288.31 54.69,288.31 55.04,288.31 55.38,288.31 55.73,288.31 56.08,288.31 56.43,288.31 56.77,288.31 57.12,288.31 57.47,288.31 57.82,288.31 58.16,288.31 58.51,288.31 58.86,288.31 59.20,288.31 59.55,288.31 59.90,288.31 60.25,288.31 60.59,288.31 60.94,288.31 61.29,288.31 61.64,288.31 61.98,288.31 62.33,288.31 62.68,288.31 63.02,288.31 63.37,288.31 63.72,288.31 64.07,288.31 64.41,288.31 64.76,288.31 65.11,288.31 65.46,288.31 65.80,288.31 66.15,288.31 66.50,288.31 66.85,288.31 67.19,288.31 67.54,288.31 67.89,288.31 68.23,288.31 68.58,288.31 68.93,288.31 69.28,288.31 69.62,288.31 69.97,288.31 70.32,288.31 70.67,288.31 71.01,288.31 71.36,288.31 71.71,288.31 72.05,288.31 72.40,288.31 72.75,288.31 73.10,288.31 73.44,288.31 73.79,288.31 74.14,288.31 74.49,288.31 74.83,288.31 75.18,288.31 75.53,288.31 75.88,288.31 76.22,288.31 76.57,288.31 76.92,288.31 77.26,288.31 77.61,288.31 77.96,288.31 78.31,288.31 78.65,288.31 79.00,288.31 79.35,288.31 79.70,288.31 80.04,288.31 80.39,288.31 80.74,288.31 81.08,288.31 81.43,288.31 81.78,288.31 82.13,288.31 82.47,288.31 82.82,288.31 83.17,288.31 83.52,288.31 83.86,288.31 84.21,288.31 84.56,288.31 84.91,288.31 85.25,288.31 85.60,288.31 85.95,288.31 86.29,288.31 86.64,288.31 86.99,288.31 87.34,288.31 87.68,288.31 88.03,288.31 88.38,288.31 88.73,288.31 89.07,288.31 89.42,288.31 89.77,288.31 90.11,288.31 90.46,288.31 90.81,288.31 91.16,288.31 91.50,288.31 91.85,288.31 92.20,288.31 92.55,288.31 92.89,288.31 93.24,288.31 93.59,288.31 93.93,288.31 94.28,288.31 94.63,288.31 94.98,288.31 95.32,288.31 95.67,288.31 96.02,288.31 96.37,288.31 96.71,288.31 97.06,288.31 97.41,288.31 97.76,288.31 98.10,288.31 98.45,288.31 98.80,288.31 99.14,288.31 99.49,288.31 99.84,288.31 100.19,288.31 100.53,288.31 100.88,288.31 101.23,288.31 101.58,288.31 101.92,288.31 102.27,288.31 102.62,288.31 102.96,288.31 103.31,288.31 103.66,288.31 104.01,288.31 104.35,288.31 104.70,288.31 105.05,288.31 105.40,288.31 105.74,288.31 106.09,288.31 106.44,288.31 106.79,288.31 107.13,284.00 107.48,279.02 107.83,279.02 108.17,279.02 108.52,279.02 108.87,279.02 109.22,275.50 109.56,272.01 109.91,267.87 110.26,264.35 110.61,264.35 110.95,264.35 111.30,264.35 111.65,264.35 111.99,260.46 112.34,256.49 112.69,252.49 113.04,248.57 113.38,248.57 113.73,248.57 114.08,248.57 114.43,248.57 114.77,248.57 115.12,244.98 115.47,240.67 115.82,236.88 116.16,236.88 116.51,236.88 116.86,236.88 117.20,236.88 117.55,236.88 117.90,236.88 118.25,236.88 118.59,236.88 118.94,236.88 119.29,231.83 119.64,227.96 119.98,223.73 120.33,218.91 120.68,214.00 121.02,209.15 121.37,203.35 121.72,197.65 122.07,192.39 122.41,187.44 122.76,179.84 123.11,179.84 123.46,179.84 123.80,179.84 124.15,179.84 124.50,174.86 124.84,169.67 125.19,164.55 125.54,159.80 125.89,155.43 126.23,155.43 126.58,155.43 126.93,155.43 127.28,155.43 127.62,155.43 127.97,155.43 128.32,155.43 128.67,155.43 129.01,155.43 129.36,155.43 129.71,155.43 130.05,155.43 130.40,155.43 130.75,155.43 131.10,155.43 131.44,155.43 131.79,155.43 132.14,155.43 132.49,155.43 132.83,155.43 133.18,155.43 133.53,155.43 133.87,155.43 134.22,155.43 134.57,155.43 134.92,155.43 135.26,155.43 135.61,155.43 135.96,155.43 136.31,159.73 136.65,164.72 137.00,164.72 137.35,164.72 137.70,164.72 138.04,164.72 138.39,168.24 138.74,171.73 139.08,171.73 139.43,170.60 139.78,166.57 140.13,166.57 140.47,166.57 140.82,166.57 141.17,170.47 141.52,174.43 141.86,178.43 142.21,182.36 142.56,182.36 142.90,182.36 143.25,182.36 143.60,182.36 143.95,182.36 144.29,185.95 144.64,190.25 144.99,194.05 145.34,194.05 145.68,194.05 146.03,194.05 146.38,194.05 146.73,194.05 147.07,194.05 147.42,194.05 147.77,194.05 148.11,194.05 148.46,199.10 148.81,202.96 149.16,207.20 149.50,212.01 149.85,216.93 150.20,221.78 150.55,227.58 150.89,233.28 151.24,238.53 151.59,243.48 151.93,251.09 152.28,251.09 152.63,251.09 152.98,251.09 153.32,251.09 153.67,256.07 154.02,261.26 154.37,266.38 154.71,271.12 155.06,275.50 155.41,275.50 155.75,275.50 156.10,275.50 156.45,275.50 156.80,275.50 157.14,275.50 157.49,275.50 157.84,275.50 158.19,275.50 158.53,275.50 158.88,275.50 159.23,275.50 159.58,275.50 159.92,275.50 160.27,275.50 160.62,275.50 160.96,275.50 161.31,275.50 161.66,275.50 162.01,275.50 162.35,275.50 162.70,275.50 163.05,275.50 163.40,275.50 163.74,275.50 164.09,275.50 164.44,275.50 164.78,275.50 165.13,275.50 165.48,275.50 165.83,275.50 166.17,275.50 166.52,271.91 166.87,271.91 167.22,271.91 167.56,271.91 167.91,271.91 168.26,276.04 168.61,280.68 168.95,284.72 169.30,284.72 169.65,284.72 169.99,284.72 170.34,284.72 170.69,284.72 171.04,284.72 171.38,284.72 171.73,284.72 172.08,284.72 172.43,284.72 172.77,284.72 173.12,284.72 173.47,284.72 173.81,284.72 174.16,284.72 174.51,284.72 174.86,284.72 175.20,284.72 175.55,284.72 175.90,284.72 176.25,284.72 176.59,284.72 176.94,284.72 177.29,284.72 177.64,284.72 177.98,284.72 178.33,284.72 178.68,284.72 179.02,284.72 179.37,284.72 179.72,284.72 180.07,284.72 180.41,284.72 180.76,284.72 181.11,281.09 181.46,277.16 181.80,273.37 182.15,273.37 182.50,273.37 182.84,273.37 183.19,273.37 183.54,273.37 183.89,273.37 184.23,273.37 184.58,267.91 184.93,262.65 185.28,258.55 185.62,258.55 185.97,258.55 186.32,258.55 186.66,258.55 187.01,258.55 187.36,258.55 187.71,253.67 188.05,248.75 188.40,244.48 188.75,240.38 189.10,240.38 189.44,240.38 189.79,240.38 190.14,235.98 190.49,230.62 190.83,225.53 191.18,220.99 191.53,216.14 191.87,211.02 192.22,211.02 192.57,211.02 192.92,211.02 193.26,211.02 193.61,211.02 193.96,211.02 194.31,206.55 194.65,201.50 195.00,196.24 195.35,191.29 195.69,189.42 196.04,184.10 196.39,179.28 196.74,174.60 197.08,169.55 197.43,163.65 197.78,157.85 198.13,152.42 198.47,148.08 198.82,148.08 199.17,148.08 199.52,148.08 199.86,148.08 200.21,148.08 200.56,148.08 200.90,141.91 201.25,136.11 201.60,132.25 201.95,128.21 202.29,123.23 202.64,123.23 202.99,123.23 203.34,123.23 203.68,117.29 204.03,111.32 204.38,106.71 204.72,106.71 205.07,103.19 205.42,97.80 205.77,90.43 206.11,82.80 206.46,75.53 206.81,75.53 207.16,75.53 207.50,75.53 207.85,75.53 208.20,71.37 208.54,67.03 208.89,63.00 209.24,59.17 209.59,55.54 209.93,55.54 210.28,59.17 210.63,63.10 210.98,66.89 211.32,66.89 211.67,66.89 212.02,66.89 212.37,63.30 212.71,59.58 213.06,53.95 213.41,48.18 213.75,49.57 214.10,50.32 214.45,50.80 214.80,50.80 215.14,47.07 215.49,43.58 215.84,43.58 216.19,43.58 216.53,43.58 216.88,48.47 217.23,53.38 217.57,57.65 217.92,61.75 218.27,61.75 218.62,61.75 218.96,61.75 219.31,66.16 219.66,71.52 220.01,76.60 220.35,81.15 220.70,85.99 221.05,91.11 221.40,91.11 221.74,91.11 222.09,91.11 222.44,91.11 222.78,91.11 223.13,91.11 223.48,95.59 223.83,100.64 224.17,105.90 224.52,110.85 224.87,116.31 225.22,121.63 225.56,126.45 225.91,131.12 226.26,136.18 226.60,142.08 226.95,147.88 227.30,153.31 227.65,157.64 227.99,157.64 228.34,157.64 228.69,157.64 229.04,157.64 229.38,157.64 229.73,157.64 230.08,163.82 230.43,169.62 230.77,173.48 231.12,177.51 231.47,182.50 231.81,182.50 232.16,182.50 232.51,182.50 232.86,188.43 233.20,194.40 233.55,199.01 233.90,199.01 234.25,202.54 234.59,207.93 234.94,215.29 235.29,222.93 235.63,230.19 235.98,230.19 236.33,230.19 236.68,230.19 237.02,230.19 237.37,234.36 237.72,238.70 238.07,242.73 238.41,246.56 238.76,250.18 239.11,250.18 239.45,250.18 239.80,250.18 240.15,250.18 240.50,250.18 240.84,250.18 241.19,250.18 241.54,253.77 241.89,257.50 242.23,263.13 242.58,268.89 242.93,272.96 243.28,277.47 243.62,281.09 243.97,281.09 244.32,284.82 244.66,288.31 245.01,288.31 245.36,288.31 245.71,288.31 246.05,288.31 246.40,288.31 246.75,288.31 247.10,288.31 247.44,288.31 247.79,288.31 248.14,288.31 248.48,288.31 248.83,288.31 249.18,288.31 249.53,288.31 249.87,288.31 250.22,288.31 250.57,288.31 250.92,288.31 251.26,288.31 251.61,288.31 251.96,288.31 252.31,288.31 252.65,288.31 253.00,288.31 253.35,288.31 253.69,288.31 254.04,288.31 254.39,288.31 254.74,288.31 255.08,288.31 255.43,288.31 255.78,288.31 256.13,288.31 256.47,288.31 256.82,288.31 257.17,288.31 257.51,288.31 257.86,288.31 258.21,288.31 258.56,288.31 258.90,288.31 259.25,288.31 259.60,288.31 259.95,288.31 260.29,288.31 260.64,288.31 260.99,288.31 261.34,288.31 261.68,288.31 262.03,288.31 262.38,288.31 262.72,288.31 263.07,288.31 263.42,288.31 263.77,288.31 264.11,288.31 264.46,288.31 264.81,288.31 265.16,288.31 265.50,288.31 265.85,288.31 266.20,288.31 266.54,288.31 266.89,288.31 267.24,288.31 267.59,288.31 267.93,288.31 268.28,288.31 268.63,288.31 268.98,288.31 269.32,288.31 269.67,288.31 270.02,288.31 270.36,288.31 270.71,288.31 271.06,288.31 271.41,288.31 271.75,288.31 272.10,288.31 272.45,288.31 272.80,288.31 273.14,288.31 273.49,288.31 273.84,288.31 274.19,288.31 274.53,288.31 274.88,288.31 275.23,288.31 275.57,288.31 275.92,288.31 276.27,288.31 276.62,288.31 276.96,288.31 277.31,288.31 277.66,288.31 278.01,288.31 278.35,288.31 278.70,288.31 279.05,288.31 279.39,288.31 279.74,288.31 280.09,288.31 280.44,288.31 280.78,288.31 281.13,288.31 281.48,288.31 281.83,288.31 282.17,288.31 282.52,288.31 "
       style="stroke-width: 2.13; stroke: #00FFFF; stroke-linecap: butt;"
       id="polyline39" />
    <polyline
       points="39.41,288.31 39.76,288.31 40.10,288.31 40.45,288.31 40.80,288.31 41.14,288.31 41.49,288.31 41.84,288.31 42.19,288.31 42.53,288.31 42.88,288.31 43.23,288.31 43.58,288.31 43.92,288.31 44.27,288.31 44.62,288.31 44.97,288.31 45.31,288.31 45.66,288.31 46.01,288.31 46.35,288.31 46.70,288.31 47.05,288.31 47.40,288.31 47.74,288.31 48.09,288.31 48.44,288.31 48.79,288.31 49.13,288.31 49.48,288.31 49.83,288.31 50.17,288.31 50.52,288.31 50.87,288.31 51.22,288.31 51.56,288.31 51.91,288.31 52.26,288.31 52.61,288.31 52.95,288.31 53.30,288.31 53.65,288.31 54.00,288.31 54.34,288.31 54.69,288.31 55.04,288.31 55.38,288.31 55.73,288.31 56.08,288.31 56.43,288.31 56.77,288.31 57.12,288.31 57.47,288.31 57.82,288.31 58.16,288.31 58.51,288.31 58.86,288.31 59.20,288.31 59.55,288.31 59.90,288.31 60.25,288.31 60.59,288.31 60.94,288.31 61.29,288.31 61.64,288.31 61.98,288.31 62.33,288.31 62.68,288.31 63.02,288.31 63.37,288.31 63.72,288.31 64.07,288.31 64.41,288.31 64.76,288.31 65.11,288.31 65.46,288.31 65.80,288.31 66.15,288.31 66.50,288.31 66.85,288.31 67.19,288.31 67.54,288.31 67.89,288.31 68.23,288.31 68.58,288.31 68.93,288.31 69.28,288.31 69.62,288.31 69.97,288.31 70.32,288.31 70.67,288.31 71.01,288.31 71.36,288.31 71.71,288.31 72.05,288.31 72.40,288.31 72.75,288.31 73.10,288.31 73.44,288.31 73.79,288.31 74.14,288.31 74.49,288.31 74.83,288.31 75.18,288.31 75.53,288.31 75.88,288.31 76.22,288.31 76.57,288.31 76.92,288.31 77.26,288.31 77.61,288.31 77.96,288.31 78.31,288.31 78.65,288.31 79.00,288.31 79.35,288.31 79.70,288.31 80.04,288.31 80.39,288.31 80.74,288.31 81.08,288.31 81.43,288.31 81.78,288.31 82.13,288.31 82.47,288.31 82.82,288.31 83.17,288.31 83.52,288.31 83.86,288.31 84.21,288.31 84.56,288.31 84.91,288.31 85.25,288.31 85.60,288.31 85.95,288.31 86.29,288.31 86.64,288.31 86.99,288.31 87.34,288.31 87.68,288.31 88.03,288.31 88.38,284.75 88.73,280.58 89.07,276.45 89.42,272.52 89.77,269.10 90.11,269.10 90.46,269.10 90.81,269.10 91.16,269.10 91.50,269.10 91.85,269.10 92.20,269.10 92.55,269.10 92.89,269.10 93.24,269.10 93.59,269.10 93.93,269.10 94.28,269.10 94.63,269.10 94.98,269.10 95.32,269.10 95.67,269.10 96.02,269.10 96.37,269.10 96.71,269.10 97.06,269.10 97.41,269.10 97.76,265.17 98.10,261.41 98.45,257.99 98.80,257.99 99.14,253.89 99.49,249.76 99.84,245.15 100.19,240.57 100.53,237.15 100.88,237.15 101.23,233.63 101.58,233.63 101.92,229.36 102.27,224.75 102.62,220.68 102.96,217.09 103.31,212.62 103.66,207.70 104.01,202.38 104.35,197.43 104.70,193.63 105.05,189.84 105.40,186.22 105.74,182.63 106.09,179.21 106.44,179.21 106.79,175.68 107.13,172.20 107.48,172.20 107.83,172.20 108.17,172.20 108.52,172.20 108.87,172.20 109.22,172.20 109.56,172.20 109.91,172.20 110.26,172.20 110.61,172.20 110.95,172.20 111.30,172.20 111.65,172.20 111.99,168.23 112.34,164.13 112.69,164.13 113.04,160.71 113.38,156.07 113.73,150.78 114.08,145.08 114.43,140.37 114.77,136.27 115.12,132.54 115.47,128.95 115.82,125.43 116.16,125.43 116.51,125.43 116.86,125.43 117.20,125.43 117.55,128.99 117.90,129.26 118.25,133.39 118.59,137.32 118.94,140.74 119.29,140.74 119.64,140.74 119.98,140.74 120.33,140.74 120.68,140.74 121.02,140.74 121.37,140.74 121.72,140.74 122.07,140.74 122.41,140.74 122.76,140.74 123.11,140.74 123.46,140.74 123.80,140.74 124.15,140.74 124.50,140.74 124.84,140.74 125.19,140.74 125.54,140.74 125.89,140.74 126.23,140.74 126.58,140.74 126.93,144.67 127.28,148.43 127.62,151.85 127.97,151.85 128.32,155.95 128.67,160.08 129.01,164.69 129.36,169.27 129.71,172.69 130.05,172.69 130.40,176.21 130.75,176.21 131.10,180.48 131.44,185.09 131.79,189.16 132.14,192.75 132.49,197.22 132.83,202.14 133.18,207.46 133.53,212.41 133.87,216.21 134.22,220.00 134.57,223.63 134.92,227.21 135.26,230.63 135.61,230.63 135.96,234.16 136.31,237.64 136.65,237.64 137.00,237.64 137.35,237.64 137.70,237.64 138.04,237.64 138.39,237.64 138.74,237.64 139.08,237.64 139.43,237.64 139.78,237.64 140.13,237.64 140.47,237.64 140.82,237.64 141.17,241.61 141.52,245.71 141.86,245.71 142.21,249.13 142.56,253.77 142.90,259.06 143.25,264.76 143.60,269.47 143.95,273.57 144.29,277.30 144.64,280.89 144.99,284.41 145.34,284.41 145.68,284.41 146.03,284.41 146.38,284.41 146.73,284.41 147.07,288.31 147.42,288.31 147.77,288.31 148.11,288.31 148.46,288.31 148.81,288.31 149.16,288.31 149.50,288.31 149.85,288.31 150.20,288.31 150.55,288.31 150.89,288.31 151.24,288.31 151.59,288.31 151.93,288.31 152.28,288.31 152.63,288.31 152.98,288.31 153.32,288.31 153.67,288.31 154.02,288.31 154.37,288.31 154.71,288.31 155.06,288.31 155.41,288.31 155.75,288.31 156.10,288.31 156.45,288.31 156.80,284.85 157.14,281.16 157.49,276.99 157.84,272.65 158.19,268.62 158.53,268.62 158.88,264.96 159.23,264.96 159.58,264.96 159.92,264.96 160.27,264.96 160.62,264.96 160.96,264.96 161.31,264.96 161.66,264.96 162.01,261.38 162.35,257.65 162.70,253.96 163.05,250.23 163.40,246.03 163.74,241.66 164.09,237.25 164.44,232.71 164.78,228.47 165.13,224.31 165.48,220.07 165.83,215.43 166.17,210.54 166.52,205.80 166.87,201.32 167.22,196.81 167.56,192.24 167.91,187.22 168.26,182.24 168.61,177.56 168.95,172.81 169.30,168.00 169.65,162.78 169.99,157.69 170.34,153.62 170.69,148.98 171.04,143.89 171.38,140.03 171.73,136.47 172.08,132.99 172.43,132.99 172.77,132.99 173.12,132.99 173.47,127.32 173.81,122.51 174.16,118.92 174.51,115.33 174.86,111.67 175.20,111.67 175.55,111.67 175.90,111.67 176.25,108.01 176.59,108.01 176.94,108.01 177.29,108.01 177.64,108.01 177.98,108.01 178.33,108.01 178.68,108.01 179.02,108.01 179.37,108.01 179.72,108.01 180.07,108.01 180.41,108.01 180.76,108.01 181.11,108.01 181.46,108.01 181.80,108.01 182.15,108.01 182.50,108.01 182.84,108.01 183.19,108.01 183.54,108.01 183.89,108.01 184.23,108.01 184.58,108.01 184.93,104.56 185.28,100.43 185.62,96.63 185.97,96.60 186.32,100.29 186.66,104.46 187.01,108.80 187.36,112.83 187.71,112.83 188.05,116.49 188.40,116.49 188.75,116.49 189.10,112.62 189.44,108.69 189.79,108.69 190.14,108.69 190.49,108.69 190.83,108.69 191.18,112.28 191.53,116.01 191.87,119.70 192.22,123.43 192.57,127.63 192.92,132.00 193.26,136.41 193.61,140.95 193.96,145.18 194.31,149.35 194.65,153.59 195.00,158.23 195.35,163.12 195.69,167.86 196.04,172.34 196.39,176.84 196.74,181.42 197.08,186.44 197.43,191.42 197.78,196.10 198.13,200.85 198.47,205.66 198.82,210.88 199.17,215.97 199.52,220.04 199.86,224.68 200.21,229.77 200.56,233.63 200.90,237.18 201.25,240.67 201.60,240.67 201.95,240.67 202.29,240.67 202.64,246.34 202.99,251.15 203.34,254.74 203.68,258.33 204.03,261.99 204.38,261.99 204.72,261.99 205.07,261.99 205.42,265.65 205.77,265.65 206.11,265.65 206.46,265.65 206.81,265.65 207.16,265.65 207.50,265.65 207.85,265.65 208.20,265.65 208.54,265.65 208.89,265.65 209.24,265.65 209.59,265.65 209.93,265.65 210.28,265.65 210.63,265.65 210.98,265.65 211.32,265.65 211.67,265.65 212.02,265.65 212.37,265.65 212.71,265.65 213.06,265.65 213.41,265.65 213.75,265.65 214.10,269.10 214.45,273.23 214.80,277.03 215.14,280.51 215.49,280.51 215.84,280.51 216.19,280.51 216.53,280.51 216.88,280.51 217.23,280.51 217.57,280.51 217.92,280.51 218.27,284.38 218.62,288.31 218.96,288.31 219.31,288.31 219.66,288.31 220.01,288.31 220.35,288.31 220.70,288.31 221.05,288.31 221.40,288.31 221.74,288.31 222.09,288.31 222.44,288.31 222.78,288.31 223.13,288.31 223.48,288.31 223.83,288.31 224.17,288.31 224.52,288.31 224.87,288.31 225.22,288.31 225.56,288.31 225.91,288.31 226.26,288.31 226.60,288.31 226.95,288.31 227.30,288.31 227.65,288.31 227.99,288.31 228.34,288.31 228.69,288.31 229.04,288.31 229.38,288.31 229.73,288.31 230.08,288.31 230.43,288.31 230.77,288.31 231.12,288.31 231.47,288.31 231.81,288.31 232.16,288.31 232.51,288.31 232.86,288.31 233.20,288.31 233.55,288.31 233.90,288.31 234.25,288.31 234.59,288.31 234.94,288.31 235.29,288.31 235.63,288.31 235.98,288.31 236.33,288.31 236.68,288.31 237.02,288.31 237.37,288.31 237.72,288.31 238.07,288.31 238.41,288.31 238.76,288.31 239.11,288.31 239.45,288.31 239.80,288.31 240.15,288.31 240.50,288.31 240.84,288.31 241.19,288.31 241.54,288.31 241.89,288.31 242.23,288.31 242.58,288.31 242.93,288.31 243.28,288.31 243.62,288.31 243.97,288.31 244.32,288.31 244.66,288.31 245.01,288.31 245.36,288.31 245.71,288.31 246.05,288.31 246.40,288.31 246.75,288.31 247.10,288.31 247.44,288.31 247.79,288.31 248.14,288.31 248.48,288.31 248.83,288.31 249.18,288.31 249.53,288.31 249.87,288.31 250.22,288.31 250.57,288.31 250.92,288.31 251.26,288.31 251.61,288.31 251.96,288.31 252.31,288.31 252.65,288.31 253.00,288.31 253.35,288.31 253.69,288.31 254.04,288.31 254.39,288.31 254.74,288.31 255.08,288.31 255.43,288.31 255.78,288.31 256.13,288.31 256.47,288.31 256.82,288.31 257.17,288.31 257.51,288.31 257.86,288.31 258.21,288.31 258.56,288.31 258.90,288.31 259.25,288.31 259.60,288.31 259.95,288.31 260.29,288.31 260.64,288.31 260.99,288.31 261.34,288.31 261.68,288.31 262.03,288.31 262.38,288.31 262.72,288.31 263.07,288.31 263.42,288.31 263.77,288.31 264.11,288.31 264.46,288.31 264.81,288.31 265.16,288.31 265.50,288.31 265.85,288.31 266.20,288.31 266.54,288.31 266.89,288.31 267.24,288.31 267.59,288.31 267.93,288.31 268.28,288.31 268.63,288.31 268.98,288.31 269.32,288.31 269.67,288.31 270.02,288.31 270.36,288.31 270.71,288.31 271.06,288.31 271.41,288.31 271.75,288.31 272.10,288.31 272.45,288.31 272.80,288.31 273.14,288.31 273.49,288.31 273.84,288.31 274.19,288.31 274.53,288.31 274.88,288.31 275.23,288.31 275.57,288.31 275.92,288.31 276.27,288.31 276.62,288.31 276.96,288.31 277.31,288.31 277.66,288.31 278.01,288.31 278.35,288.31 278.70,288.31 279.05,288.31 279.39,288.31 279.74,288.31 280.09,288.31 280.44,288.31 280.78,288.31 281.13,288.31 281.48,288.31 281.83,288.31 282.17,288.31 282.52,288.31 "
       style="stroke-width: 2.13; stroke-linecap: butt;"
       id="polyline41" />
    <rect
       x="39.06"
       y="23.58"
       width="243.46"
       height="267.59"
       style="stroke-width: 1.07; stroke: #333333;"
       id="rect43" />
  </g>
  <g
     clip-path="url(#cpMC4wMHw1NzYuMDB8MC4wMHwzMjQuMDA=)"
     id="g147">
    <text
       x="34.13"
       y="291.51"
       text-anchor="end"
       style="font-size: 8.80px; fill: #4D4D4D; font-family: Arial;"
       textLength="5.59px"
       lengthAdjust="spacingAndGlyphs"
       id="text47">0</text>
    <text
       x="34.13"
       y="243.90"
       text-anchor="end"
       style="font-size: 8.80px; fill: #4D4D4D; font-family: Arial;"
       textLength="5.59px"
       lengthAdjust="spacingAndGlyphs"
       id="text49">2</text>
    <text
       x="34.13"
       y="196.29"
       text-anchor="end"
       style="font-size: 8.80px; fill: #4D4D4D; font-family: Arial;"
       textLength="5.59px"
       lengthAdjust="spacingAndGlyphs"
       id="text51">4</text>
    <text
       x="34.13"
       y="148.68"
       text-anchor="end"
       style="font-size: 8.80px; fill: #4D4D4D; font-family: Arial;"
       textLength="5.59px"
       lengthAdjust="spacingAndGlyphs"
       id="text53">6</text>
    <text
       x="34.13"
       y="101.06"
       text-anchor="end"
       style="font-size: 8.80px; fill: #4D4D4D; font-family: Arial;"
       textLength="5.59px"
       lengthAdjust="spacingAndGlyphs"
       id="text55">8</text>
    <text
       x="34.13"
       y="53.45"
       text-anchor="end"
       style="font-size: 8.80px; fill: #4D4D4D; font-family: Arial;"
       textLength="11.19px"
       lengthAdjust="spacingAndGlyphs"
       id="text57">10</text>
    <polyline
       points="36.32,288.31 39.06,288.31 "
       style="stroke-width: 1.07; stroke: #333333; stroke-linecap: butt;"
       id="polyline59" />
    <polyline
       points="36.32,240.69 39.06,240.69 "
       style="stroke-width: 1.07; stroke: #333333; stroke-linecap: butt;"
       id="polyline61" />
    <polyline
       points="36.32,193.08 39.06,193.08 "
       style="stroke-width: 1.07; stroke: #333333; stroke-linecap: butt;"
       id="polyline63" />
    <polyline
       points="36.32,145.47 39.06,145.47 "
       style="stroke-width: 1.07; stroke: #333333; stroke-linecap: butt;"
       id="polyline65" />
    <polyline
       points="36.32,97.85 39.06,97.85 "
       style="stroke-width: 1.07; stroke: #333333; stroke-linecap: butt;"
       id="polyline67" />
    <polyline
       points="36.32,50.24 39.06,50.24 "
       style="stroke-width: 1.07; stroke: #333333; stroke-linecap: butt;"
       id="polyline69" />
    <polyline
       points="39.06,293.90 39.06,291.16 "
       style="stroke-width: 1.07; stroke: #333333; stroke-linecap: butt;"
       id="polyline71" />
    <polyline
       points="70.32,293.90 70.32,291.16 "
       style="stroke-width: 1.07; stroke: #333333; stroke-linecap: butt;"
       id="polyline73" />
    <polyline
       points="101.58,293.90 101.58,291.16 "
       style="stroke-width: 1.07; stroke: #333333; stroke-linecap: butt;"
       id="polyline75" />
    <polyline
       points="132.83,293.90 132.83,291.16 "
       style="stroke-width: 1.07; stroke: #333333; stroke-linecap: butt;"
       id="polyline77" />
    <polyline
       points="164.09,293.90 164.09,291.16 "
       style="stroke-width: 1.07; stroke: #333333; stroke-linecap: butt;"
       id="polyline79" />
    <polyline
       points="195.35,293.90 195.35,291.16 "
       style="stroke-width: 1.07; stroke: #333333; stroke-linecap: butt;"
       id="polyline81" />
    <polyline
       points="226.60,293.90 226.60,291.16 "
       style="stroke-width: 1.07; stroke: #333333; stroke-linecap: butt;"
       id="polyline83" />
    <polyline
       points="257.86,293.90 257.86,291.16 "
       style="stroke-width: 1.07; stroke: #333333; stroke-linecap: butt;"
       id="polyline85" />
    <text
       transform="translate(14.83,203.86) rotate(-90)"
       style="font-size: 11.00px; font-family: Arial;"
       textLength="27.63px"
       lengthAdjust="spacingAndGlyphs"
       id="text105">DHW</text>
    <text
       transform="translate(14.83,176.23) rotate(-90)"
       style="font-size: 11.00px; font-family: Standard Symbols PS;"
       textLength="2.75px"
       lengthAdjust="spacingAndGlyphs"
       id="text107" />
    <text
       transform="translate(14.83,173.48) rotate(-90)"
       style="font-size: 13.75px; font-family: Standard Symbols PS;"
       textLength="4.58px"
       lengthAdjust="spacingAndGlyphs"
       id="text109">(</text>
    <text
       transform="translate(14.83,168.90) rotate(-90)"
       style="font-size: 11.00px; font-family: Standard Symbols PS;"
       textLength="4.40px"
       lengthAdjust="spacingAndGlyphs"
       id="text111">°</text>
    <text
       transform="translate(14.83,164.50) rotate(-90)"
       style="font-size: 11.00px; font-family: Arial;"
       textLength="7.68px"
       lengthAdjust="spacingAndGlyphs"
       id="text113">C</text>
    <text
       transform="translate(14.83,156.82) rotate(-90)"
       style="font-size: 11.00px; font-family: Standard Symbols PS;"
       textLength="2.75px"
       lengthAdjust="spacingAndGlyphs"
       id="text115" />
    <text
       transform="translate(14.83,154.07) rotate(-90)"
       style="font-size: 11.00px; font-family: Arial;"
       textLength="38.61px"
       lengthAdjust="spacingAndGlyphs"
       id="text117">-weeks</text>
    <text
       transform="translate(14.83,115.46) rotate(-90)"
       style="font-size: 13.75px; font-family: Standard Symbols PS;"
       textLength="4.58px"
       lengthAdjust="spacingAndGlyphs"
       id="text119">)</text>
    <rect
       x="71.30"
       y="107.48"
       width="17.28"
       height="17.28"
       style="stroke-width: 1.07; stroke: none; fill: #FFFFFF;"
       id="rect135" />
    <text
       id="text1160-3"
       y="305.9552"
       x="39.706512"
       style="font-style:normal;font-variant:normal;font-weight:normal;font-stretch:normal;font-size:15.75px;line-height:28.125px;font-family:Arial;-inkscape-font-specification:Arial;text-align:center;letter-spacing:0px;word-spacing:0px;text-anchor:middle;fill:#000000;fill-opacity:1;stroke:none;stroke-width:1.125px;stroke-linecap:butt;stroke-linejoin:miter;stroke-opacity:1"
       xml:space="preserve"><tspan
         style="font-size:9px;fill:#4d4d4d;stroke-width:1.125px"
         y="305.9552"
         x="39.706512"
         id="tspan1158-61"
         sodipodi:role="line">Jan</tspan></text>
    <text
       id="text1160-7-29"
       y="305.11584"
       x="70.535599"
       style="font-style:normal;font-variant:normal;font-weight:normal;font-stretch:normal;font-size:15.75px;line-height:28.125px;font-family:Arial;-inkscape-font-specification:Arial;text-align:center;letter-spacing:0px;word-spacing:0px;text-anchor:middle;fill:#000000;fill-opacity:1;stroke:none;stroke-width:1.125px;stroke-linecap:butt;stroke-linejoin:miter;stroke-opacity:1"
       xml:space="preserve"><tspan
         style="font-size:9px;fill:#4d4d4d;stroke-width:1.125px"
         y="305.11584"
         x="70.535599"
         id="tspan1158-5-3"
         sodipodi:role="line">Apr</tspan></text>
    <text
       id="text1160-7-3-1"
       y="305.9552"
       x="101.84216"
       style="font-style:normal;font-variant:normal;font-weight:normal;font-stretch:normal;font-size:15.75px;line-height:28.125px;font-family:Arial;-inkscape-font-specification:Arial;text-align:center;letter-spacing:0px;word-spacing:0px;text-anchor:middle;fill:#000000;fill-opacity:1;stroke:none;stroke-width:1.125px;stroke-linecap:butt;stroke-linejoin:miter;stroke-opacity:1"
       xml:space="preserve"><tspan
         style="font-size:9px;fill:#4d4d4d;stroke-width:1.125px"
         y="305.9552"
         x="101.84216"
         id="tspan1158-5-5-94"
         sodipodi:role="line">Jul</tspan></text>
    <text
       xml:space="preserve"
       style="font-style:normal;font-variant:normal;font-weight:normal;font-stretch:normal;font-size:15.75px;line-height:28.125px;font-family:Arial;-inkscape-font-specification:Arial;text-align:center;letter-spacing:0px;word-spacing:0px;text-anchor:middle;fill:#000000;fill-opacity:1;stroke:none;stroke-width:1.125px;stroke-linecap:butt;stroke-linejoin:miter;stroke-opacity:1"
       x="132.53502"
       y="306.01233"
       id="text1160-9-7"><tspan
         sodipodi:role="line"
         id="tspan1158-1-8"
         x="132.53502"
         y="306.01233"
         style="font-size:9px;fill:#4d4d4d;stroke-width:1.125px">Oct</tspan></text>
    <text
       xml:space="preserve"
       style="font-style:normal;font-variant:normal;font-weight:normal;font-stretch:normal;font-size:15.75px;line-height:28.125px;font-family:Arial;-inkscape-font-specification:Arial;text-align:center;letter-spacing:0px;word-spacing:0px;text-anchor:middle;fill:#000000;fill-opacity:1;stroke:none;stroke-width:1.125px;stroke-linecap:butt;stroke-linejoin:miter;stroke-opacity:1"
       x="163.96463"
       y="305.9552"
       id="text1160-7-2-4"><tspan
         sodipodi:role="line"
         id="tspan1158-5-7-50"
         x="163.96463"
         y="305.9552"
         style="font-size:9px;fill:#4d4d4d;stroke-width:1.125px">Jan</tspan></text>
    <text
       xml:space="preserve"
       style="font-style:normal;font-variant:normal;font-weight:normal;font-stretch:normal;font-size:15.75px;line-height:28.125px;font-family:Arial;-inkscape-font-specification:Arial;text-align:center;letter-spacing:0px;word-spacing:0px;text-anchor:middle;fill:#000000;fill-opacity:1;stroke:none;stroke-width:1.125px;stroke-linecap:butt;stroke-linejoin:miter;stroke-opacity:1"
       x="194.79373"
       y="305.11584"
       id="text1160-7-3-0-3"><tspan
         sodipodi:role="line"
         id="tspan1158-5-5-9-6"
         x="194.79373"
         y="305.11584"
         style="font-size:9px;fill:#4d4d4d;stroke-width:1.125px">Apr</tspan></text>
    <text
       xml:space="preserve"
       style="font-style:normal;font-variant:normal;font-weight:normal;font-stretch:normal;font-size:15.75px;line-height:28.125px;font-family:Arial;-inkscape-font-specification:Arial;text-align:center;letter-spacing:0px;word-spacing:0px;text-anchor:middle;fill:#000000;fill-opacity:1;stroke:none;stroke-width:1.125px;stroke-linecap:butt;stroke-linejoin:miter;stroke-opacity:1"
       x="226.1003"
       y="305.9552"
       id="text1160-7-3-3-1"><tspan
         sodipodi:role="line"
         id="tspan1158-5-5-6-0"
         x="226.1003"
         y="305.9552"
         style="font-size:9px;fill:#4d4d4d;stroke-width:1.125px">Jul</tspan></text>
    <text
       xml:space="preserve"
       style="font-style:normal;font-variant:normal;font-weight:normal;font-stretch:normal;font-size:15.75px;line-height:28.125px;font-family:Arial;-inkscape-font-specification:Arial;text-align:center;letter-spacing:0px;word-spacing:0px;text-anchor:middle;fill:#000000;fill-opacity:1;stroke:none;stroke-width:1.125px;stroke-linecap:butt;stroke-linejoin:miter;stroke-opacity:1"
       x="256.79315"
       y="306.01233"
       id="text1160-9-0-6"><tspan
         sodipodi:role="line"
         id="tspan1158-1-6-3"
         x="256.79315"
         y="306.01233"
         style="font-size:9px;fill:#4d4d4d;stroke-width:1.125px">Oct</tspan></text>
    <text
       id="text1160-3-3"
       y="305.9552"
       x="301.41428"
       style="font-style:normal;font-variant:normal;font-weight:normal;font-stretch:normal;font-size:15.75px;line-height:28.125px;font-family:Arial;-inkscape-font-specification:Arial;text-align:center;letter-spacing:0px;word-spacing:0px;text-anchor:middle;fill:#000000;fill-opacity:1;stroke:none;stroke-width:1.125px;stroke-linecap:butt;stroke-linejoin:miter;stroke-opacity:1"
       xml:space="preserve"><tspan
         style="font-size:9px;fill:#4d4d4d;stroke-width:1.125px"
         y="305.9552"
         x="301.41428"
         id="tspan1158-61-6"
         sodipodi:role="line">Jan</tspan></text>
    <text
       id="text1160-7-29-7"
       y="305.11584"
       x="332.24335"
       style="font-style:normal;font-variant:normal;font-weight:normal;font-stretch:normal;font-size:15.75px;line-height:28.125px;font-family:Arial;-inkscape-font-specification:Arial;text-align:center;letter-spacing:0px;word-spacing:0px;text-anchor:middle;fill:#000000;fill-opacity:1;stroke:none;stroke-width:1.125px;stroke-linecap:butt;stroke-linejoin:miter;stroke-opacity:1"
       xml:space="preserve"><tspan
         style="font-size:9px;fill:#4d4d4d;stroke-width:1.125px"
         y="305.11584"
         x="332.24335"
         id="tspan1158-5-3-5"
         sodipodi:role="line">Apr</tspan></text>
    <text
       id="text1160-7-3-1-3"
       y="305.9552"
       x="363.54993"
       style="font-style:normal;font-variant:normal;font-weight:normal;font-stretch:normal;font-size:15.75px;line-height:28.125px;font-family:Arial;-inkscape-font-specification:Arial;text-align:center;letter-spacing:0px;word-spacing:0px;text-anchor:middle;fill:#000000;fill-opacity:1;stroke:none;stroke-width:1.125px;stroke-linecap:butt;stroke-linejoin:miter;stroke-opacity:1"
       xml:space="preserve"><tspan
         style="font-size:9px;fill:#4d4d4d;stroke-width:1.125px"
         y="305.9552"
         x="363.54993"
         id="tspan1158-5-5-94-5"
         sodipodi:role="line">Jul</tspan></text>
    <text
       xml:space="preserve"
       style="font-style:normal;font-variant:normal;font-weight:normal;font-stretch:normal;font-size:15.75px;line-height:28.125px;font-family:Arial;-inkscape-font-specification:Arial;text-align:center;letter-spacing:0px;word-spacing:0px;text-anchor:middle;fill:#000000;fill-opacity:1;stroke:none;stroke-width:1.125px;stroke-linecap:butt;stroke-linejoin:miter;stroke-opacity:1"
       x="394.24277"
       y="306.01233"
       id="text1160-9-7-6"><tspan
         sodipodi:role="line"
         id="tspan1158-1-8-2"
         x="394.24277"
         y="306.01233"
         style="font-size:9px;fill:#4d4d4d;stroke-width:1.125px">Oct</tspan></text>
    <text
       xml:space="preserve"
       style="font-style:normal;font-variant:normal;font-weight:normal;font-stretch:normal;font-size:15.75px;line-height:28.125px;font-family:Arial;-inkscape-font-specification:Arial;text-align:center;letter-spacing:0px;word-spacing:0px;text-anchor:middle;fill:#000000;fill-opacity:1;stroke:none;stroke-width:1.125px;stroke-linecap:butt;stroke-linejoin:miter;stroke-opacity:1"
       x="425.67239"
       y="305.9552"
       id="text1160-7-2-4-9"><tspan
         sodipodi:role="line"
         id="tspan1158-5-7-50-1"
         x="425.67239"
         y="305.9552"
         style="font-size:9px;fill:#4d4d4d;stroke-width:1.125px">Jan</tspan></text>
    <text
       xml:space="preserve"
       style="font-style:normal;font-variant:normal;font-weight:normal;font-stretch:normal;font-size:15.75px;line-height:28.125px;font-family:Arial;-inkscape-font-specification:Arial;text-align:center;letter-spacing:0px;word-spacing:0px;text-anchor:middle;fill:#000000;fill-opacity:1;stroke:none;stroke-width:1.125px;stroke-linecap:butt;stroke-linejoin:miter;stroke-opacity:1"
       x="456.5015"
       y="305.11584"
       id="text1160-7-3-0-3-2"><tspan
         sodipodi:role="line"
         id="tspan1158-5-5-9-6-7"
         x="456.5015"
         y="305.11584"
         style="font-size:9px;fill:#4d4d4d;stroke-width:1.125px">Apr</tspan></text>
    <text
       xml:space="preserve"
       style="font-style:normal;font-variant:normal;font-weight:normal;font-stretch:normal;font-size:15.75px;line-height:28.125px;font-family:Arial;-inkscape-font-specification:Arial;text-align:center;letter-spacing:0px;word-spacing:0px;text-anchor:middle;fill:#000000;fill-opacity:1;stroke:none;stroke-width:1.125px;stroke-linecap:butt;stroke-linejoin:miter;stroke-opacity:1"
       x="487.80804"
       y="305.9552"
       id="text1160-7-3-3-1-0"><tspan
         sodipodi:role="line"
         id="tspan1158-5-5-6-0-9"
         x="487.80804"
         y="305.9552"
         style="font-size:9px;fill:#4d4d4d;stroke-width:1.125px">Jul</tspan></text>
    <text
       xml:space="preserve"
       style="font-style:normal;font-variant:normal;font-weight:normal;font-stretch:normal;font-size:15.75px;line-height:28.125px;font-family:Arial;-inkscape-font-specification:Arial;text-align:center;letter-spacing:0px;word-spacing:0px;text-anchor:middle;fill:#000000;fill-opacity:1;stroke:none;stroke-width:1.125px;stroke-linecap:butt;stroke-linejoin:miter;stroke-opacity:1"
       x="518.50092"
       y="306.01233"
       id="text1160-9-0-6-3"><tspan
         sodipodi:role="line"
         id="tspan1158-1-6-3-6"
         x="518.50092"
         y="306.01233"
         style="font-size:9px;fill:#4d4d4d;stroke-width:1.125px">Oct</tspan></text>
  </g>
  <defs
     id="defs152">
    <clipPath
       id="cpMjg4LjAwfDU3Ni4wMHwwLjAwfDMyNC4wMA==">
      <rect
         x="288.00"
         y="0.00"
         width="288.00"
         height="324.00"
         id="rect149" />
    </clipPath>
  </defs>
  <g
     clip-path="url(#cpMC4wMHw1NzYuMDB8MC4wMHwzMjQuMDA=)"
     id="g158" />
  <defs
     id="defs163">
    <clipPath
       id="cpMzI3LjA2fDU3MC41MnwyMy41OHwyOTEuMTY=">
      <rect
         x="327.06"
         y="23.58"
         width="243.46"
         height="267.59"
         id="rect160" />
    </clipPath>
  </defs>
  <g
     clip-path="url(#cpMzI3LjA2fDU3MC41MnwyMy41OHwyOTEuMTY=)"
     id="g179"
     transform="translate(-27)">
    <rect
       x="327.06"
       y="23.58"
       width="243.46001"
       height="267.59"
       style="fill:#ffffff;stroke:none;stroke-width:1.07000005;stroke-linecap:round;stroke-linejoin:round;stroke-miterlimit:10"
       id="rect165" />
    <line
       x1="327.06"
       y1="97.849998"
       x2="570.52002"
       y2="97.849998"
       style="fill:none;stroke:#ff0000;stroke-width:2.13000011;stroke-linecap:butt;stroke-linejoin:round;stroke-miterlimit:10;stroke-dasharray:11.38, 11.38"
       id="line167" />
    <line
       x1="327.06"
       y1="193.08"
       x2="570.52002"
       y2="193.08"
       style="fill:none;stroke:#ffa500;stroke-width:2.13000011;stroke-linecap:butt;stroke-linejoin:round;stroke-miterlimit:10;stroke-dasharray:11.38, 11.38"
       id="line169" />
    <polyline
       points="356.23,288.31 356.58,288.31 356.93,288.31 357.28,288.31 357.62,288.31 357.97,288.31 358.32,288.31 358.67,288.31 359.01,288.31 359.36,288.31 359.71,288.31 360.05,288.31 360.40,288.31 360.75,288.31 361.10,288.31 361.44,288.31 361.79,288.31 362.14,288.31 362.49,288.31 362.83,288.31 363.18,288.31 363.53,288.31 363.88,288.31 364.22,288.31 364.57,288.31 364.92,288.31 365.26,288.31 365.61,288.31 365.96,288.31 366.31,288.31 366.65,288.31 367.00,288.31 367.35,288.31 367.70,288.31 368.04,288.31 368.39,288.31 368.74,288.31 369.08,288.31 369.43,288.31 369.78,288.31 370.13,288.31 370.47,288.31 370.82,288.31 371.17,288.31 371.52,288.31 371.86,288.31 372.21,288.31 372.56,288.31 372.91,288.31 373.25,288.31 373.60,288.31 373.95,288.31 374.29,288.31 374.64,288.31 374.99,288.31 375.34,288.31 375.68,288.31 376.03,288.31 376.38,288.31 376.73,288.31 377.07,288.31 377.42,288.31 377.77,288.31 378.11,288.31 378.46,288.31 378.81,288.31 379.16,288.31 379.50,288.31 379.85,288.31 380.20,288.31 380.55,288.31 380.89,288.31 381.24,288.31 381.59,288.31 381.93,288.31 382.28,288.31 382.63,288.31 382.98,288.31 383.32,288.31 383.67,288.31 384.02,288.31 384.37,288.31 384.71,288.31 385.06,288.31 385.41,288.31 385.76,288.31 386.10,288.31 386.45,288.31 386.80,288.31 387.14,288.31 387.49,288.31 387.84,288.31 388.19,288.31 388.53,288.31 388.88,288.31 389.23,288.31 389.58,288.31 389.92,288.31 390.27,288.31 390.62,288.31 390.96,288.31 391.31,288.31 391.66,288.31 392.01,288.31 392.35,288.31 392.70,288.31 393.05,288.31 393.40,288.31 393.74,288.31 394.09,288.31 394.44,288.31 394.79,288.31 395.13,288.31 395.48,288.31 395.83,288.31 396.17,288.31 396.52,288.31 396.87,288.31 397.22,288.31 397.56,288.31 397.91,288.31 398.26,288.31 398.61,288.31 398.95,288.31 399.30,288.31 399.65,288.31 399.99,288.31 400.34,288.31 400.69,288.31 401.04,288.31 401.38,288.31 401.73,288.31 402.08,288.31 402.43,288.31 402.77,288.31 403.12,288.31 403.47,288.31 403.82,288.31 404.16,288.31 404.51,288.31 404.86,288.31 405.20,288.31 405.55,288.31 405.90,288.31 406.25,288.31 406.59,288.31 406.94,288.31 407.29,288.31 407.64,288.31 407.98,288.31 408.33,288.31 408.68,288.31 409.02,288.31 409.37,288.31 409.72,288.31 410.07,288.31 410.41,288.31 410.76,288.31 411.11,288.31 411.46,288.31 411.80,288.31 412.15,288.31 412.50,288.31 412.84,288.31 413.19,288.31 413.54,288.31 413.89,288.31 414.23,288.31 414.58,288.31 414.93,288.31 415.28,288.31 415.62,288.31 415.97,288.31 416.32,288.31 416.67,288.31 417.01,288.31 417.36,288.31 417.71,288.31 418.05,288.31 418.40,288.31 418.75,288.31 419.10,288.31 419.44,288.31 419.79,288.31 420.14,288.31 420.49,288.31 420.83,288.31 421.18,288.31 421.53,288.31 421.87,288.31 422.22,288.31 422.57,288.31 422.92,288.31 423.26,288.31 423.61,288.31 423.96,288.31 424.31,288.31 424.65,288.31 425.00,288.31 425.35,288.31 425.70,288.31 426.04,288.31 426.39,288.31 426.74,288.31 427.08,288.31 427.43,288.31 427.78,288.31 428.13,288.31 428.47,288.31 428.82,288.31 429.17,288.31 429.52,288.31 429.86,288.31 430.21,288.31 430.56,288.31 430.90,288.31 431.25,288.31 431.60,288.31 431.95,288.31 432.29,288.31 432.64,288.31 432.99,288.31 433.34,288.31 433.68,288.31 434.03,288.31 434.38,288.31 434.73,288.31 435.07,288.31 435.42,288.31 435.77,288.31 436.11,288.31 436.46,288.31 436.81,288.31 437.16,284.79 437.50,280.59 437.85,277.18 438.20,277.18 438.55,277.18 438.89,277.18 439.24,277.18 439.59,277.18 439.93,277.18 440.28,277.18 440.63,277.18 440.98,277.18 441.32,277.18 441.67,277.18 442.02,277.18 442.37,277.18 442.71,277.18 443.06,277.18 443.41,277.18 443.75,277.18 444.10,277.18 444.45,277.18 444.80,277.18 445.14,277.18 445.49,277.18 445.84,277.18 446.19,277.18 446.53,277.18 446.88,277.18 447.23,277.18 447.58,277.18 447.92,277.18 448.27,277.18 448.62,277.18 448.96,277.18 449.31,277.18 449.66,277.18 450.01,277.18 450.35,277.18 450.70,277.18 451.05,277.18 451.40,277.18 451.74,277.18 452.09,277.18 452.44,277.18 452.78,277.18 453.13,277.18 453.48,277.18 453.83,277.18 454.17,277.18 454.52,277.18 454.87,277.18 455.22,277.18 455.56,277.18 455.91,277.18 456.26,277.18 456.61,277.18 456.95,277.18 457.30,277.18 457.65,277.18 457.99,277.18 458.34,277.18 458.69,277.18 459.04,277.18 459.38,277.18 459.73,277.18 460.08,277.18 460.43,277.18 460.77,277.18 461.12,277.18 461.47,277.18 461.81,277.18 462.16,277.18 462.51,277.18 462.86,277.18 463.20,277.18 463.55,277.18 463.90,277.18 464.25,277.18 464.59,277.18 464.94,277.18 465.29,277.18 465.64,277.18 465.98,277.18 466.33,280.70 466.68,284.89 467.02,288.31 467.37,288.31 467.72,288.31 468.07,288.31 468.41,288.31 468.76,288.31 469.11,288.31 469.46,288.31 469.80,288.31 470.15,288.31 470.50,288.31 470.84,288.31 471.19,288.31 471.54,288.31 471.89,288.31 472.23,288.31 472.58,288.31 472.93,288.31 473.28,288.31 473.62,288.31 473.97,288.31 474.32,288.31 474.66,288.31 475.01,288.31 475.36,284.62 475.71,280.83 476.05,277.08 476.40,273.19 476.75,273.19 477.10,273.19 477.44,269.50 477.79,265.61 478.14,262.06 478.49,262.06 478.83,262.06 479.18,262.06 479.53,262.06 479.87,262.06 480.22,262.06 480.57,262.06 480.92,262.06 481.26,262.06 481.61,262.06 481.96,262.06 482.31,262.06 482.65,262.06 483.00,262.06 483.35,262.06 483.69,262.06 484.04,262.06 484.39,262.06 484.74,262.06 485.08,262.06 485.43,262.06 485.78,262.06 486.13,262.06 486.47,262.06 486.82,262.06 487.17,262.06 487.52,262.06 487.86,262.06 488.21,262.06 488.56,262.06 488.90,262.06 489.25,262.06 489.60,262.06 489.95,262.06 490.29,258.41 490.64,254.79 490.99,251.31 491.34,247.28 491.68,243.43 492.03,239.81 492.38,239.81 492.72,239.81 493.07,239.81 493.42,239.81 493.77,239.81 494.11,239.81 494.46,239.81 494.81,239.81 495.16,239.81 495.50,239.81 495.85,239.81 496.20,239.81 496.54,239.81 496.89,239.81 497.24,239.81 497.59,239.81 497.93,239.81 498.28,239.81 498.63,239.81 498.98,239.81 499.32,239.81 499.67,239.81 500.02,239.81 500.37,239.81 500.71,239.81 501.06,239.81 501.41,239.81 501.75,239.81 502.10,239.81 502.45,239.81 502.80,239.81 503.14,239.81 503.49,239.81 503.84,239.81 504.19,239.81 504.53,243.50 504.88,247.28 505.23,251.04 505.57,254.93 505.92,254.93 506.27,254.93 506.62,258.61 506.96,262.50 507.31,266.05 507.66,266.05 508.01,266.05 508.35,266.05 508.70,266.05 509.05,266.05 509.40,266.05 509.74,266.05 510.09,266.05 510.44,266.05 510.78,266.05 511.13,266.05 511.48,266.05 511.83,266.05 512.17,266.05 512.52,266.05 512.87,266.05 513.22,266.05 513.56,266.05 513.91,266.05 514.26,266.05 514.60,266.05 514.95,261.65 515.30,256.00 515.65,250.10 515.99,244.92 516.34,240.48 516.69,236.52 517.04,233.04 517.38,233.04 517.73,233.04 518.08,233.04 518.43,233.04 518.77,233.04 519.12,233.04 519.47,236.69 519.81,240.31 520.16,243.79 520.51,247.82 520.86,251.68 521.20,255.29 521.55,255.29 521.90,255.29 522.25,255.29 522.59,255.29 522.94,255.29 523.29,255.29 523.63,255.29 523.98,255.29 524.33,255.29 524.68,255.29 525.02,255.29 525.37,255.29 525.72,255.29 526.07,255.29 526.41,255.29 526.76,255.29 527.11,255.29 527.45,255.29 527.80,255.29 528.15,255.29 528.50,255.29 528.84,255.29 529.19,255.29 529.54,255.29 529.89,255.29 530.23,255.29 530.58,255.29 530.93,255.29 531.28,255.29 531.62,255.29 531.97,255.29 532.32,255.29 532.66,255.29 533.01,255.29 533.36,255.29 533.71,255.29 534.05,255.29 534.40,255.29 534.75,255.29 535.10,255.29 535.44,255.29 535.79,255.29 536.14,255.29 536.48,255.29 536.83,255.29 537.18,255.29 537.53,255.29 537.87,255.29 538.22,255.29 538.57,255.29 538.92,255.29 539.26,255.29 539.61,255.29 539.96,255.29 540.31,255.29 540.65,255.29 541.00,255.29 541.35,255.29 541.69,255.29 542.04,255.29 542.39,255.29 542.74,255.29 543.08,255.29 543.43,255.29 543.78,255.29 544.13,259.69 544.47,265.35 544.82,271.25 545.17,276.43 545.51,280.87 545.86,284.82 546.21,288.31 546.56,288.31 546.90,288.31 547.25,288.31 547.60,288.31 547.95,288.31 548.29,288.31 548.64,288.31 548.99,288.31 549.34,288.31 549.68,288.31 550.03,288.31 550.38,288.31 550.72,288.31 551.07,288.31 551.42,288.31 551.77,288.31 552.11,288.31 552.46,288.31 552.81,288.31 553.16,288.31 553.50,288.31 553.85,288.31 554.20,288.31 554.54,288.31 554.89,288.31 555.24,288.31 555.59,288.31 555.93,288.31 556.28,288.31 556.63,288.31 556.98,288.31 557.32,288.31 557.67,288.31 558.02,288.31 558.36,288.31 558.71,288.31 559.06,288.31 559.41,288.31 559.75,288.31 560.10,288.31 560.45,288.31 560.80,288.31 561.14,288.31 561.49,288.31 561.84,288.31 562.19,288.31 562.53,288.31 562.88,288.31 563.23,288.31 563.57,288.31 563.92,288.31 564.27,288.31 564.62,288.31 564.96,288.31 565.31,288.31 565.66,288.31 566.01,288.31 566.35,288.31 566.70,288.31 567.05,288.31 567.39,288.31 567.74,288.31 568.09,288.31 568.44,288.31 568.78,288.31 569.13,288.31 569.48,288.31 569.83,288.31 570.17,288.31 570.52,288.31 "
       style="fill:none;stroke:#ff00ff;stroke-width:2.13000011;stroke-linecap:butt;stroke-linejoin:round;stroke-miterlimit:10"
       id="polyline171" />
    <polyline
       points="327.41,288.31 327.76,288.31 328.10,288.31 328.45,288.31 328.80,288.31 329.14,288.31 329.49,288.31 329.84,288.31 330.19,288.31 330.53,288.31 330.88,288.31 331.23,288.31 331.58,288.31 331.92,288.31 332.27,288.31 332.62,288.31 332.97,288.31 333.31,288.31 333.66,288.31 334.01,288.31 334.35,288.31 334.70,288.31 335.05,288.31 335.40,288.31 335.74,288.31 336.09,288.31 336.44,288.31 336.79,288.31 337.13,288.31 337.48,288.31 337.83,288.31 338.17,288.31 338.52,288.31 338.87,288.31 339.22,288.31 339.56,288.31 339.91,288.31 340.26,288.31 340.61,288.31 340.95,288.31 341.30,288.31 341.65,288.31 342.00,288.31 342.34,288.31 342.69,288.31 343.04,288.31 343.38,288.31 343.73,288.31 344.08,288.31 344.43,288.31 344.77,288.31 345.12,288.31 345.47,288.31 345.82,288.31 346.16,288.31 346.51,288.31 346.86,288.31 347.20,288.31 347.55,288.31 347.90,288.31 348.25,288.31 348.59,288.31 348.94,288.31 349.29,288.31 349.64,288.31 349.98,288.31 350.33,288.31 350.68,288.31 351.02,288.31 351.37,288.31 351.72,288.31 352.07,288.31 352.41,288.31 352.76,288.31 353.11,288.31 353.46,288.31 353.80,288.31 354.15,288.31 354.50,288.31 354.85,288.31 355.19,288.31 355.54,288.31 355.89,288.31 356.23,288.31 356.58,288.31 356.93,288.31 357.28,288.31 357.62,288.31 357.97,288.31 358.32,288.31 358.67,288.31 359.01,288.31 359.36,288.31 359.71,288.31 360.05,288.31 360.40,288.31 360.75,288.31 361.10,288.31 361.44,288.31 361.79,288.31 362.14,288.31 362.49,288.31 362.83,288.31 363.18,288.31 363.53,288.31 363.88,288.31 364.22,288.31 364.57,288.31 364.92,288.31 365.26,288.31 365.61,288.31 365.96,288.31 366.31,288.31 366.65,288.31 367.00,288.31 367.35,288.31 367.70,288.31 368.04,288.31 368.39,288.31 368.74,288.31 369.08,288.31 369.43,288.31 369.78,288.31 370.13,288.31 370.47,288.31 370.82,288.31 371.17,288.31 371.52,288.31 371.86,288.31 372.21,288.31 372.56,288.31 372.91,288.31 373.25,288.31 373.60,288.31 373.95,288.31 374.29,288.31 374.64,288.31 374.99,288.31 375.34,288.31 375.68,288.31 376.03,288.31 376.38,288.31 376.73,288.31 377.07,288.31 377.42,288.31 377.77,288.31 378.11,288.31 378.46,288.31 378.81,288.31 379.16,288.31 379.50,288.31 379.85,288.31 380.20,288.31 380.55,288.31 380.89,288.31 381.24,288.31 381.59,288.31 381.93,288.31 382.28,288.31 382.63,288.31 382.98,288.31 383.32,288.31 383.67,288.31 384.02,288.31 384.37,288.31 384.71,288.31 385.06,288.31 385.41,288.31 385.76,288.31 386.10,288.31 386.45,288.31 386.80,288.31 387.14,288.31 387.49,288.31 387.84,288.31 388.19,288.31 388.53,288.31 388.88,288.31 389.23,288.31 389.58,288.31 389.92,288.31 390.27,288.31 390.62,288.31 390.96,288.31 391.31,288.31 391.66,288.31 392.01,288.31 392.35,288.31 392.70,288.31 393.05,288.31 393.40,288.31 393.74,288.31 394.09,288.31 394.44,288.31 394.79,288.31 395.13,288.31 395.48,288.31 395.83,288.31 396.17,288.31 396.52,288.31 396.87,288.31 397.22,288.31 397.56,288.31 397.91,284.28 398.26,279.88 398.61,276.09 398.95,272.41 399.30,272.41 399.65,272.41 399.99,272.41 400.34,272.41 400.69,272.41 401.04,272.41 401.38,272.41 401.73,272.41 402.08,272.41 402.43,272.41 402.77,268.92 403.12,268.92 403.47,268.92 403.82,268.92 404.16,268.92 404.51,268.92 404.86,268.92 405.20,268.92 405.55,268.92 405.90,268.92 406.25,268.92 406.59,268.92 406.94,268.92 407.29,268.92 407.64,268.92 407.98,265.27 408.33,261.82 408.68,258.41 409.02,258.41 409.37,254.42 409.72,250.29 410.07,246.06 410.41,242.41 410.76,235.02 411.11,228.51 411.46,222.85 411.80,218.18 412.15,213.84 412.50,209.92 412.84,205.66 413.19,201.66 413.54,197.77 413.89,197.77 414.23,197.77 414.58,197.77 414.93,197.77 415.28,197.77 415.62,197.77 415.97,197.77 416.32,197.77 416.67,197.77 417.01,197.77 417.36,197.77 417.71,197.77 418.05,197.77 418.40,197.77 418.75,197.77 419.10,197.77 419.44,197.77 419.79,197.77 420.14,197.77 420.49,197.77 420.83,197.77 421.18,197.77 421.53,197.77 421.87,197.77 422.22,197.77 422.57,197.77 422.92,197.77 423.26,197.77 423.61,197.77 423.96,197.77 424.31,197.77 424.65,197.77 425.00,197.77 425.35,197.77 425.70,197.77 426.04,197.77 426.39,197.77 426.74,197.77 427.08,201.80 427.43,206.20 427.78,209.99 428.13,213.67 428.47,213.67 428.82,213.67 429.17,213.67 429.52,213.67 429.86,213.67 430.21,213.67 430.56,213.67 430.90,213.67 431.25,213.67 431.60,213.67 431.95,217.16 432.29,217.16 432.64,217.16 432.99,217.16 433.34,217.16 433.68,217.16 434.03,217.16 434.38,217.16 434.73,217.16 435.07,217.16 435.42,217.16 435.77,217.16 436.11,217.16 436.46,217.16 436.81,217.16 437.16,220.81 437.50,224.26 437.85,227.67 438.20,227.67 438.55,231.66 438.89,235.79 439.24,240.02 439.59,243.67 439.93,251.06 440.28,257.57 440.63,263.23 440.98,267.90 441.32,272.24 441.67,276.16 442.02,280.42 442.37,284.42 442.71,288.31 443.06,288.31 443.41,288.31 443.75,288.31 444.10,288.31 444.45,288.31 444.80,288.31 445.14,288.31 445.49,288.31 445.84,288.31 446.19,288.31 446.53,288.31 446.88,288.31 447.23,288.31 447.58,288.31 447.92,288.31 448.27,288.31 448.62,288.31 448.96,288.31 449.31,288.31 449.66,288.31 450.01,288.31 450.35,288.31 450.70,288.31 451.05,288.31 451.40,288.31 451.74,288.31 452.09,288.31 452.44,288.31 452.78,288.31 453.13,288.31 453.48,288.31 453.83,288.31 454.17,288.31 454.52,288.31 454.87,288.31 455.22,288.31 455.56,288.31 455.91,288.31 456.26,288.31 456.61,288.31 456.95,288.31 457.30,288.31 457.65,288.31 457.99,288.31 458.34,288.31 458.69,288.31 459.04,288.31 459.38,288.31 459.73,288.31 460.08,288.31 460.43,288.31 460.77,288.31 461.12,288.31 461.47,288.31 461.81,288.31 462.16,288.31 462.51,288.31 462.86,288.31 463.20,288.31 463.55,288.31 463.90,288.31 464.25,284.89 464.59,284.89 464.94,284.89 465.29,284.89 465.64,284.89 465.98,284.89 466.33,284.89 466.68,284.89 467.02,284.89 467.37,284.89 467.72,284.89 468.07,284.89 468.41,284.89 468.76,284.89 469.11,284.89 469.46,284.89 469.80,284.89 470.15,284.89 470.50,284.89 470.84,284.89 471.19,284.89 471.54,284.89 471.89,284.89 472.23,284.89 472.58,284.89 472.93,284.89 473.28,284.89 473.62,284.89 473.97,284.89 474.32,284.89 474.66,284.89 475.01,284.89 475.36,284.89 475.71,284.89 476.05,281.27 476.40,277.55 476.75,274.04 477.10,274.04 477.44,274.04 477.79,274.04 478.14,274.04 478.49,270.32 478.83,266.67 479.18,266.67 479.53,266.67 479.87,266.67 480.22,266.67 480.57,266.67 480.92,266.67 481.26,266.67 481.61,266.67 481.96,266.67 482.31,266.67 482.65,262.16 483.00,257.22 483.35,257.22 483.69,257.22 484.04,257.22 484.39,257.22 484.74,257.22 485.08,253.47 485.43,249.54 485.78,245.24 486.13,240.88 486.47,236.38 486.82,231.91 487.17,228.12 487.52,224.54 487.86,220.27 488.21,215.94 488.56,211.67 488.90,207.78 489.25,202.84 489.60,198.07 489.95,193.33 490.29,188.96 490.64,184.70 490.99,181.15 491.34,177.63 491.68,173.47 492.03,168.73 492.38,163.51 492.72,158.40 493.07,153.42 493.42,151.89 493.77,147.08 494.11,142.24 494.46,138.04 494.81,134.12 495.16,130.29 495.50,126.68 495.85,123.26 496.20,123.26 496.54,123.26 496.89,123.26 497.24,123.26 497.59,123.26 497.93,123.26 498.28,123.26 498.63,123.26 498.98,123.26 499.32,123.26 499.67,123.26 500.02,123.26 500.37,123.26 500.71,123.26 501.06,119.75 501.41,116.23 501.75,112.71 502.10,112.71 502.45,112.71 502.80,112.71 503.14,109.30 503.49,109.30 503.84,109.30 504.19,109.30 504.53,109.30 504.88,109.30 505.23,112.92 505.57,116.64 505.92,120.15 506.27,120.15 506.62,120.15 506.96,120.15 507.31,120.15 507.66,123.87 508.01,127.53 508.35,127.53 508.70,127.53 509.05,127.53 509.40,127.53 509.74,124.04 510.09,124.04 510.44,124.04 510.78,124.04 511.13,124.04 511.48,124.04 511.83,128.55 512.17,133.49 512.52,133.49 512.87,133.49 513.22,133.49 513.56,133.49 513.91,133.49 514.26,137.25 514.60,141.17 514.95,145.47 515.30,149.83 515.65,154.34 515.99,158.80 516.34,162.59 516.69,166.18 517.04,170.44 517.38,174.77 517.73,179.04 518.08,182.93 518.43,187.87 518.77,192.65 519.12,197.39 519.47,201.75 519.81,206.02 520.16,209.57 520.51,213.08 520.86,217.24 521.20,221.98 521.55,227.20 521.90,232.32 522.25,237.29 522.59,242.24 522.94,247.05 523.29,251.89 523.63,256.08 523.98,260.01 524.33,263.83 524.68,267.45 525.02,270.86 525.37,270.86 525.72,270.86 526.07,270.86 526.41,270.86 526.76,270.86 527.11,270.86 527.45,270.86 527.80,270.86 528.15,270.86 528.50,270.86 528.84,270.86 529.19,270.86 529.54,270.86 529.89,270.86 530.23,274.38 530.58,277.89 530.93,281.41 531.28,281.41 531.62,281.41 531.97,281.41 532.32,284.82 532.66,284.82 533.01,284.82 533.36,284.82 533.71,284.82 534.05,284.82 534.40,284.82 534.75,284.82 535.10,284.82 535.44,284.82 535.79,284.82 536.14,284.82 536.48,284.82 536.83,284.82 537.18,284.82 537.53,284.82 537.87,284.82 538.22,284.82 538.57,284.82 538.92,288.31 539.26,288.31 539.61,288.31 539.96,288.31 540.31,288.31 540.65,288.31 541.00,288.31 541.35,288.31 541.69,288.31 542.04,288.31 542.39,288.31 542.74,288.31 543.08,288.31 543.43,288.31 543.78,288.31 544.13,288.31 544.47,288.31 544.82,288.31 545.17,288.31 545.51,288.31 545.86,288.31 546.21,288.31 546.56,288.31 546.90,288.31 547.25,288.31 547.60,288.31 547.95,288.31 548.29,288.31 548.64,288.31 548.99,288.31 549.34,288.31 549.68,288.31 550.03,288.31 550.38,288.31 550.72,288.31 551.07,288.31 551.42,288.31 551.77,288.31 552.11,288.31 552.46,288.31 552.81,288.31 553.16,288.31 553.50,288.31 553.85,288.31 554.20,288.31 554.54,288.31 554.89,288.31 555.24,288.31 555.59,288.31 555.93,288.31 556.28,288.31 556.63,288.31 556.98,288.31 557.32,288.31 557.67,288.31 558.02,288.31 558.36,288.31 558.71,288.31 559.06,288.31 559.41,288.31 559.75,288.31 560.10,288.31 560.45,288.31 560.80,288.31 561.14,288.31 561.49,288.31 561.84,288.31 562.19,288.31 562.53,288.31 562.88,288.31 563.23,288.31 563.57,288.31 563.92,288.31 564.27,288.31 564.62,288.31 564.96,288.31 565.31,288.31 565.66,288.31 566.01,288.31 566.35,288.31 566.70,288.31 567.05,288.31 567.39,288.31 567.74,288.31 568.09,288.31 568.44,288.31 568.78,288.31 569.13,288.31 569.48,288.31 569.83,288.31 570.17,288.31 570.52,288.31 "
       style="fill:none;stroke:#00ffff;stroke-width:2.13000011;stroke-linecap:butt;stroke-linejoin:round;stroke-miterlimit:10"
       id="polyline173" />
    <polyline
       points="327.41,288.31 327.76,288.31 328.10,288.31 328.45,288.31 328.80,288.31 329.14,288.31 329.49,288.31 329.84,288.31 330.19,288.31 330.53,288.31 330.88,288.31 331.23,288.31 331.58,288.31 331.92,288.31 332.27,288.31 332.62,288.31 332.97,288.31 333.31,288.31 333.66,288.31 334.01,288.31 334.35,288.31 334.70,288.31 335.05,288.31 335.40,288.31 335.74,288.31 336.09,288.31 336.44,288.31 336.79,288.31 337.13,288.31 337.48,288.31 337.83,288.31 338.17,288.31 338.52,288.31 338.87,288.31 339.22,288.31 339.56,288.31 339.91,288.31 340.26,288.31 340.61,288.31 340.95,288.31 341.30,288.31 341.65,288.31 342.00,288.31 342.34,288.31 342.69,288.31 343.04,288.31 343.38,288.31 343.73,288.31 344.08,288.31 344.43,288.31 344.77,288.31 345.12,288.31 345.47,288.31 345.82,288.31 346.16,288.31 346.51,288.31 346.86,288.31 347.20,288.31 347.55,288.31 347.90,288.31 348.25,288.31 348.59,288.31 348.94,288.31 349.29,288.31 349.64,288.31 349.98,288.31 350.33,288.31 350.68,288.31 351.02,288.31 351.37,288.31 351.72,288.31 352.07,288.31 352.41,288.31 352.76,288.31 353.11,288.31 353.46,288.31 353.80,288.31 354.15,288.31 354.50,288.31 354.85,288.31 355.19,288.31 355.54,288.31 355.89,288.31 356.23,288.31 356.58,288.31 356.93,288.31 357.28,288.31 357.62,288.31 357.97,288.31 358.32,288.31 358.67,288.31 359.01,288.31 359.36,288.31 359.71,288.31 360.05,288.31 360.40,288.31 360.75,288.31 361.10,288.31 361.44,288.31 361.79,288.31 362.14,288.31 362.49,288.31 362.83,288.31 363.18,288.31 363.53,288.31 363.88,288.31 364.22,288.31 364.57,288.31 364.92,288.31 365.26,288.31 365.61,288.31 365.96,288.31 366.31,288.31 366.65,288.31 367.00,288.31 367.35,288.31 367.70,288.31 368.04,288.31 368.39,288.31 368.74,288.31 369.08,288.31 369.43,288.31 369.78,288.31 370.13,288.31 370.47,288.31 370.82,288.31 371.17,288.31 371.52,288.31 371.86,288.31 372.21,288.31 372.56,288.31 372.91,288.31 373.25,288.31 373.60,288.31 373.95,288.31 374.29,288.31 374.64,288.31 374.99,288.31 375.34,288.31 375.68,288.31 376.03,288.31 376.38,288.31 376.73,288.31 377.07,288.31 377.42,288.31 377.77,288.31 378.11,288.31 378.46,288.31 378.81,288.31 379.16,284.62 379.50,284.62 379.85,284.62 380.20,284.62 380.55,284.62 380.89,284.62 381.24,284.62 381.59,284.62 381.93,284.62 382.28,284.62 382.63,284.62 382.98,284.62 383.32,284.62 383.67,284.62 384.02,284.62 384.37,284.62 384.71,284.62 385.06,284.62 385.41,284.62 385.76,284.62 386.10,284.62 386.45,284.62 386.80,284.62 387.14,284.62 387.49,284.62 387.84,284.62 388.19,284.62 388.53,284.62 388.88,284.62 389.23,284.62 389.58,284.62 389.92,284.62 390.27,284.62 390.62,284.62 390.96,281.10 391.31,277.62 391.66,277.62 392.01,277.62 392.35,277.62 392.70,277.62 393.05,277.62 393.40,277.62 393.74,277.62 394.09,277.62 394.44,277.62 394.79,277.62 395.13,277.62 395.48,277.62 395.83,277.62 396.17,277.62 396.52,277.62 396.87,277.62 397.22,277.62 397.56,277.62 397.91,277.62 398.26,277.62 398.61,277.62 398.95,277.62 399.30,277.62 399.65,277.62 399.99,277.62 400.34,277.62 400.69,277.62 401.04,277.62 401.38,277.62 401.73,277.62 402.08,277.62 402.43,277.62 402.77,277.62 403.12,277.62 403.47,277.62 403.82,277.62 404.16,277.62 404.51,277.62 404.86,277.62 405.20,277.62 405.55,277.62 405.90,277.62 406.25,277.62 406.59,277.62 406.94,277.62 407.29,277.62 407.64,277.62 407.98,277.62 408.33,281.31 408.68,281.31 409.02,281.31 409.37,281.31 409.72,281.31 410.07,281.31 410.41,281.31 410.76,281.31 411.11,281.31 411.46,281.31 411.80,281.31 412.15,281.31 412.50,281.31 412.84,281.31 413.19,281.31 413.54,281.31 413.89,281.31 414.23,281.31 414.58,281.31 414.93,281.31 415.28,281.31 415.62,281.31 415.97,281.31 416.32,281.31 416.67,281.31 417.01,281.31 417.36,281.31 417.71,281.31 418.05,281.31 418.40,281.31 418.75,281.31 419.10,281.31 419.44,281.31 419.79,281.31 420.14,284.82 420.49,288.31 420.83,288.31 421.18,288.31 421.53,288.31 421.87,288.31 422.22,288.31 422.57,288.31 422.92,288.31 423.26,288.31 423.61,288.31 423.96,288.31 424.31,288.31 424.65,288.31 425.00,288.31 425.35,288.31 425.70,288.31 426.04,288.31 426.39,288.31 426.74,288.31 427.08,288.31 427.43,288.31 427.78,288.31 428.13,288.31 428.47,288.31 428.82,288.31 429.17,288.31 429.52,288.31 429.86,288.31 430.21,288.31 430.56,288.31 430.90,288.31 431.25,288.31 431.60,288.31 431.95,288.31 432.29,288.31 432.64,288.31 432.99,288.31 433.34,288.31 433.68,288.31 434.03,288.31 434.38,288.31 434.73,288.31 435.07,288.31 435.42,288.31 435.77,288.31 436.11,288.31 436.46,288.31 436.81,288.31 437.16,288.31 437.50,288.31 437.85,288.31 438.20,288.31 438.55,288.31 438.89,288.31 439.24,288.31 439.59,288.31 439.93,288.31 440.28,288.31 440.63,288.31 440.98,288.31 441.32,288.31 441.67,288.31 442.02,288.31 442.37,288.31 442.71,288.31 443.06,288.31 443.41,288.31 443.75,288.31 444.10,288.31 444.45,288.31 444.80,288.31 445.14,288.31 445.49,288.31 445.84,288.31 446.19,288.31 446.53,288.31 446.88,288.31 447.23,288.31 447.58,288.31 447.92,288.31 448.27,288.31 448.62,288.31 448.96,288.31 449.31,288.31 449.66,288.31 450.01,288.31 450.35,288.31 450.70,288.31 451.05,288.31 451.40,288.31 451.74,288.31 452.09,288.31 452.44,288.31 452.78,288.31 453.13,288.31 453.48,288.31 453.83,288.31 454.17,288.31 454.52,288.31 454.87,288.31 455.22,284.48 455.56,279.95 455.91,275.58 456.26,275.58 456.61,275.58 456.95,272.13 457.30,268.48 457.65,264.25 457.99,260.26 458.34,260.26 458.69,260.26 459.04,260.26 459.38,260.26 459.73,260.26 460.08,260.26 460.43,260.26 460.77,260.26 461.12,260.26 461.47,260.26 461.81,260.26 462.16,260.26 462.51,260.26 462.86,260.26 463.20,260.26 463.55,260.26 463.90,260.26 464.25,260.26 464.59,260.26 464.94,260.26 465.29,260.26 465.64,260.26 465.98,260.26 466.33,260.26 466.68,260.26 467.02,260.26 467.37,260.26 467.72,260.26 468.07,256.81 468.41,256.81 468.76,256.81 469.11,256.81 469.46,256.81 469.80,256.81 470.15,256.81 470.50,256.81 470.84,256.81 471.19,256.81 471.54,256.81 471.89,256.81 472.23,256.81 472.58,256.81 472.93,256.81 473.28,256.81 473.62,256.81 473.97,256.81 474.32,256.81 474.66,256.81 475.01,256.81 475.36,256.81 475.71,256.81 476.05,256.81 476.40,256.81 476.75,256.81 477.10,256.81 477.44,256.81 477.79,256.81 478.14,256.81 478.49,256.81 478.83,256.81 479.18,256.81 479.53,256.81 479.87,256.81 480.22,256.81 480.57,256.81 480.92,256.81 481.26,256.81 481.61,256.81 481.96,256.81 482.31,256.81 482.65,256.81 483.00,256.81 483.35,256.81 483.69,256.81 484.04,256.81 484.39,260.63 484.74,265.17 485.08,269.54 485.43,269.54 485.78,266.02 486.13,265.10 486.47,268.75 486.82,272.98 487.17,276.98 487.52,276.98 487.86,276.98 488.21,276.98 488.56,276.98 488.90,276.98 489.25,276.98 489.60,276.98 489.95,276.98 490.29,276.98 490.64,276.98 490.99,276.98 491.34,276.98 491.68,276.98 492.03,276.98 492.38,276.98 492.72,276.98 493.07,276.98 493.42,276.98 493.77,276.98 494.11,276.98 494.46,276.98 494.81,276.98 495.16,273.02 495.50,267.70 495.85,262.42 496.20,257.61 496.54,253.45 496.89,249.79 497.24,253.24 497.59,253.24 497.93,253.24 498.28,253.24 498.63,253.24 498.98,253.24 499.32,253.24 499.67,253.24 500.02,253.24 500.37,253.24 500.71,253.24 501.06,253.24 501.41,253.24 501.75,253.24 502.10,253.24 502.45,253.24 502.80,253.24 503.14,253.24 503.49,253.24 503.84,253.24 504.19,253.24 504.53,253.24 504.88,253.24 505.23,253.24 505.57,253.24 505.92,253.24 506.27,253.24 506.62,253.24 506.96,253.24 507.31,253.24 507.66,253.24 508.01,253.24 508.35,253.24 508.70,253.24 509.05,253.24 509.40,253.24 509.74,253.24 510.09,253.24 510.44,253.24 510.78,253.24 511.13,253.24 511.48,253.24 511.83,253.24 512.17,253.24 512.52,253.24 512.87,253.24 513.22,253.24 513.56,253.24 513.91,253.24 514.26,253.24 514.60,253.24 514.95,256.76 515.30,261.12 515.65,261.12 515.99,261.12 516.34,261.12 516.69,261.12 517.04,261.12 517.38,261.12 517.73,261.12 518.08,261.12 518.43,261.12 518.77,261.12 519.12,261.12 519.47,261.12 519.81,261.12 520.16,261.12 520.51,261.12 520.86,261.12 521.20,261.12 521.55,261.12 521.90,261.12 522.25,261.12 522.59,261.12 522.94,261.12 523.29,261.12 523.63,261.12 523.98,261.12 524.33,265.08 524.68,270.40 525.02,275.68 525.37,280.49 525.72,284.65 526.07,288.31 526.41,288.31 526.76,288.31 527.11,288.31 527.45,288.31 527.80,288.31 528.15,288.31 528.50,288.31 528.84,288.31 529.19,288.31 529.54,288.31 529.89,288.31 530.23,288.31 530.58,288.31 530.93,288.31 531.28,288.31 531.62,288.31 531.97,288.31 532.32,288.31 532.66,288.31 533.01,288.31 533.36,288.31 533.71,288.31 534.05,288.31 534.40,288.31 534.75,288.31 535.10,288.31 535.44,288.31 535.79,288.31 536.14,288.31 536.48,288.31 536.83,288.31 537.18,288.31 537.53,288.31 537.87,288.31 538.22,288.31 538.57,288.31 538.92,288.31 539.26,288.31 539.61,288.31 539.96,288.31 540.31,288.31 540.65,288.31 541.00,288.31 541.35,288.31 541.69,288.31 542.04,288.31 542.39,288.31 542.74,288.31 543.08,288.31 543.43,288.31 543.78,288.31 544.13,288.31 544.47,288.31 544.82,288.31 545.17,288.31 545.51,288.31 545.86,288.31 546.21,288.31 546.56,288.31 546.90,288.31 547.25,288.31 547.60,288.31 547.95,288.31 548.29,288.31 548.64,288.31 548.99,288.31 549.34,288.31 549.68,288.31 550.03,288.31 550.38,288.31 550.72,288.31 551.07,288.31 551.42,288.31 551.77,288.31 552.11,288.31 552.46,288.31 552.81,288.31 553.16,288.31 553.50,288.31 553.85,288.31 554.20,288.31 554.54,288.31 554.89,288.31 555.24,288.31 555.59,288.31 555.93,288.31 556.28,288.31 556.63,288.31 556.98,288.31 557.32,288.31 557.67,288.31 558.02,288.31 558.36,288.31 558.71,288.31 559.06,288.31 559.41,288.31 559.75,288.31 560.10,288.31 560.45,288.31 560.80,288.31 561.14,288.31 561.49,288.31 561.84,288.31 562.19,288.31 562.53,288.31 562.88,288.31 563.23,288.31 563.57,288.31 563.92,288.31 564.27,288.31 564.62,288.31 564.96,288.31 565.31,288.31 565.66,288.31 566.01,288.31 566.35,288.31 566.70,288.31 567.05,288.31 567.39,288.31 567.74,288.31 568.09,288.31 568.44,288.31 568.78,288.31 569.13,288.31 569.48,288.31 569.83,288.31 570.17,288.31 570.52,288.31 "
       style="fill:none;stroke:#000000;stroke-width:2.13000011;stroke-linecap:butt;stroke-linejoin:round;stroke-miterlimit:10"
       id="polyline175" />
    <rect
       x="327.06"
       y="23.58"
       width="243.46001"
       height="267.59"
       style="fill:none;stroke:#333333;stroke-width:1.07000005;stroke-linecap:round;stroke-linejoin:round;stroke-miterlimit:10"
       id="rect177" />
  </g>
  <polyline
     id="polyline193"
     style="fill:none;stroke:#333333;stroke-width:1.07000005;stroke-linecap:butt;stroke-linejoin:round;stroke-miterlimit:10"
     points="324.32,288.31 327.06,288.31 "
     transform="translate(-27)" />
  <polyline
     id="polyline195"
     style="fill:none;stroke:#333333;stroke-width:1.07000005;stroke-linecap:butt;stroke-linejoin:round;stroke-miterlimit:10"
     points="324.32,240.69 327.06,240.69 "
     transform="translate(-27)" />
  <polyline
     id="polyline197"
     style="fill:none;stroke:#333333;stroke-width:1.07000005;stroke-linecap:butt;stroke-linejoin:round;stroke-miterlimit:10"
     points="324.32,193.08 327.06,193.08 "
     transform="translate(-27)" />
  <polyline
     id="polyline199"
     style="fill:none;stroke:#333333;stroke-width:1.07000005;stroke-linecap:butt;stroke-linejoin:round;stroke-miterlimit:10"
     points="324.32,145.47 327.06,145.47 "
     transform="translate(-27)" />
  <polyline
     id="polyline201"
     style="fill:none;stroke:#333333;stroke-width:1.07000005;stroke-linecap:butt;stroke-linejoin:round;stroke-miterlimit:10"
     points="324.32,97.85 327.06,97.85 "
     transform="translate(-27)" />
  <polyline
     id="polyline203"
     style="fill:none;stroke:#333333;stroke-width:1.07000005;stroke-linecap:butt;stroke-linejoin:round;stroke-miterlimit:10"
     points="324.32,50.24 327.06,50.24 "
     transform="translate(-27)" />
  <polyline
     id="polyline205"
     style="fill:none;stroke:#333333;stroke-width:1.07000005;stroke-linecap:butt;stroke-linejoin:round;stroke-miterlimit:10"
     points="327.06,293.90 327.06,291.16 "
     transform="translate(-27)" />
  <polyline
     id="polyline207"
     style="fill:none;stroke:#333333;stroke-width:1.07000005;stroke-linecap:butt;stroke-linejoin:round;stroke-miterlimit:10"
     points="358.32,293.90 358.32,291.16 "
     transform="translate(-27)" />
  <polyline
     id="polyline209"
     style="fill:none;stroke:#333333;stroke-width:1.07000005;stroke-linecap:butt;stroke-linejoin:round;stroke-miterlimit:10"
     points="389.58,293.90 389.58,291.16 "
     transform="translate(-27)" />
  <polyline
     id="polyline211"
     style="fill:none;stroke:#333333;stroke-width:1.07000005;stroke-linecap:butt;stroke-linejoin:round;stroke-miterlimit:10"
     points="420.83,293.90 420.83,291.16 "
     transform="translate(-27)" />
  <polyline
     id="polyline213"
     style="fill:none;stroke:#333333;stroke-width:1.07000005;stroke-linecap:butt;stroke-linejoin:round;stroke-miterlimit:10"
     points="452.09,293.90 452.09,291.16 "
     transform="translate(-27)" />
  <polyline
     id="polyline215"
     style="fill:none;stroke:#333333;stroke-width:1.07000005;stroke-linecap:butt;stroke-linejoin:round;stroke-miterlimit:10"
     points="483.35,293.90 483.35,291.16 "
     transform="translate(-27)" />
  <polyline
     id="polyline217"
     style="fill:none;stroke:#333333;stroke-width:1.07000005;stroke-linecap:butt;stroke-linejoin:round;stroke-miterlimit:10"
     points="514.60,293.90 514.60,291.16 "
     transform="translate(-27)" />
  <polyline
     id="polyline219"
     style="fill:none;stroke:#333333;stroke-width:1.07000005;stroke-linecap:butt;stroke-linejoin:round;stroke-miterlimit:10"
     points="545.86,293.90 545.86,291.16 "
     transform="translate(-27)" />
  <text
     id="text241"
     lengthAdjust="spacingAndGlyphs"
     textLength="2.75"
     style="font-size:11px;font-family:'Standard Symbols PS'"
     transform="rotate(-90,239.53,-63.3)" />
  <text
     id="text249"
     lengthAdjust="spacingAndGlyphs"
     textLength="2.75"
     style="font-size:11px;font-family:'Standard Symbols PS'"
     transform="rotate(-90,229.825,-73.005)" />
  <rect
     id="rect255"
     style="fill:#ffffff;stroke:#000000;stroke-width:0.75;stroke-linecap:round;stroke-linejoin:round;stroke-miterlimit:10"
     height="79.529999"
     width="68.220001"
     y="50.709999"
     x="326.82001" />
  <rect
     id="rect257"
     style="fill:#ffffff;stroke:none;stroke-width:1.07000005;stroke-linecap:round;stroke-linejoin:round;stroke-miterlimit:10"
     height="79.529999"
     width="68.220001"
     y="50.709999"
     x="326.82001" />
  <text
     id="text259"
     lengthAdjust="spacingAndGlyphs"
     textLength="30.82"
     style="font-size:11px;font-family:Arial"
     y="65.830002"
     x="359.29999"
     transform="translate(-27)">ENSO</text>
  <rect
     id="rect261"
     style="fill:#ffffff;stroke:none;stroke-width:1.07000005;stroke-linecap:round;stroke-linejoin:round;stroke-miterlimit:10"
     height="17.280001"
     width="17.280001"
     y="72.919998"
     x="332.29999" />
  <line
     id="line263"
     style="fill:none;stroke:#ff00ff;stroke-width:2.13000011;stroke-linecap:butt;stroke-linejoin:round;stroke-miterlimit:10"
     y2="81.559998"
     x2="347.85001"
     y1="81.559998"
     x1="334.01999" />
  <rect
     id="rect265"
     style="fill:#ffffff;stroke:none;stroke-width:1.07000005;stroke-linecap:round;stroke-linejoin:round;stroke-miterlimit:10"
     height="17.280001"
     width="17.280001"
     y="90.199997"
     x="332.29999" />
  <line
     id="line267"
     style="fill:none;stroke:#00ffff;stroke-width:2.13000011;stroke-linecap:butt;stroke-linejoin:round;stroke-miterlimit:10"
     y2="98.839996"
     x2="347.85001"
     y1="98.839996"
     x1="334.01999" />
  <rect
     id="rect269"
     style="fill:#ffffff;stroke:none;stroke-width:1.07000005;stroke-linecap:round;stroke-linejoin:round;stroke-miterlimit:10"
     height="17.280001"
     width="17.280001"
     y="107.48"
     x="332.29999" />
  <line
     id="line271"
     style="fill:none;stroke:#000000;stroke-width:2.13000011;stroke-linecap:butt;stroke-linejoin:round;stroke-miterlimit:10"
     y2="116.12"
     x2="347.85001"
     y1="116.12"
     x1="334.01999" />
  <text
     id="text273"
     lengthAdjust="spacingAndGlyphs"
     textLength="36.740002"
     style="font-size:8.80000019px;font-family:Arial"
     y="84.769997"
     x="382.06"
     transform="translate(-27)">1982-83</text>
  <text
     id="text275"
     lengthAdjust="spacingAndGlyphs"
     textLength="36.740002"
     style="font-size:8.80000019px;font-family:Arial"
     y="102.05"
     x="382.06"
     transform="translate(-27)">1997-98</text>
  <text
     id="text277"
     lengthAdjust="spacingAndGlyphs"
     textLength="36.740002"
     style="font-size:8.80000019px;font-family:Arial"
     y="119.33"
     x="382.06"
     transform="translate(-27)">2015-16</text>
  <text
     id="text279"
     lengthAdjust="spacingAndGlyphs"
     textLength="12.56"
     style="font-size:13.19999981px;font-family:Arial"
     y="15.1"
     x="327.06" />
  <text
     id="text1160-3-0"
     y="13.308344"
     x="73.503311"
     style="font-style:normal;font-variant:normal;font-weight:normal;font-stretch:normal;font-size:15.75px;line-height:28.125px;font-family:Arial;-inkscape-font-specification:Arial;text-align:center;letter-spacing:0px;word-spacing:0px;text-anchor:middle;fill:#000000;fill-opacity:1;stroke:none;stroke-width:1.125px;stroke-linecap:butt;stroke-linejoin:miter;stroke-opacity:1"
     xml:space="preserve"><tspan
       style="font-size:14px;fill:#4d4d4d;stroke-width:1.125px"
       y="13.308344"
       x="75.384903"
       id="tspan1158-61-62"
       sodipodi:role="line"><tspan
   style="font-weight:bold;font-size:14px"
   id="tspan1254">a.</tspan> OI-SST </tspan></text>
  <text
     id="text1160-3-0-6"
     y="13.304926"
     x="336.97598"
     style="font-style:normal;font-variant:normal;font-weight:normal;font-stretch:normal;font-size:15.75px;line-height:28.125px;font-family:Arial;-inkscape-font-specification:Arial;text-align:center;letter-spacing:0px;word-spacing:0px;text-anchor:middle;fill:#000000;fill-opacity:1;stroke:none;stroke-width:1.125px;stroke-linecap:butt;stroke-linejoin:miter;stroke-opacity:1"
     xml:space="preserve"><tspan
       style="font-size:14px;fill:#4d4d4d;stroke-width:1.125px"
       y="13.304926"
       x="338.85757"
       id="tspan1158-61-62-1"
       sodipodi:role="line"><tspan
   style="font-weight:bold;font-size:14px;stroke-width:1.125px"
   id="tspan1254-8">b.</tspan> CCI-SST </tspan></text>
</svg>
